{"glyphs":{"0":{"ha":808,"x_min":90,"x_max":810,"o":"m 215 486 q 250 626 225 557 q 314 752 275 696 q 405 842 353 808 q 521 875 457 875 q 606 850 572 874 q 658 786 639 826 q 684 695 676 746 q 691 591 692 644 q 685 486 690 538 q 650 346 675 415 q 586 220 625 276 q 495 131 547 164 q 379 99 443 97 q 294 123 328 99 q 242 188 261 147 q 216 278 224 228 q 209 382 208 328 q 215 486 210 436 m 99 486 q 93 346 90 417 q 113 210 96 275 q 163 96 129 146 q 247 17 196 46 q 369 -12 297 -12 q 531 29 457 -12 q 660 142 604 71 q 753 303 717 214 q 801 486 789 392 q 807 627 810 556 q 788 763 804 699 q 738 877 771 826 q 653 957 704 928 q 531 986 603 986 q 369 944 443 986 q 240 831 296 903 q 147 670 183 760 q 99 486 111 581 z "},"1":{"ha":607,"x_min":201,"x_max":564,"o":"m 201 781 l 422 843 l 278 0 l 394 0 l 564 988 l 224 904 l 201 781 z "},"2":{"ha":767,"x_min":3,"x_max":786,"o":"m 3 0 l 671 0 l 689 111 l 260 113 l 608 426 q 717 556 669 483 q 775 707 764 628 q 758 838 786 774 q 669 945 731 903 q 514 988 607 988 q 338 940 413 988 q 218 815 264 893 q 156 640 172 736 l 271 640 q 313 758 283 704 q 391 845 343 813 q 504 876 439 878 q 594 851 558 876 q 647 785 631 825 q 656 703 663 746 q 631 626 650 663 q 583 556 611 589 q 522 490 556 522 l 3 0 z "},"3":{"ha":736,"x_min":90,"x_max":747,"o":"m 392 481 q 515 501 457 483 q 620 549 574 518 q 698 626 667 581 q 738 728 729 671 q 722 854 747 796 q 643 949 697 913 q 511 986 589 986 q 369 953 432 986 q 265 862 306 919 q 210 732 224 804 l 321 732 q 358 806 332 772 q 421 860 383 839 q 504 879 458 881 q 578 857 550 879 q 616 800 606 835 q 619 724 626 765 q 581 638 611 675 q 504 581 550 601 q 401 556 458 560 l 392 481 m 360 -12 q 515 22 443 -12 q 634 116 586 56 q 693 257 682 176 q 683 377 703 326 q 620 460 663 428 q 520 510 578 493 q 397 528 463 526 l 386 451 q 467 437 429 449 q 531 403 504 425 q 571 349 558 382 q 576 271 583 317 q 540 182 569 221 q 467 121 511 143 q 369 99 424 99 q 281 119 317 99 q 227 176 244 140 q 213 257 210 211 l 96 257 q 119 119 90 181 q 210 23 149 58 q 360 -12 272 -12 z "},"4":{"ha":786,"x_min":24,"x_max":761,"o":"m 24 196 l 743 194 l 761 299 l 563 299 l 539 299 l 232 300 l 564 703 l 489 260 l 486 244 l 443 0 l 560 0 l 726 972 l 676 971 l 24 196 z "},"5":{"ha":760,"x_min":46,"x_max":832,"o":"m 733 319 q 720 478 744 404 q 640 600 696 553 q 497 647 583 647 q 424 637 460 647 q 353 611 388 626 l 461 868 l 814 868 l 832 972 l 383 972 l 182 456 q 310 521 250 497 q 439 542 369 544 q 543 510 501 540 q 603 430 585 479 q 613 319 622 381 q 569 207 603 257 q 484 128 536 157 q 364 99 432 99 q 233 147 288 99 q 151 258 179 194 l 46 192 q 161 45 86 103 q 354 -12 236 -12 q 490 11 426 -12 q 606 78 554 35 q 690 183 657 122 q 733 319 724 244 z "},"6":{"ha":776,"x_min":81,"x_max":746,"o":"m 203 319 q 248 434 213 382 q 337 517 283 486 q 453 549 390 549 q 557 515 515 549 q 617 431 599 482 q 625 319 635 379 q 580 206 615 258 q 492 124 544 154 q 375 94 439 94 q 272 126 314 94 q 213 210 231 158 q 203 319 194 261 m 568 972 l 181 521 q 124 429 147 481 q 92 319 100 378 q 111 153 81 229 q 208 33 142 78 q 367 -12 274 -12 q 540 31 461 -12 q 672 151 619 75 q 736 319 724 226 q 720 472 746 400 q 639 588 694 543 q 501 635 583 633 q 419 622 457 635 q 350 581 382 608 l 360 572 l 719 972 l 568 972 z "},"7":{"ha":707,"x_min":103,"x_max":831,"o":"m 147 861 l 636 861 l 103 0 l 228 0 l 831 972 l 165 972 l 147 861 z "},"8":{"ha":736,"x_min":72,"x_max":725,"o":"m 196 739 q 200 640 188 685 q 242 563 213 596 q 317 513 272 531 q 419 494 363 494 q 527 512 476 494 q 618 561 578 529 q 684 638 658 593 q 718 738 710 683 q 712 832 725 788 q 668 911 699 876 q 593 966 638 946 q 494 986 549 986 q 357 953 421 986 q 250 863 293 919 q 196 739 207 807 m 303 724 q 337 803 311 767 q 401 861 363 839 q 485 882 440 883 q 558 859 529 882 q 600 801 588 836 q 606 724 613 765 q 571 647 599 682 q 505 591 543 611 q 424 571 467 571 q 353 593 382 572 q 310 649 324 614 q 303 724 297 683 m 81 265 q 88 160 72 210 q 137 71 103 110 q 221 10 171 32 q 332 -12 271 -12 q 452 8 394 -12 q 556 67 510 29 q 631 156 601 106 q 671 264 661 207 q 664 376 679 325 q 613 465 649 428 q 528 522 578 501 q 419 542 479 542 q 301 522 358 542 q 198 466 244 503 q 121 378 151 429 q 81 265 90 328 m 193 278 q 236 371 203 328 q 317 440 269 414 q 414 465 364 467 q 500 438 464 465 q 553 369 536 411 q 563 278 571 326 q 521 181 554 224 q 440 115 488 139 q 342 92 393 92 q 256 117 292 93 q 203 184 219 142 q 193 278 186 226 z "},"9":{"ha":776,"x_min":133,"x_max":800,"o":"m 676 653 q 631 540 667 592 q 543 456 596 488 q 426 425 490 425 q 322 458 364 425 q 263 542 281 490 q 254 653 246 594 q 299 767 264 715 q 388 849 335 818 q 504 879 442 879 q 608 847 567 879 q 668 764 650 815 q 676 653 686 713 m 311 0 l 699 451 q 756 544 732 492 q 788 653 779 596 q 769 820 800 744 q 672 941 738 896 q 513 986 607 986 q 340 942 419 986 q 208 823 260 899 q 143 653 156 747 q 159 502 133 574 q 241 385 185 431 q 378 339 297 340 q 460 351 422 338 q 529 392 497 364 l 519 401 l 160 0 l 311 0 z "}," ":{"ha":418,"x_min":0,"x_max":0,"o":""}," ":{"ha":418,"x_min":0,"x_max":0,"o":""},"A":{"ha":889,"x_min":-35,"x_max":844,"o":"m 211 292 l 711 292 l 689 403 l 268 403 l 211 292 m 539 753 l 632 361 l 638 333 l 718 0 l 844 0 l 582 1024 l -35 0 l 99 0 l 299 342 l 314 367 l 539 753 z "},"À":{"ha":889,"x_min":-35,"x_max":844,"o":"m 211 293 l 711 292 l 689 403 l 268 403 l 211 293 m 539 753 l 632 361 l 638 333 l 718 0 l 844 0 l 582 1024 l -35 0 l 99 0 l 299 342 l 314 367 l 539 753 m 456 1314 l 667 1104 l 732 1144 l 565 1368 l 456 1314 z "},"Á":{"ha":889,"x_min":-35,"x_max":844,"o":"m 211 293 l 711 292 l 689 403 l 268 403 l 211 293 m 539 753 l 632 361 l 638 333 l 718 0 l 844 0 l 582 1024 l -35 0 l 99 0 l 299 342 l 314 367 l 539 753 m 808 1310 l 713 1368 l 474 1149 l 532 1106 l 808 1310 z "},"Â":{"ha":889,"x_min":-35,"x_max":844,"o":"m 211 293 l 711 292 l 689 403 l 268 403 l 211 293 m 539 753 l 632 361 l 638 333 l 718 0 l 844 0 l 582 1024 l -35 0 l 99 0 l 299 342 l 314 367 l 539 753 m 613 1181 l 738 1050 l 813 1103 l 626 1299 l 379 1107 l 440 1050 l 613 1181 z "},"Ã":{"ha":889,"x_min":-35,"x_max":844,"o":"m 211 293 l 711 292 l 689 403 l 268 403 l 211 293 m 539 753 l 632 361 l 638 333 l 718 0 l 844 0 l 582 1024 l -35 0 l 99 0 l 299 342 l 314 367 l 539 753 m 376 1131 l 443 1078 q 469 1122 451 1097 q 524 1147 486 1146 q 575 1133 553 1149 q 620 1101 597 1117 q 675 1083 643 1085 q 740 1097 710 1082 q 794 1135 769 1113 q 833 1182 818 1158 l 778 1243 q 736 1198 758 1217 q 689 1178 714 1179 q 636 1192 657 1176 q 592 1225 615 1208 q 533 1242 569 1242 q 469 1227 500 1243 q 414 1185 438 1211 q 376 1131 390 1160 z "},"Ä":{"ha":889,"x_min":-35,"x_max":844,"o":"m 211 293 l 711 292 l 689 403 l 268 403 l 211 293 m 539 753 l 632 361 l 638 333 l 718 0 l 844 0 l 582 1024 l -35 0 l 99 0 l 299 342 l 314 367 l 539 753 m 669 1182 q 685 1130 667 1153 q 732 1106 703 1107 q 788 1128 761 1104 q 818 1179 815 1151 q 803 1232 821 1208 q 756 1257 785 1256 q 699 1234 726 1258 q 669 1182 672 1210 m 399 1182 q 415 1130 396 1153 q 463 1106 433 1107 q 519 1128 492 1104 q 549 1179 546 1151 q 533 1232 551 1208 q 486 1257 515 1256 q 429 1234 457 1258 q 399 1182 401 1210 z "},"Å":{"ha":889,"x_min":-35,"x_max":844,"o":"m 211 293 l 711 292 l 689 403 l 268 403 l 211 293 m 539 753 l 632 361 l 638 333 l 718 0 l 844 0 l 582 1024 l -35 0 l 99 0 l 299 342 l 314 367 l 539 753 m 458 1110 q 467 1041 453 1072 q 510 990 482 1010 q 575 971 539 971 q 647 989 613 971 q 706 1038 682 1007 q 735 1107 731 1069 q 726 1177 740 1146 q 683 1228 711 1208 q 618 1247 656 1247 q 547 1228 582 1247 q 488 1179 511 1210 q 458 1110 464 1149 m 528 1108 q 544 1145 531 1128 q 576 1173 557 1163 q 611 1182 594 1183 q 652 1159 636 1181 q 665 1110 668 1138 q 635 1058 663 1081 q 582 1036 607 1035 q 541 1059 557 1038 q 528 1108 525 1081 z "},"Ā":{"ha":889,"x_min":-35,"x_max":851,"o":"m 211 293 l 711 292 l 689 403 l 268 403 l 211 293 m 539 753 l 632 361 l 638 333 l 718 0 l 844 0 l 582 1024 l -35 0 l 99 0 l 299 342 l 314 367 l 539 753 m 361 1106 l 835 1104 l 851 1208 l 378 1208 l 361 1106 z "},"Ă":{"ha":889,"x_min":-35,"x_max":844,"o":"m 211 293 l 711 292 l 689 403 l 268 403 l 211 293 m 539 753 l 632 361 l 638 333 l 718 0 l 844 0 l 582 1024 l -35 0 l 99 0 l 299 342 l 314 367 l 539 753 m 415 1299 q 430 1204 411 1249 q 491 1133 449 1160 q 600 1106 533 1106 q 717 1133 668 1106 q 799 1203 767 1160 q 843 1297 831 1247 l 744 1299 q 719 1252 736 1276 q 676 1212 703 1228 q 607 1196 650 1196 q 545 1212 567 1196 q 517 1252 524 1228 q 511 1299 510 1276 l 415 1299 z "},"Ą":{"ha":889,"x_min":-35,"x_max":854,"o":"m 211 293 l 711 292 l 689 403 l 268 403 l 211 293 m 539 753 l 632 361 l 638 333 l 718 0 l 844 0 l 582 1024 l -35 0 l 99 0 l 299 342 l 314 367 l 539 753 m 819 -181 q 788 -199 806 -190 q 747 -207 771 -208 q 706 -187 718 -204 q 696 -139 693 -169 q 725 -83 701 -108 q 782 -36 749 -57 q 847 0 815 -15 l 793 35 q 702 -17 747 13 q 624 -83 657 -46 q 583 -165 592 -119 q 614 -267 574 -229 q 729 -304 654 -306 q 801 -288 769 -304 q 854 -251 832 -272 l 819 -181 z "},"B":{"ha":753,"x_min":69,"x_max":729,"o":"m 249 515 l 404 515 q 551 540 483 517 q 663 611 618 564 q 719 729 708 658 q 715 834 729 789 q 666 910 700 879 q 583 956 632 940 q 475 972 535 972 l 236 972 l 69 0 l 331 0 q 500 33 422 0 q 631 129 578 65 q 697 285 683 193 q 688 398 707 350 q 630 478 669 446 q 535 526 590 510 q 415 542 479 542 l 253 542 l 242 478 l 411 476 q 511 454 469 476 q 572 390 553 432 q 582 292 592 349 q 538 192 572 235 q 452 128 503 150 q 340 106 401 106 l 204 104 l 335 868 l 465 868 q 572 827 532 867 q 601 722 613 788 q 566 646 594 678 q 497 597 538 614 q 408 579 456 581 l 258 579 l 249 515 z "},"C":{"ha":924,"x_min":85,"x_max":942,"o":"m 222 486 q 273 634 235 565 q 368 756 311 703 q 494 838 425 808 q 640 868 564 868 q 803 830 733 868 q 917 724 872 792 l 942 879 q 815 961 883 935 q 653 986 746 988 q 456 947 549 986 q 288 838 363 907 q 163 679 213 769 q 99 486 114 589 q 106 299 85 389 q 178 138 126 208 q 309 27 229 68 q 490 -14 389 -14 q 665 14 589 -14 q 810 93 742 42 l 833 247 q 686 146 769 188 q 501 106 603 104 q 369 138 426 106 q 276 223 313 169 q 225 344 239 276 q 222 486 211 413 z "},"Ç":{"ha":924,"x_min":85,"x_max":942,"o":"m 222 486 q 273 634 235 565 q 368 756 311 703 q 494 838 425 808 q 640 868 564 868 q 803 830 733 868 q 917 724 872 792 l 942 879 q 815 961 883 935 q 653 986 746 988 q 456 947 549 986 q 288 838 363 907 q 163 679 213 769 q 99 486 114 589 q 106 299 85 389 q 178 138 126 208 q 309 27 229 68 q 490 -14 389 -14 q 665 14 589 -14 q 810 93 742 42 l 833 247 q 686 146 769 188 q 501 106 603 104 q 369 138 426 106 q 276 223 313 169 q 225 344 239 276 q 222 486 211 413 m 486 81 l 333 -150 q 378 -132 354 -139 q 418 -126 401 -125 q 449 -132 436 -126 q 469 -149 463 -137 q 474 -175 476 -160 q 460 -203 472 -190 q 431 -224 449 -217 q 394 -232 414 -232 q 357 -222 372 -232 q 325 -199 342 -212 l 272 -251 q 325 -292 299 -278 q 388 -306 351 -306 q 461 -290 425 -306 q 522 -245 497 -274 q 551 -178 547 -217 q 531 -104 557 -132 q 468 -74 504 -76 q 463 -74 465 -74 q 457 -74 460 -74 l 571 81 l 486 81 z "},"Ć":{"ha":924,"x_min":85,"x_max":942,"o":"m 222 486 q 273 634 235 565 q 368 756 311 703 q 494 838 425 808 q 640 868 564 868 q 803 830 733 868 q 917 724 872 792 l 942 879 q 815 961 883 935 q 653 986 746 988 q 456 947 549 986 q 288 838 363 907 q 163 679 213 769 q 99 486 114 589 q 106 299 85 389 q 178 138 126 208 q 309 27 229 68 q 490 -14 389 -14 q 665 14 589 -14 q 810 93 742 42 l 833 247 q 686 146 769 188 q 501 106 603 104 q 369 138 426 106 q 276 223 313 169 q 225 344 239 276 q 222 486 211 413 m 882 1275 l 788 1333 l 549 1114 l 607 1071 l 882 1275 z "},"Ĉ":{"ha":924,"x_min":85,"x_max":942,"o":"m 222 486 q 273 634 235 565 q 368 756 311 703 q 494 838 425 808 q 640 868 564 868 q 803 830 733 868 q 917 724 872 792 l 942 879 q 815 961 883 935 q 653 986 746 988 q 456 947 549 986 q 288 838 363 907 q 163 679 213 769 q 99 486 114 589 q 106 299 85 389 q 178 138 126 208 q 309 27 229 68 q 490 -14 389 -14 q 665 14 589 -14 q 810 93 742 42 l 833 247 q 686 146 769 188 q 501 106 603 104 q 369 138 426 106 q 276 223 313 169 q 225 344 239 276 q 222 486 211 413 m 697 1201 l 822 1071 l 897 1124 l 711 1319 l 464 1128 l 525 1071 l 697 1201 z "},"Ċ":{"ha":924,"x_min":85,"x_max":942,"o":"m 222 486 q 273 634 235 565 q 368 756 311 703 q 494 838 425 808 q 640 868 564 868 q 803 830 733 868 q 917 724 872 792 l 942 879 q 815 961 883 935 q 653 986 746 988 q 456 947 549 986 q 288 838 363 907 q 163 679 213 769 q 99 486 114 589 q 106 299 85 389 q 178 138 126 208 q 309 27 229 68 q 490 -14 389 -14 q 665 14 589 -14 q 810 93 742 42 l 833 247 q 686 146 769 188 q 501 106 603 104 q 369 138 426 106 q 276 223 313 169 q 225 344 239 276 q 222 486 211 413 m 610 1147 q 625 1095 607 1118 q 672 1071 643 1072 q 728 1093 701 1069 q 758 1144 756 1117 q 743 1197 761 1174 q 696 1222 725 1221 q 640 1199 667 1224 q 610 1147 613 1175 z "},"Č":{"ha":924,"x_min":85,"x_max":942,"o":"m 222 486 q 273 634 235 565 q 368 756 311 703 q 494 838 425 808 q 640 868 564 868 q 803 830 733 868 q 917 724 872 792 l 942 879 q 815 961 883 935 q 653 986 746 988 q 456 947 549 986 q 288 838 363 907 q 163 679 213 769 q 99 486 114 589 q 106 299 85 389 q 178 138 126 208 q 309 27 229 68 q 490 -14 389 -14 q 665 14 589 -14 q 810 93 742 42 l 833 247 q 686 146 769 188 q 501 106 603 104 q 369 138 426 106 q 276 223 313 169 q 225 344 239 276 q 222 486 211 413 m 688 1189 l 563 1319 l 488 1265 l 674 1069 l 921 1263 l 860 1319 l 688 1189 z "},"D":{"ha":917,"x_min":71,"x_max":925,"o":"m 235 972 l 71 0 l 185 0 l 353 972 l 235 972 m 358 0 q 558 37 465 0 q 724 139 651 74 q 845 293 797 204 q 910 486 893 382 q 904 674 925 586 q 831 829 883 763 q 699 934 779 896 q 515 972 619 972 l 299 972 l 278 854 l 503 854 q 643 826 583 854 q 740 747 703 797 q 792 629 778 696 q 793 486 806 563 q 716 296 775 379 q 568 165 657 213 q 369 118 479 118 l 153 118 l 132 0 l 358 0 z "},"Ď":{"ha":917,"x_min":71,"x_max":929,"o":"m 235 972 l 71 0 l 185 0 l 353 972 l 235 972 m 358 0 q 617 66 500 3 q 812 238 735 129 q 910 486 889 347 q 887 729 929 619 q 749 905 844 839 q 515 972 654 971 l 299 972 l 278 854 l 503 854 q 681 803 611 853 q 781 672 751 754 q 793 486 810 589 q 716 297 775 379 q 568 168 657 215 q 369 118 479 121 l 153 118 l 132 0 l 358 0 m 607 1189 l 481 1319 l 407 1265 l 593 1069 l 840 1263 l 778 1319 l 607 1189 z "},"E":{"ha":742,"x_min":71,"x_max":778,"o":"m 135 0 l 613 0 l 631 111 l 153 111 l 135 0 m 282 861 l 758 861 l 778 972 l 300 972 l 282 861 m 215 474 l 665 474 l 685 583 l 233 583 l 215 474 m 235 972 l 71 0 l 185 0 l 353 972 l 235 972 z "},"È":{"ha":742,"x_min":71,"x_max":778,"o":"m 135 0 l 613 0 l 631 111 l 153 111 l 135 0 m 282 863 l 758 861 l 778 972 l 300 972 l 282 863 m 215 474 l 665 472 l 685 583 l 233 583 l 215 474 m 235 972 l 71 0 l 185 0 l 353 972 l 235 972 m 382 1279 l 593 1069 l 658 1110 l 492 1333 l 382 1279 z "},"É":{"ha":742,"x_min":71,"x_max":778,"o":"m 135 0 l 613 0 l 631 111 l 153 111 l 135 0 m 282 863 l 758 861 l 778 972 l 300 972 l 282 863 m 215 474 l 665 472 l 685 583 l 233 583 l 215 474 m 235 972 l 71 0 l 185 0 l 353 972 l 235 972 m 735 1275 l 639 1333 l 400 1114 l 458 1071 l 735 1275 z "},"Ê":{"ha":742,"x_min":71,"x_max":778,"o":"m 135 0 l 613 0 l 631 111 l 153 111 l 135 0 m 282 863 l 758 861 l 778 972 l 300 972 l 282 863 m 215 474 l 665 472 l 685 583 l 233 583 l 215 474 m 235 972 l 71 0 l 185 0 l 353 972 l 235 972 m 563 1201 l 688 1071 l 763 1124 l 576 1319 l 329 1128 l 390 1071 l 563 1201 z "},"Ë":{"ha":742,"x_min":71,"x_max":778,"o":"m 135 0 l 613 0 l 631 111 l 153 111 l 135 0 m 282 863 l 758 861 l 778 972 l 300 972 l 282 863 m 215 474 l 665 472 l 685 583 l 233 583 l 215 474 m 235 972 l 71 0 l 185 0 l 353 972 l 235 972 m 614 1175 q 629 1123 611 1146 q 678 1099 647 1100 q 733 1121 706 1097 q 764 1172 761 1144 q 749 1225 767 1201 q 700 1250 731 1249 q 644 1227 672 1251 q 614 1175 617 1203 m 344 1175 q 360 1123 342 1146 q 408 1099 378 1100 q 464 1121 436 1097 q 494 1172 492 1144 q 478 1225 497 1201 q 431 1250 460 1249 q 374 1227 401 1251 q 344 1175 347 1203 z "},"Ē":{"ha":742,"x_min":71,"x_max":778,"o":"m 135 0 l 613 0 l 631 111 l 153 111 l 135 0 m 282 863 l 758 861 l 778 972 l 300 972 l 282 863 m 215 474 l 665 472 l 685 583 l 233 583 l 215 474 m 235 972 l 71 0 l 185 0 l 353 972 l 235 972 m 288 1071 l 761 1069 l 778 1174 l 304 1174 l 288 1071 z "},"Ĕ":{"ha":742,"x_min":71,"x_max":778,"o":"m 135 0 l 613 0 l 631 111 l 153 111 l 135 0 m 282 863 l 758 861 l 778 972 l 300 972 l 282 863 m 215 474 l 665 472 l 685 583 l 233 583 l 215 474 m 235 972 l 71 0 l 185 0 l 353 972 l 235 972 m 342 1264 q 356 1169 338 1214 q 417 1098 375 1125 q 526 1071 460 1071 q 644 1098 594 1071 q 725 1169 693 1125 q 769 1263 757 1213 l 671 1264 q 646 1217 663 1242 q 603 1177 629 1193 q 533 1161 576 1161 q 472 1177 493 1161 q 443 1217 450 1193 q 438 1264 436 1242 l 342 1264 z "},"Ė":{"ha":742,"x_min":71,"x_max":778,"o":"m 135 0 l 613 0 l 631 111 l 153 111 l 135 0 m 282 863 l 758 861 l 778 972 l 300 972 l 282 863 m 215 474 l 665 472 l 685 583 l 233 583 l 215 474 m 235 972 l 71 0 l 185 0 l 353 972 l 235 972 m 461 1147 q 476 1095 458 1118 q 524 1071 494 1072 q 581 1093 553 1069 q 611 1144 608 1117 q 595 1197 614 1174 q 547 1222 576 1221 q 491 1199 518 1224 q 461 1147 464 1175 z "},"Ę":{"ha":742,"x_min":71,"x_max":778,"o":"m 135 0 l 613 0 l 631 111 l 153 111 l 135 0 m 282 863 l 758 861 l 778 972 l 300 972 l 282 863 m 215 474 l 665 472 l 685 583 l 233 583 l 215 474 m 235 972 l 71 0 l 185 0 l 353 972 l 235 972 m 422 -181 q 391 -199 408 -190 q 350 -207 374 -208 q 308 -187 321 -204 q 299 -139 296 -169 q 328 -83 304 -108 q 384 -36 351 -57 q 449 0 417 -15 l 396 35 q 304 -17 350 13 q 226 -83 258 -46 q 185 -165 193 -119 q 215 -267 175 -229 q 331 -304 256 -306 q 403 -288 371 -304 q 457 -251 435 -272 l 422 -181 z "},"Ě":{"ha":742,"x_min":71,"x_max":778,"o":"m 135 0 l 613 0 l 631 111 l 153 111 l 135 0 m 282 863 l 758 861 l 778 972 l 300 972 l 282 863 m 215 474 l 665 472 l 685 583 l 233 583 l 215 474 m 235 972 l 71 0 l 185 0 l 353 972 l 235 972 m 539 1189 l 414 1319 l 339 1265 l 525 1069 l 772 1263 l 711 1319 l 539 1189 z "},"F":{"ha":674,"x_min":71,"x_max":724,"o":"m 282 861 l 706 861 l 724 972 l 300 972 l 282 861 m 215 474 l 625 472 l 644 583 l 233 583 l 215 474 m 235 972 l 71 0 l 185 0 l 353 972 l 235 972 z "},"G":{"ha":1044,"x_min":85,"x_max":1031,"o":"m 572 382 l 882 382 q 824 278 858 328 q 742 189 789 228 q 638 128 696 150 q 508 106 579 106 q 372 137 431 106 q 276 222 313 168 q 225 343 239 275 q 222 486 211 411 q 273 635 235 565 q 369 756 311 704 q 497 838 426 808 q 647 868 568 868 q 819 826 747 868 q 929 704 892 783 l 1021 778 q 876 934 969 881 q 660 986 783 988 q 458 947 553 986 q 288 840 363 908 q 164 681 213 772 q 99 486 115 590 q 105 297 85 388 q 178 137 125 207 q 311 26 231 67 q 497 -14 392 -14 q 699 28 608 -14 q 857 141 789 69 q 969 303 925 213 q 1031 493 1013 394 l 592 493 l 572 382 z "},"Ĝ":{"ha":1044,"x_min":85,"x_max":1031,"o":"m 572 382 l 889 382 q 828 278 864 328 q 745 189 793 228 q 638 128 697 150 q 508 106 579 106 q 372 137 431 106 q 276 222 313 168 q 225 343 239 275 q 222 486 211 411 q 273 635 235 565 q 369 756 311 704 q 497 838 426 808 q 647 868 568 868 q 819 826 747 868 q 929 704 892 783 l 1021 778 q 876 934 969 881 q 660 986 783 988 q 458 947 553 986 q 288 840 363 908 q 164 681 213 772 q 99 486 115 590 q 105 297 85 388 q 178 137 125 207 q 311 26 231 67 q 497 -14 392 -14 q 699 28 608 -14 q 857 141 789 69 q 969 303 925 213 q 1031 493 1013 394 l 592 493 l 572 382 m 704 1201 l 829 1071 l 904 1124 l 718 1319 l 471 1128 l 532 1071 l 704 1201 z "},"Ğ":{"ha":1044,"x_min":85,"x_max":1031,"o":"m 572 382 l 889 382 q 828 278 864 328 q 745 189 793 228 q 638 128 697 150 q 508 106 579 106 q 372 137 431 106 q 276 222 313 168 q 225 343 239 275 q 222 486 211 411 q 273 635 235 565 q 369 756 311 704 q 497 838 426 808 q 647 868 568 868 q 819 826 747 868 q 929 704 892 783 l 1021 778 q 876 934 969 881 q 660 986 783 988 q 458 947 553 986 q 288 840 363 908 q 164 681 213 772 q 99 486 115 590 q 105 297 85 388 q 178 137 125 207 q 311 26 231 67 q 497 -14 392 -14 q 699 28 608 -14 q 857 141 789 69 q 969 303 925 213 q 1031 493 1013 394 l 592 493 l 572 382 m 497 1264 q 512 1169 493 1214 q 572 1098 531 1125 q 681 1071 614 1071 q 798 1098 749 1071 q 880 1169 847 1125 q 925 1263 913 1213 l 826 1264 q 802 1217 818 1242 q 759 1177 786 1193 q 689 1161 732 1161 q 627 1177 649 1161 q 599 1217 606 1193 q 593 1264 592 1242 l 497 1264 z "},"Ġ":{"ha":1044,"x_min":85,"x_max":1031,"o":"m 572 382 l 889 382 q 828 278 864 328 q 745 189 793 228 q 638 128 697 150 q 508 106 579 106 q 372 137 431 106 q 276 222 313 168 q 225 343 239 275 q 222 486 211 411 q 273 635 235 565 q 369 756 311 704 q 497 838 426 808 q 647 868 568 868 q 819 826 747 868 q 929 704 892 783 l 1021 778 q 876 934 969 881 q 660 986 783 988 q 458 947 553 986 q 288 840 363 908 q 164 681 213 772 q 99 486 115 590 q 105 297 85 388 q 178 137 125 207 q 311 26 231 67 q 497 -14 392 -14 q 699 28 608 -14 q 857 141 789 69 q 969 303 925 213 q 1031 493 1013 394 l 592 493 l 572 382 m 615 1147 q 631 1095 613 1118 q 679 1071 650 1072 q 735 1093 708 1069 q 765 1144 763 1117 q 750 1197 768 1174 q 701 1222 732 1221 q 646 1199 674 1224 q 615 1147 618 1175 z "},"Ģ":{"ha":1044,"x_min":85,"x_max":1031,"o":"m 572 382 l 889 382 q 828 278 864 328 q 745 189 793 228 q 638 128 697 150 q 508 106 579 106 q 372 137 431 106 q 276 222 313 168 q 225 343 239 275 q 222 486 211 411 q 273 635 235 565 q 369 756 311 704 q 497 838 426 808 q 647 868 568 868 q 819 826 747 868 q 929 704 892 783 l 1021 778 q 876 934 969 881 q 660 986 783 988 q 458 947 553 986 q 288 840 363 908 q 164 681 213 772 q 99 486 115 590 q 105 297 85 388 q 178 137 125 207 q 311 26 231 67 q 497 -14 392 -14 q 699 28 608 -14 q 857 141 789 69 q 969 303 925 213 q 1031 493 1013 394 l 592 493 l 572 382 m 481 -99 l 303 -456 l 379 -485 l 588 -142 l 481 -99 z "},"H":{"ha":964,"x_min":71,"x_max":988,"o":"m 215 474 l 864 474 l 882 583 l 233 583 l 215 474 m 868 972 l 704 0 l 818 0 l 988 972 l 868 972 m 235 972 l 71 0 l 185 0 l 353 972 l 235 972 z "},"Ĥ":{"ha":964,"x_min":71,"x_max":988,"o":"m 215 474 l 864 472 l 882 583 l 233 583 l 215 474 m 868 972 l 704 0 l 818 0 l 988 972 l 868 972 m 235 972 l 71 0 l 185 0 l 353 972 l 235 972 m 654 1201 l 779 1071 l 854 1124 l 668 1319 l 421 1128 l 482 1071 l 654 1201 z "},"I":{"ha":331,"x_min":71,"x_max":353,"o":"m 235 972 l 71 0 l 185 0 l 353 972 l 235 972 z "},"Ì":{"ha":331,"x_min":71,"x_max":447,"o":"m 235 972 l 71 0 l 185 0 l 353 972 l 235 972 m 169 1279 l 381 1069 l 447 1110 l 279 1333 l 169 1279 z "},"Í":{"ha":331,"x_min":71,"x_max":521,"o":"m 235 972 l 71 0 l 185 0 l 353 972 l 235 972 m 521 1275 l 428 1333 l 189 1114 l 244 1071 l 521 1275 z "},"Î":{"ha":331,"x_min":71,"x_max":536,"o":"m 235 972 l 71 0 l 185 0 l 353 972 l 235 972 m 336 1201 l 461 1071 l 536 1124 l 350 1319 l 103 1128 l 164 1071 l 336 1201 z "},"Ï":{"ha":331,"x_min":71,"x_max":536,"o":"m 235 972 l 71 0 l 185 0 l 353 972 l 235 972 m 383 1147 q 398 1096 381 1119 q 446 1071 415 1072 q 503 1093 475 1069 q 533 1144 531 1117 q 517 1197 536 1174 q 469 1222 499 1221 q 413 1199 440 1224 q 383 1147 386 1175 m 114 1147 q 128 1096 111 1119 q 176 1071 146 1072 q 233 1093 206 1069 q 264 1144 261 1117 q 248 1197 267 1174 q 199 1222 229 1221 q 144 1199 171 1224 q 114 1147 117 1175 z "},"Ĩ":{"ha":331,"x_min":71,"x_max":553,"o":"m 235 972 l 71 0 l 185 0 l 353 972 l 235 972 m 96 1124 l 163 1071 q 189 1115 171 1090 q 243 1140 207 1139 q 294 1126 272 1142 q 340 1094 317 1110 q 396 1076 364 1078 q 460 1090 431 1075 q 513 1128 489 1106 q 553 1175 538 1151 l 497 1236 q 456 1191 478 1210 q 410 1171 433 1172 q 356 1185 378 1169 q 312 1218 335 1201 q 253 1235 289 1235 q 189 1220 219 1236 q 134 1178 158 1204 q 96 1124 110 1153 z "},"Ī":{"ha":331,"x_min":71,"x_max":567,"o":"m 235 972 l 71 0 l 185 0 l 353 972 l 235 972 m 75 1071 l 549 1069 l 567 1174 l 93 1174 l 75 1071 z "},"Ĭ":{"ha":331,"x_min":71,"x_max":558,"o":"m 235 972 l 71 0 l 185 0 l 353 972 l 235 972 m 131 1264 q 145 1169 126 1214 q 206 1098 164 1125 q 315 1071 249 1071 q 433 1098 383 1071 q 514 1169 482 1125 q 558 1263 546 1213 l 460 1264 q 435 1217 451 1242 q 392 1177 418 1193 q 322 1161 365 1161 q 261 1177 282 1161 q 233 1217 240 1193 q 226 1264 225 1242 l 131 1264 z "},"Į":{"ha":331,"x_min":-83,"x_max":353,"o":"m 235 972 l 71 0 l 185 0 l 353 972 l 235 972 m 160 -181 q 127 -199 144 -190 q 86 -207 110 -208 q 46 -187 58 -204 q 36 -139 33 -169 q 65 -83 42 -108 q 122 -36 89 -57 q 186 0 154 -15 l 133 35 q 42 -17 88 13 q -37 -83 -4 -46 q -78 -165 -69 -119 q -67 -239 -83 -207 q -17 -287 -51 -271 q 68 -304 18 -304 q 140 -288 108 -304 q 194 -251 172 -272 l 160 -181 z "},"İ":{"ha":331,"x_min":71,"x_max":400,"o":"m 235 972 l 71 0 l 185 0 l 353 972 l 235 972 m 247 1147 q 263 1095 244 1118 q 311 1071 282 1072 q 367 1093 340 1069 q 397 1144 394 1117 q 382 1197 400 1174 q 335 1222 364 1221 q 278 1199 306 1224 q 247 1147 250 1175 z "},"J":{"ha":324,"x_min":-228,"x_max":346,"o":"m -156 -144 l -228 -235 q -166 -283 -206 -261 q -76 -304 -126 -304 q 40 -277 -10 -304 q 123 -200 90 -250 q 167 -83 156 -150 l 346 972 l 236 972 l 57 -69 q 16 -158 50 -125 q -58 -194 -18 -192 q -116 -181 -92 -196 q -156 -144 -140 -167 z "},"Ĵ":{"ha":324,"x_min":-228,"x_max":533,"o":"m -156 -144 l -228 -235 q -166 -283 -206 -261 q -76 -304 -126 -304 q 40 -277 -10 -304 q 123 -200 90 -250 q 167 -83 156 -150 l 346 972 l 236 972 l 57 -69 q 15 -158 49 -125 q -58 -194 -18 -192 q -116 -181 -92 -196 q -156 -144 -140 -167 m 333 1201 l 458 1071 l 533 1124 l 347 1319 l 100 1128 l 161 1071 l 333 1201 z "},"K":{"ha":761,"x_min":71,"x_max":867,"o":"m 235 972 l 71 0 l 185 0 l 353 972 l 235 972 m 718 972 l 238 518 l 578 0 l 715 0 l 376 514 l 867 972 l 718 972 z "},"Ķ":{"ha":761,"x_min":71,"x_max":867,"o":"m 235 972 l 71 0 l 185 0 l 353 972 l 235 972 m 718 972 l 238 518 l 578 0 l 715 0 l 376 514 l 867 972 l 718 972 m 382 -85 l 204 -442 l 281 -471 l 489 -128 l 382 -85 z "},"L":{"ha":607,"x_min":69,"x_max":576,"o":"m 236 972 l 69 0 l 557 0 l 576 111 l 206 111 l 353 972 l 236 972 z "},"Ĺ":{"ha":607,"x_min":69,"x_max":707,"o":"m 236 972 l 69 0 l 557 0 l 576 111 l 206 111 l 353 972 l 236 972 m 707 1275 l 613 1333 l 374 1114 l 431 1071 l 707 1275 z "},"Ļ":{"ha":607,"x_min":69,"x_max":576,"o":"m 236 972 l 69 0 l 557 0 l 576 111 l 206 111 l 353 972 l 236 972 m 301 -85 l 122 -442 l 200 -471 l 407 -128 l 301 -85 z "},"Ľ":{"ha":607,"x_min":69,"x_max":676,"o":"m 236 972 l 69 0 l 557 0 l 576 111 l 206 111 l 353 972 l 236 972 m 571 985 l 392 628 l 468 599 l 676 942 l 571 985 z "},"M":{"ha":1092,"x_min":14,"x_max":1064,"o":"m 315 657 l 525 89 l 926 651 l 885 0 l 1000 0 l 1064 1026 l 561 319 l 306 1022 l 14 0 l 132 0 l 315 657 z "},"N":{"ha":1044,"x_min":68,"x_max":1067,"o":"m 950 972 l 825 249 l 243 1019 l 68 0 l 186 0 l 311 725 l 892 -47 l 1067 972 l 950 972 z "},"Ñ":{"ha":1044,"x_min":68,"x_max":1067,"o":"m 950 972 l 825 249 l 243 1019 l 68 0 l 186 0 l 311 725 l 892 -47 l 1067 972 l 950 972 m 439 1103 l 506 1050 q 532 1094 514 1069 q 586 1119 550 1118 q 638 1105 615 1121 q 683 1073 660 1089 q 738 1056 706 1057 q 802 1069 772 1054 q 856 1108 832 1085 q 896 1154 881 1131 l 840 1215 q 799 1170 821 1189 q 753 1150 776 1151 q 699 1165 721 1149 q 655 1197 678 1181 q 596 1214 632 1214 q 532 1199 563 1215 q 477 1158 501 1183 q 439 1103 453 1132 z "},"Ń":{"ha":1044,"x_min":68,"x_max":1067,"o":"m 950 972 l 825 249 l 243 1019 l 68 0 l 186 0 l 311 725 l 892 -47 l 1067 972 l 950 972 m 933 1254 l 838 1313 l 599 1093 l 657 1050 l 933 1254 z "},"Ņ":{"ha":1044,"x_min":68,"x_max":1067,"o":"m 489 -50 l 311 -407 l 388 -436 l 596 -93 l 489 -50 m 950 972 l 825 249 l 243 1019 l 68 0 l 186 0 l 311 725 l 892 -47 l 1067 972 l 950 972 z "},"Ň":{"ha":1044,"x_min":68,"x_max":1067,"o":"m 707 1224 l 582 1354 l 507 1300 l 693 1104 l 940 1297 l 879 1354 l 707 1224 m 950 972 l 825 249 l 243 1019 l 68 0 l 186 0 l 311 725 l 892 -47 l 1067 972 l 950 972 z "},"O":{"ha":1065,"x_min":85,"x_max":1072,"o":"m 222 486 q 272 633 235 564 q 367 756 310 703 q 495 838 424 808 q 647 868 567 868 q 785 836 726 868 q 882 750 844 804 q 933 628 919 696 q 935 486 946 560 q 884 340 922 408 q 789 218 846 271 q 660 135 732 165 q 508 106 589 106 q 370 138 429 106 q 274 223 311 169 q 224 344 238 276 q 222 486 211 413 m 99 486 q 105 299 85 389 q 178 140 125 210 q 311 28 231 69 q 497 -14 392 -14 q 699 26 604 -14 q 868 134 793 65 q 992 294 943 203 q 1058 486 1042 385 q 1051 674 1072 585 q 978 834 1031 764 q 844 945 925 904 q 658 986 764 986 q 458 947 553 986 q 288 839 363 908 q 163 679 213 769 q 99 486 114 589 z "},"Ò":{"ha":1065,"x_min":85,"x_max":1072,"o":"m 222 486 q 272 633 235 564 q 367 756 310 703 q 495 838 424 808 q 647 868 567 868 q 785 836 726 868 q 882 750 844 804 q 933 628 919 696 q 935 486 946 560 q 884 340 922 408 q 789 218 846 271 q 660 135 732 165 q 508 106 589 106 q 370 138 429 106 q 274 223 311 169 q 224 344 238 276 q 222 486 211 413 m 99 486 q 105 299 85 389 q 178 140 125 210 q 311 28 231 69 q 497 -14 392 -14 q 699 26 604 -14 q 868 134 793 65 q 992 294 943 203 q 1058 486 1042 385 q 1051 674 1072 585 q 978 834 1031 764 q 844 945 925 904 q 658 986 764 986 q 458 947 553 986 q 288 839 363 908 q 163 679 213 769 q 99 486 114 589 m 550 1279 l 761 1069 l 828 1110 l 660 1333 l 550 1279 z "},"Ó":{"ha":1065,"x_min":85,"x_max":1072,"o":"m 222 486 q 272 633 235 564 q 367 756 310 703 q 495 838 424 808 q 647 868 567 868 q 785 836 726 868 q 882 750 844 804 q 933 628 919 696 q 935 486 946 560 q 884 340 922 408 q 789 218 846 271 q 660 135 732 165 q 508 106 589 106 q 370 138 429 106 q 274 223 311 169 q 224 344 238 276 q 222 486 211 413 m 99 486 q 105 299 85 389 q 178 140 125 210 q 311 28 231 69 q 497 -14 392 -14 q 699 26 604 -14 q 868 134 793 65 q 992 294 943 203 q 1058 486 1042 385 q 1051 674 1072 585 q 978 834 1031 764 q 844 945 925 904 q 658 986 764 986 q 458 947 553 986 q 288 839 363 908 q 163 679 213 769 q 99 486 114 589 m 876 1275 l 781 1333 l 542 1114 l 600 1071 l 876 1275 z "},"Ô":{"ha":1065,"x_min":85,"x_max":1072,"o":"m 222 486 q 272 633 235 564 q 367 756 310 703 q 495 838 424 808 q 647 868 567 868 q 785 836 726 868 q 882 750 844 804 q 933 628 919 696 q 935 486 946 560 q 884 340 922 408 q 789 218 846 271 q 660 135 732 165 q 508 106 589 106 q 370 138 429 106 q 274 223 311 169 q 224 344 238 276 q 222 486 211 413 m 99 486 q 105 299 85 389 q 178 140 125 210 q 311 28 231 69 q 497 -14 392 -14 q 699 26 604 -14 q 868 134 793 65 q 992 294 943 203 q 1058 486 1042 385 q 1051 674 1072 585 q 978 834 1031 764 q 844 945 925 904 q 660 986 764 986 q 458 947 553 986 q 288 839 364 908 q 163 679 213 769 q 99 486 114 589 m 704 1201 l 829 1071 l 904 1124 l 718 1319 l 471 1128 l 532 1071 l 704 1201 z "},"Õ":{"ha":1065,"x_min":85,"x_max":1072,"o":"m 222 486 q 272 633 235 564 q 367 756 310 703 q 495 838 424 808 q 647 868 567 868 q 785 836 726 868 q 882 750 844 804 q 933 628 919 696 q 935 486 946 560 q 884 340 922 408 q 789 218 846 271 q 660 135 732 165 q 508 106 589 106 q 370 138 429 106 q 274 223 311 169 q 224 344 238 276 q 222 486 211 413 m 99 486 q 105 299 85 389 q 178 140 125 210 q 311 28 231 69 q 497 -14 392 -14 q 699 26 604 -14 q 868 134 793 65 q 992 294 943 203 q 1058 486 1042 385 q 1051 674 1072 585 q 978 834 1031 764 q 844 945 925 904 q 660 986 764 986 q 458 947 553 986 q 288 839 364 908 q 163 679 213 769 q 99 486 114 589 m 463 1124 l 529 1071 q 556 1115 538 1090 q 610 1140 574 1139 q 661 1126 639 1142 q 707 1094 683 1110 q 763 1076 731 1078 q 826 1090 797 1075 q 880 1128 856 1106 q 919 1175 904 1151 l 864 1236 q 822 1191 844 1210 q 776 1171 800 1172 q 723 1185 744 1169 q 678 1218 701 1201 q 619 1235 656 1235 q 558 1219 594 1235 q 492 1179 521 1204 q 463 1124 464 1154 z "},"Ö":{"ha":1065,"x_min":85,"x_max":1072,"o":"m 222 486 q 272 633 235 564 q 367 756 310 703 q 495 838 424 808 q 647 868 567 868 q 785 836 726 868 q 882 750 844 804 q 933 628 919 696 q 935 486 946 560 q 884 340 922 408 q 789 218 846 271 q 660 135 732 165 q 508 106 589 106 q 370 138 429 106 q 274 223 311 169 q 224 344 238 276 q 222 486 211 413 m 99 486 q 105 299 85 389 q 178 140 125 210 q 311 28 231 69 q 497 -14 392 -14 q 699 26 604 -14 q 868 134 793 65 q 992 294 943 203 q 1058 486 1042 385 q 1051 674 1072 585 q 978 834 1031 764 q 844 945 925 904 q 658 986 764 986 q 458 947 553 986 q 288 839 363 908 q 163 679 213 769 q 99 486 114 589 m 750 1147 q 766 1095 747 1118 q 814 1071 785 1072 q 870 1093 843 1069 q 900 1144 897 1117 q 885 1197 903 1174 q 836 1222 867 1221 q 781 1199 808 1224 q 750 1147 753 1175 m 481 1147 q 497 1095 478 1118 q 544 1071 515 1072 q 601 1093 574 1069 q 631 1144 628 1117 q 615 1197 633 1174 q 567 1222 597 1221 q 511 1199 539 1224 q 481 1147 483 1175 z "},"Ō":{"ha":1065,"x_min":85,"x_max":1072,"o":"m 222 486 q 272 633 235 564 q 367 756 310 703 q 495 838 424 808 q 647 868 567 868 q 785 836 726 868 q 882 750 844 804 q 933 628 919 696 q 935 486 946 560 q 884 340 922 408 q 789 218 846 271 q 660 135 732 165 q 508 106 589 106 q 370 138 429 106 q 274 223 311 169 q 224 344 238 276 q 222 486 211 413 m 99 486 q 105 299 85 389 q 178 140 125 210 q 311 28 231 69 q 497 -14 392 -14 q 699 26 604 -14 q 868 134 793 65 q 992 294 943 203 q 1058 486 1042 385 q 1051 674 1072 585 q 978 834 1031 764 q 844 945 925 904 q 660 986 764 986 q 458 947 553 986 q 288 839 364 908 q 163 679 213 769 q 99 486 114 589 m 442 1071 l 915 1069 l 933 1174 l 460 1174 l 442 1071 z "},"Ŏ":{"ha":1065,"x_min":85,"x_max":1072,"o":"m 222 486 q 272 633 235 564 q 367 756 310 703 q 495 838 424 808 q 647 868 567 868 q 785 836 726 868 q 882 750 844 804 q 933 628 919 696 q 935 486 946 560 q 884 340 922 408 q 789 218 846 271 q 660 135 732 165 q 508 106 589 106 q 370 138 429 106 q 274 223 311 169 q 224 344 238 276 q 222 486 211 413 m 99 486 q 105 299 85 389 q 178 140 125 210 q 311 28 231 69 q 497 -14 392 -14 q 699 26 604 -14 q 868 134 793 65 q 992 294 943 203 q 1058 486 1042 385 q 1051 674 1072 585 q 978 834 1031 764 q 844 945 925 904 q 660 986 764 986 q 458 947 553 986 q 288 839 364 908 q 163 679 213 769 q 99 486 114 589 m 497 1264 q 512 1169 493 1214 q 572 1098 531 1125 q 681 1071 614 1071 q 798 1098 749 1071 q 880 1169 847 1125 q 925 1263 913 1213 l 826 1264 q 802 1217 818 1242 q 759 1177 786 1193 q 689 1161 732 1161 q 627 1177 649 1161 q 599 1217 606 1193 q 593 1264 592 1242 l 497 1264 z "},"Ő":{"ha":1065,"x_min":85,"x_max":1072,"o":"m 558 1071 l 779 1336 l 661 1367 l 482 1097 l 558 1071 m 786 1071 l 1010 1336 l 889 1367 l 711 1097 l 786 1071 m 222 486 q 272 633 235 564 q 367 756 310 703 q 495 838 424 808 q 647 868 567 868 q 785 836 726 868 q 882 750 844 804 q 933 628 919 696 q 935 486 946 560 q 884 340 922 408 q 789 218 846 271 q 660 135 732 165 q 508 106 589 106 q 370 138 429 106 q 274 223 311 169 q 224 344 238 276 q 222 486 211 413 m 99 486 q 105 299 85 389 q 178 140 125 210 q 311 28 231 69 q 497 -14 392 -14 q 699 26 604 -14 q 868 134 793 65 q 992 294 943 203 q 1058 486 1042 385 q 1051 674 1072 585 q 978 834 1031 764 q 844 945 925 904 q 658 986 764 986 q 458 947 553 986 q 288 839 363 908 q 163 679 213 769 q 99 486 114 589 z "},"P":{"ha":739,"x_min":71,"x_max":779,"o":"m 235 972 l 71 0 l 185 0 l 353 972 l 235 972 m 279 861 l 478 861 q 578 840 536 861 q 639 778 619 818 q 649 681 658 738 q 604 583 639 624 q 519 522 569 543 q 408 500 468 501 l 218 500 l 199 389 l 397 389 q 567 425 489 389 q 699 527 646 461 q 765 681 751 593 q 745 833 779 767 q 644 935 711 899 q 489 972 578 972 l 299 972 l 279 861 z "},"Q":{"ha":1065,"x_min":85,"x_max":1072,"o":"m 222 486 q 272 633 235 564 q 367 756 310 703 q 495 838 424 808 q 647 868 567 868 q 785 836 726 868 q 882 750 844 804 q 933 628 919 696 q 935 486 946 560 q 884 340 922 408 q 789 218 846 271 q 660 135 732 165 q 508 106 589 106 q 370 138 429 106 q 274 223 311 169 q 224 344 238 276 q 222 486 211 413 m 99 486 q 105 299 85 389 q 178 140 125 210 q 311 28 231 69 q 497 -14 392 -14 q 699 26 604 -14 q 868 134 793 65 q 992 294 943 203 q 1058 486 1042 385 q 1051 674 1072 585 q 978 834 1031 764 q 844 945 925 904 q 660 986 764 986 q 458 947 553 986 q 288 839 364 908 q 163 679 213 769 q 99 486 114 589 m 547 417 l 881 0 l 1024 0 l 690 417 l 547 417 z "},"R":{"ha":754,"x_min":71,"x_max":779,"o":"m 321 479 l 565 0 l 703 0 l 447 479 l 321 479 m 235 972 l 71 0 l 185 0 l 353 972 l 235 972 m 281 868 l 479 868 q 578 844 538 868 q 639 779 619 821 q 649 681 658 738 q 604 581 639 624 q 519 516 569 539 q 407 493 468 493 l 217 493 l 199 389 l 397 389 q 567 425 489 389 q 699 527 646 461 q 765 681 751 593 q 745 833 779 767 q 644 935 711 899 q 489 972 578 972 l 299 972 l 281 868 z "},"Ŕ":{"ha":754,"x_min":71,"x_max":779,"o":"m 321 479 l 565 0 l 703 0 l 447 479 l 321 479 m 235 972 l 71 0 l 185 0 l 353 972 l 235 972 m 281 868 l 479 868 q 578 843 538 867 q 639 778 619 819 q 649 681 658 738 q 604 582 639 624 q 519 518 569 540 q 407 493 468 496 l 217 493 l 199 389 l 397 389 q 567 427 489 392 q 699 528 646 463 q 765 681 751 593 q 745 832 779 767 q 644 934 711 897 q 489 972 578 971 l 299 972 l 281 868 m 728 1275 l 632 1333 l 393 1114 l 451 1071 l 728 1275 z "},"Ŗ":{"ha":754,"x_min":71,"x_max":779,"o":"m 321 479 l 565 0 l 703 0 l 447 479 l 321 479 m 235 972 l 71 0 l 185 0 l 353 972 l 235 972 m 281 868 l 479 868 q 578 843 538 867 q 639 778 619 819 q 649 681 658 738 q 604 582 639 624 q 519 518 569 540 q 407 493 468 496 l 217 493 l 199 389 l 397 389 q 567 427 489 392 q 699 528 646 463 q 765 681 751 593 q 745 832 779 767 q 644 934 711 897 q 489 972 578 971 l 299 972 l 281 868 m 375 -85 l 197 -442 l 274 -471 l 482 -128 l 375 -85 z "},"Ř":{"ha":754,"x_min":71,"x_max":779,"o":"m 321 479 l 565 0 l 703 0 l 447 479 l 321 479 m 235 972 l 71 0 l 185 0 l 353 972 l 235 972 m 281 868 l 479 868 q 578 843 538 867 q 639 778 619 819 q 649 681 658 738 q 604 582 639 624 q 519 518 569 540 q 407 493 468 496 l 217 493 l 199 389 l 397 389 q 567 427 489 392 q 699 528 646 463 q 765 681 751 593 q 745 832 779 767 q 644 934 711 897 q 489 972 578 971 l 299 972 l 281 868 m 506 1189 l 381 1319 l 306 1265 l 492 1069 l 739 1263 l 678 1319 l 506 1189 z "},"Ȓ":{"ha":754,"x_min":71,"x_max":779,"o":"m 321 479 l 565 0 l 703 0 l 447 479 l 321 479 m 235 972 l 71 0 l 185 0 l 353 972 l 235 972 m 281 868 l 479 868 q 578 843 538 867 q 639 778 619 819 q 649 681 658 738 q 604 582 639 624 q 519 518 569 540 q 407 493 468 496 l 217 493 l 199 389 l 397 389 q 567 427 489 392 q 699 528 646 463 q 765 681 751 593 q 745 832 779 767 q 644 934 711 897 q 489 972 578 971 l 299 972 l 281 868 m 301 1069 q 350 1164 317 1119 q 434 1237 383 1208 q 553 1264 485 1265 q 660 1236 619 1264 q 717 1164 700 1208 q 726 1069 733 1119 l 639 1069 q 632 1117 640 1093 q 601 1158 624 1142 q 538 1174 579 1174 q 469 1157 496 1174 q 428 1117 443 1140 q 403 1071 413 1093 l 301 1069 z "},"S":{"ha":739,"x_min":53,"x_max":767,"o":"m 147 294 l 53 231 q 122 110 78 167 q 230 20 167 54 q 372 -14 293 -14 q 534 27 460 -14 q 653 138 608 68 q 699 292 699 207 q 666 419 699 369 q 585 501 633 469 q 488 551 536 532 q 408 589 442 569 q 350 631 374 608 q 315 679 326 653 q 303 736 303 706 q 321 806 303 775 q 374 856 339 838 q 463 875 410 875 q 563 853 524 875 q 626 796 601 831 q 665 725 650 761 l 767 779 q 708 881 746 833 q 613 957 669 928 q 476 986 556 986 q 321 950 388 986 q 217 853 254 914 q 181 721 181 793 q 202 624 181 665 q 257 553 224 582 q 327 503 290 524 q 396 468 364 482 q 487 423 446 446 q 553 367 528 400 q 578 278 578 333 q 553 192 578 233 q 484 124 529 150 q 376 97 439 97 q 276 122 318 97 q 204 192 235 147 q 147 294 174 236 z "},"Ś":{"ha":739,"x_min":60,"x_max":799,"o":"m 165 314 l 60 256 q 118 120 79 181 q 217 24 157 60 q 356 -12 276 -12 q 516 22 446 -12 q 631 120 586 57 q 688 264 676 183 q 670 397 697 342 q 595 489 643 451 q 493 550 547 526 q 422 583 457 565 q 358 622 386 600 q 317 671 331 643 q 310 735 303 699 q 343 808 317 776 q 408 856 369 839 q 492 874 447 874 q 574 850 542 874 q 626 790 606 826 q 660 714 646 754 l 763 776 q 713 878 747 831 q 626 956 679 926 q 501 986 574 986 q 359 956 426 986 q 246 871 292 925 q 189 744 200 817 q 207 618 179 671 q 284 529 235 565 q 385 469 333 493 q 480 422 435 449 q 551 354 525 394 q 565 254 576 314 q 531 173 557 208 q 465 118 506 138 q 372 99 425 99 q 293 116 326 99 q 236 163 260 133 q 195 232 213 193 q 165 314 178 271 m 799 1275 l 704 1333 l 465 1114 l 522 1071 l 799 1275 z "},"Ŝ":{"ha":739,"x_min":60,"x_max":763,"o":"m 165 314 l 60 256 q 118 120 79 181 q 217 24 157 60 q 356 -12 276 -12 q 516 22 446 -12 q 631 120 586 57 q 686 264 675 183 q 670 397 697 342 q 595 489 643 451 q 493 550 547 526 q 422 583 457 565 q 358 622 386 600 q 317 671 331 643 q 310 735 303 699 q 343 808 317 776 q 408 856 369 839 q 492 874 447 874 q 574 850 542 874 q 626 790 606 826 q 660 714 646 754 l 763 776 q 713 878 747 831 q 626 956 679 926 q 501 986 574 986 q 359 956 426 986 q 246 871 292 925 q 189 744 200 817 q 207 618 179 671 q 284 529 235 565 q 385 469 333 493 q 480 422 435 449 q 551 354 525 394 q 565 254 576 314 q 531 173 557 208 q 465 118 506 138 q 372 99 425 99 q 293 116 326 99 q 236 163 260 133 q 195 232 213 193 q 165 314 178 271 m 546 1201 l 672 1071 l 746 1124 l 560 1319 l 313 1128 l 374 1071 l 546 1201 z "},"Ş":{"ha":739,"x_min":60,"x_max":763,"o":"m 165 314 l 60 256 q 118 120 79 181 q 217 24 157 60 q 356 -12 276 -12 q 513 23 442 -12 q 630 121 583 58 q 688 264 676 183 q 670 397 697 342 q 595 489 643 451 q 493 550 547 526 q 422 583 457 565 q 358 621 386 600 q 317 669 331 642 q 310 735 303 697 q 340 808 317 776 q 398 856 363 839 q 478 874 433 874 q 563 850 528 874 q 622 791 599 826 q 660 715 646 756 l 763 776 q 710 882 743 835 q 625 958 676 929 q 501 986 574 986 q 354 954 421 986 q 244 867 288 922 q 189 738 200 811 q 207 608 179 660 q 283 524 235 557 q 385 469 332 492 q 480 422 435 449 q 551 354 525 394 q 565 254 576 314 q 531 173 557 208 q 465 118 506 138 q 372 99 425 99 q 293 116 326 99 q 236 163 260 133 q 195 232 213 193 q 165 314 178 271 m 379 81 l 225 -150 q 270 -132 246 -139 q 310 -126 294 -125 q 342 -132 328 -126 q 363 -149 356 -137 q 367 -175 369 -160 q 353 -203 365 -190 q 324 -224 342 -217 q 288 -232 307 -232 q 249 -222 264 -232 q 217 -199 233 -212 l 164 -251 q 217 -292 190 -278 q 279 -306 243 -306 q 353 -290 317 -306 q 414 -245 389 -274 q 443 -178 439 -217 q 422 -104 449 -132 q 360 -74 396 -76 q 355 -74 357 -74 q 350 -74 353 -74 l 463 81 l 379 81 z "},"Š":{"ha":739,"x_min":60,"x_max":769,"o":"m 165 314 l 60 256 q 118 120 79 181 q 217 24 157 60 q 356 -12 276 -12 q 516 22 446 -12 q 631 120 586 57 q 686 264 675 183 q 670 397 697 342 q 595 489 643 451 q 493 550 547 526 q 422 583 457 565 q 358 622 386 600 q 317 671 331 643 q 310 735 303 699 q 343 808 317 776 q 408 856 369 839 q 492 874 447 874 q 574 850 542 874 q 626 790 606 826 q 660 714 646 754 l 763 776 q 713 878 747 831 q 626 956 679 926 q 501 986 574 986 q 359 956 426 986 q 246 871 292 925 q 189 744 200 817 q 207 618 179 671 q 284 529 235 565 q 385 469 333 493 q 480 422 435 449 q 551 354 525 394 q 565 254 576 314 q 531 173 557 208 q 465 118 506 138 q 372 99 425 99 q 293 116 326 99 q 236 163 260 133 q 195 232 213 193 q 165 314 178 271 m 536 1189 l 411 1319 l 336 1265 l 522 1069 l 769 1263 l 708 1319 l 536 1189 z "},"Ș":{"ha":739,"x_min":60,"x_max":763,"o":"m 165 314 l 60 256 q 118 120 79 181 q 217 24 157 60 q 356 -12 276 -12 q 516 22 446 -12 q 631 120 586 57 q 688 264 676 183 q 670 397 697 342 q 595 489 643 451 q 493 550 547 526 q 422 583 457 565 q 358 622 386 600 q 317 671 331 643 q 310 735 303 699 q 343 808 317 776 q 408 856 369 839 q 492 874 447 874 q 574 850 542 874 q 626 790 606 826 q 660 714 646 754 l 763 776 q 713 878 747 831 q 626 956 679 926 q 501 986 574 986 q 359 956 426 986 q 246 871 292 925 q 189 744 200 817 q 207 618 179 671 q 284 529 235 565 q 385 469 333 493 q 480 422 435 449 q 551 354 525 394 q 565 254 576 314 q 531 173 557 208 q 465 118 506 138 q 372 99 425 99 q 293 116 326 99 q 236 163 260 133 q 195 232 213 193 q 165 314 178 271 m 340 -99 l 161 -456 l 238 -485 l 446 -142 l 340 -99 z "},"T":{"ha":626,"x_min":121,"x_max":743,"o":"m 121 861 l 365 861 l 217 0 l 333 0 l 482 861 l 724 861 l 743 972 l 142 972 l 121 861 z "},"Ţ":{"ha":626,"x_min":22,"x_max":743,"o":"m 236 13 l 83 -218 q 128 -200 104 -207 q 167 -194 151 -193 q 199 -200 185 -194 q 219 -217 213 -206 q 224 -243 226 -228 q 210 -272 222 -258 q 181 -292 199 -285 q 144 -300 164 -300 q 106 -290 121 -300 q 75 -267 92 -281 l 22 -319 q 74 -360 49 -346 q 138 -374 100 -374 q 211 -358 175 -374 q 272 -314 247 -343 q 301 -246 297 -285 q 281 -172 307 -200 q 217 -142 254 -144 q 213 -142 215 -142 q 207 -142 210 -142 l 321 13 l 236 13 m 121 861 l 365 861 l 217 0 l 333 0 l 482 861 l 724 861 l 743 972 l 142 972 l 121 861 z "},"Ť":{"ha":626,"x_min":121,"x_max":743,"o":"m 121 861 l 365 861 l 217 0 l 333 0 l 482 861 l 724 861 l 743 972 l 142 972 l 121 861 m 475 1189 l 349 1319 l 275 1265 l 461 1069 l 708 1263 l 647 1319 l 475 1189 z "},"Ț":{"ha":626,"x_min":86,"x_max":743,"o":"m 121 861 l 365 861 l 217 0 l 333 0 l 482 861 l 724 861 l 743 972 l 142 972 l 121 861 m 265 -83 l 86 -440 l 163 -469 l 371 -126 l 265 -83 z "},"U":{"ha":844,"x_min":104,"x_max":874,"o":"m 229 972 l 118 319 q 132 155 104 231 q 225 33 160 79 q 388 -12 290 -12 q 576 32 499 -12 q 700 152 654 76 q 761 319 746 228 l 874 972 l 757 972 l 644 319 q 605 207 635 257 q 524 128 575 157 q 397 99 472 99 q 292 129 331 99 q 239 210 253 160 q 233 319 225 261 l 346 972 l 229 972 z "},"Ù":{"ha":844,"x_min":106,"x_max":874,"o":"m 229 972 l 118 319 q 133 155 106 231 q 224 33 160 79 q 386 -12 289 -12 q 565 33 486 -12 q 694 153 643 78 q 761 319 746 228 l 874 972 l 757 972 l 644 319 q 601 208 633 258 q 517 128 568 157 q 397 99 465 99 q 292 131 331 100 q 239 211 253 161 q 233 319 225 261 l 346 972 l 229 972 m 426 1279 l 638 1069 l 703 1110 l 536 1333 l 426 1279 z "},"Ú":{"ha":844,"x_min":106,"x_max":874,"o":"m 229 972 l 118 319 q 133 155 106 231 q 224 33 160 79 q 386 -12 289 -12 q 565 33 486 -12 q 694 153 643 78 q 761 319 746 228 l 874 972 l 757 972 l 644 319 q 601 208 633 258 q 517 128 568 157 q 397 99 465 99 q 292 131 331 100 q 239 211 253 161 q 233 319 225 261 l 346 972 l 229 972 m 779 1275 l 683 1333 l 444 1114 l 503 1071 l 779 1275 z "},"Û":{"ha":844,"x_min":106,"x_max":874,"o":"m 229 972 l 118 319 q 133 155 106 231 q 224 33 160 79 q 386 -12 289 -12 q 565 33 486 -12 q 694 153 643 78 q 761 319 746 228 l 874 972 l 757 972 l 644 319 q 601 208 633 258 q 517 128 568 157 q 397 99 465 99 q 292 131 331 100 q 239 211 253 161 q 233 319 225 261 l 346 972 l 229 972 m 593 1201 l 718 1071 l 793 1124 l 607 1319 l 360 1128 l 421 1071 l 593 1201 z "},"Ü":{"ha":844,"x_min":106,"x_max":874,"o":"m 229 972 l 118 319 q 133 155 106 231 q 224 33 160 79 q 386 -12 289 -12 q 565 33 486 -12 q 694 153 643 78 q 761 319 746 228 l 874 972 l 757 972 l 644 319 q 601 208 633 258 q 517 128 568 157 q 397 99 465 99 q 292 131 331 100 q 239 211 253 161 q 233 319 225 261 l 346 972 l 229 972 m 640 1147 q 656 1095 638 1118 q 704 1071 674 1072 q 760 1093 732 1069 q 790 1144 788 1117 q 774 1197 793 1174 q 726 1222 756 1221 q 670 1199 697 1224 q 640 1147 643 1175 m 371 1147 q 386 1095 368 1118 q 433 1071 404 1072 q 490 1093 463 1069 q 521 1144 518 1117 q 505 1197 524 1174 q 457 1222 486 1221 q 401 1199 428 1224 q 371 1147 374 1175 z "},"Ũ":{"ha":844,"x_min":106,"x_max":874,"o":"m 229 972 l 117 319 q 133 155 106 231 q 226 33 161 79 q 389 -12 292 -12 q 567 33 489 -12 q 697 153 646 78 q 763 319 747 228 l 874 972 l 756 972 l 643 319 q 599 208 632 258 q 515 127 567 157 q 396 99 464 97 q 290 131 329 100 q 238 211 251 161 q 233 319 225 261 l 347 972 l 229 972 m 351 1124 l 419 1071 q 447 1115 429 1090 q 501 1140 465 1139 q 553 1126 531 1142 q 598 1094 575 1110 q 653 1076 621 1078 q 717 1090 688 1075 q 769 1127 746 1104 q 808 1174 793 1150 l 753 1236 q 710 1192 732 1211 q 664 1171 688 1172 q 610 1185 632 1169 q 566 1218 589 1201 q 507 1235 543 1235 q 445 1219 482 1235 q 380 1179 408 1204 q 351 1124 351 1154 z "},"Ū":{"ha":844,"x_min":106,"x_max":874,"o":"m 229 972 l 117 319 q 133 155 106 231 q 226 33 161 79 q 389 -12 292 -12 q 567 33 489 -12 q 697 153 646 78 q 763 319 747 228 l 874 972 l 756 972 l 643 319 q 599 208 632 258 q 515 127 567 157 q 396 99 464 97 q 290 131 329 100 q 238 211 251 161 q 233 319 225 261 l 347 972 l 229 972 m 332 1071 l 807 1071 l 824 1174 l 349 1174 l 332 1071 z "},"Ŭ":{"ha":844,"x_min":106,"x_max":874,"o":"m 229 972 l 117 319 q 133 155 106 231 q 226 33 161 79 q 389 -12 292 -12 q 567 33 489 -12 q 697 153 646 78 q 763 319 747 228 l 874 972 l 756 972 l 643 319 q 599 208 632 258 q 515 127 567 157 q 396 99 464 97 q 290 131 329 100 q 238 211 251 161 q 233 319 225 261 l 347 972 l 229 972 m 385 1264 q 401 1169 382 1213 q 463 1098 419 1125 q 572 1071 506 1071 q 690 1098 640 1071 q 770 1169 739 1125 q 814 1263 801 1213 l 714 1264 q 689 1217 706 1242 q 646 1177 672 1193 q 576 1161 619 1161 q 515 1177 536 1161 q 488 1217 494 1193 q 482 1264 481 1242 l 385 1264 z "},"Ů":{"ha":844,"x_min":106,"x_max":874,"o":"m 229 972 l 118 319 q 133 155 106 231 q 224 33 160 79 q 386 -12 289 -12 q 565 33 486 -12 q 694 153 643 78 q 761 319 746 228 l 874 972 l 757 972 l 644 319 q 601 208 633 258 q 517 128 568 157 q 397 99 465 99 q 292 131 331 100 q 239 211 253 161 q 233 319 225 261 l 346 972 l 229 972 m 453 1210 q 462 1141 447 1172 q 505 1090 476 1110 q 569 1071 533 1071 q 642 1089 607 1071 q 701 1138 676 1107 q 729 1207 725 1169 q 720 1277 735 1246 q 677 1328 706 1308 q 611 1347 649 1347 q 540 1328 575 1347 q 482 1279 506 1310 q 453 1210 458 1249 m 522 1208 q 538 1245 525 1228 q 570 1273 551 1263 q 606 1282 589 1283 q 647 1259 631 1281 q 660 1210 663 1238 q 644 1173 658 1190 q 612 1145 631 1156 q 576 1136 593 1135 q 535 1159 551 1138 q 522 1208 519 1181 z "},"Ű":{"ha":844,"x_min":104,"x_max":906,"o":"m 454 1071 l 675 1336 l 557 1367 l 378 1097 l 454 1071 m 682 1071 l 906 1336 l 785 1367 l 607 1097 l 682 1071 m 229 972 l 118 319 q 132 155 104 231 q 225 33 160 79 q 388 -12 290 -12 q 576 32 499 -12 q 700 152 654 76 q 761 319 746 228 l 874 972 l 757 972 l 644 319 q 605 207 635 257 q 524 128 575 157 q 397 99 472 99 q 292 129 331 99 q 239 210 253 160 q 233 319 225 261 l 346 972 l 229 972 z "},"Ų":{"ha":844,"x_min":104,"x_max":874,"o":"m 417 -185 q 384 -203 401 -194 q 343 -211 367 -212 q 302 -191 315 -208 q 292 -143 289 -174 q 319 -87 296 -112 q 374 -40 342 -61 q 439 -4 407 -19 l 386 31 q 295 -21 340 8 q 217 -87 250 -50 q 178 -169 185 -124 q 210 -272 169 -233 q 326 -308 251 -310 q 398 -292 367 -308 q 451 -256 429 -275 l 417 -185 m 229 972 l 118 319 q 132 155 104 231 q 225 33 160 79 q 388 -12 290 -12 q 576 32 499 -12 q 700 152 654 76 q 761 319 746 228 l 874 972 l 757 972 l 644 319 q 605 207 635 257 q 524 128 575 157 q 397 99 472 99 q 292 129 331 99 q 239 210 253 160 q 233 319 225 261 l 346 972 l 229 972 z "},"V":{"ha":889,"x_min":133,"x_max":1013,"o":"m 453 219 l 260 972 l 133 972 l 414 -50 l 1013 972 l 879 972 l 453 219 z "},"W":{"ha":1335,"x_min":140,"x_max":1450,"o":"m 958 254 l 801 1024 l 404 254 l 268 972 l 140 972 l 353 -51 l 754 704 l 919 -51 l 1450 972 l 1318 972 l 958 254 z "},"Ŵ":{"ha":1335,"x_min":143,"x_max":1454,"o":"m 946 249 l 804 1026 l 394 249 l 271 972 l 143 972 l 338 -53 l 751 703 l 904 -53 l 1454 972 l 1318 972 l 946 249 m 846 1235 l 971 1104 l 1044 1158 l 857 1354 l 611 1163 l 674 1106 l 846 1235 z "},"Ẁ":{"ha":1335,"x_min":140,"x_max":1450,"o":"m 815 1107 l 878 1149 l 707 1371 l 601 1315 l 815 1107 m 958 254 l 801 1024 l 404 254 l 268 972 l 140 972 l 353 -51 l 754 704 l 919 -51 l 1450 972 l 1318 972 l 958 254 z "},"Ẃ":{"ha":1335,"x_min":140,"x_max":1450,"o":"m 815 1107 l 1101 1315 l 992 1378 l 746 1156 l 815 1107 m 958 254 l 801 1024 l 404 254 l 268 972 l 140 972 l 353 -51 l 754 704 l 919 -51 l 1450 972 l 1318 972 l 958 254 z "},"Ẅ":{"ha":1335,"x_min":140,"x_max":1450,"o":"m 889 1185 q 905 1133 886 1156 q 953 1108 924 1110 q 1009 1131 982 1107 q 1039 1182 1036 1154 q 1023 1235 1042 1211 q 974 1260 1004 1258 q 919 1237 946 1261 q 889 1185 892 1213 m 619 1185 q 635 1133 617 1156 q 683 1108 654 1110 q 740 1131 713 1107 q 769 1182 767 1154 q 753 1235 772 1211 q 704 1260 735 1258 q 649 1237 676 1261 q 619 1185 622 1213 m 958 254 l 801 1024 l 404 254 l 268 972 l 140 972 l 353 -51 l 754 704 l 919 -51 l 1450 972 l 1318 972 l 958 254 z "},"Ẇ":{"ha":1335,"x_min":140,"x_max":1450,"o":"m 753 1183 q 776 1130 753 1153 q 829 1107 799 1107 q 883 1130 861 1107 q 906 1183 906 1153 q 883 1238 906 1215 q 829 1260 861 1260 q 776 1238 799 1260 q 753 1183 753 1215 m 958 254 l 801 1024 l 404 254 l 268 972 l 140 972 l 353 -51 l 754 704 l 919 -51 l 1450 972 l 1318 972 l 958 254 z "},"Ẉ":{"ha":1335,"x_min":140,"x_max":1450,"o":"m 533 -211 q 556 -265 533 -242 q 610 -287 579 -287 q 664 -265 642 -287 q 686 -211 686 -242 q 664 -157 686 -179 q 610 -135 642 -135 q 556 -157 579 -135 q 533 -211 533 -179 m 958 254 l 801 1024 l 404 254 l 268 972 l 140 972 l 353 -51 l 754 704 l 919 -51 l 1450 972 l 1318 972 l 958 254 z "},"X":{"ha":749,"x_min":-14,"x_max":844,"o":"m 704 972 l 447 615 l 307 972 l 175 972 l 376 513 l -14 0 l 126 0 l 418 406 l 578 0 l 710 0 l 490 507 l 844 972 l 704 972 z "},"Y":{"ha":756,"x_min":136,"x_max":882,"o":"m 747 972 l 428 525 l 263 972 l 136 972 l 356 422 l 282 0 l 399 0 l 469 417 l 882 972 l 747 972 z "},"Ý":{"ha":756,"x_min":136,"x_max":882,"o":"m 735 1275 l 640 1333 l 401 1114 l 458 1071 l 735 1275 m 747 972 l 428 525 l 263 972 l 136 972 l 356 422 l 282 0 l 399 0 l 469 417 l 882 972 l 747 972 z "},"Ŷ":{"ha":756,"x_min":138,"x_max":883,"o":"m 746 972 l 426 526 l 263 972 l 138 972 l 356 425 l 281 0 l 399 0 l 469 415 l 883 972 l 746 972 m 551 1200 l 676 1069 l 750 1124 l 561 1319 l 315 1128 l 379 1071 l 551 1200 z "},"Ÿ":{"ha":756,"x_min":136,"x_max":882,"o":"m 328 1147 q 342 1096 325 1119 q 389 1071 358 1072 q 446 1093 418 1069 q 476 1144 474 1117 q 460 1197 479 1174 q 413 1222 442 1221 q 357 1199 383 1224 q 328 1147 331 1175 m 597 1147 q 611 1096 594 1119 q 658 1071 628 1072 q 716 1093 688 1069 q 747 1144 744 1117 q 731 1197 750 1174 q 682 1222 711 1221 q 626 1199 653 1224 q 597 1147 600 1175 m 747 972 l 428 525 l 263 972 l 136 972 l 356 422 l 282 0 l 399 0 l 469 417 l 882 972 l 747 972 z "},"Ỳ":{"ha":756,"x_min":136,"x_max":882,"o":"m 499 1069 l 561 1111 l 390 1333 l 285 1278 l 499 1069 m 747 972 l 428 525 l 263 972 l 136 972 l 356 422 l 282 0 l 399 0 l 469 417 l 882 972 l 747 972 z "},"Z":{"ha":735,"x_min":-21,"x_max":839,"o":"m 156 861 l 624 861 l -21 0 l 644 0 l 664 111 l 196 113 l 839 972 l 175 972 l 156 861 z "},"Ź":{"ha":735,"x_min":-21,"x_max":839,"o":"m 156 861 l 624 861 l -21 0 l 644 0 l 664 111 l 196 113 l 839 972 l 175 972 l 156 861 m 775 1275 l 679 1333 l 440 1114 l 499 1071 l 775 1275 z "},"Ż":{"ha":735,"x_min":-21,"x_max":839,"o":"m 156 861 l 624 861 l -21 0 l 644 0 l 664 111 l 196 113 l 839 972 l 175 972 l 156 861 m 461 1147 q 476 1095 458 1118 q 524 1071 494 1072 q 581 1093 553 1069 q 611 1144 608 1117 q 595 1197 614 1174 q 547 1222 576 1221 q 491 1199 518 1224 q 461 1147 464 1175 z "},"Ž":{"ha":735,"x_min":-21,"x_max":839,"o":"m 156 861 l 624 861 l -21 0 l 644 0 l 664 111 l 196 113 l 839 972 l 175 972 l 156 861 m 539 1189 l 414 1319 l 339 1265 l 525 1069 l 772 1263 l 711 1319 l 539 1189 z "},"Æ":{"ha":1294,"x_min":-31,"x_max":1331,"o":"m 306 293 l 711 292 l 731 403 l 324 403 l 306 293 m 718 972 l -31 0 l 100 0 l 800 914 l 718 972 m 688 0 l 1164 0 l 1183 111 l 706 111 l 688 0 m 849 861 l 1311 861 l 1331 972 l 718 972 l 849 861 m 768 474 l 1218 472 l 1238 583 l 786 583 l 768 474 m 788 972 l 624 0 l 738 0 l 906 972 l 788 972 z "},"Ð":{"ha":917,"x_min":43,"x_max":929,"o":"m 43 432 l 450 431 l 467 535 l 61 535 l 43 432 m 235 972 l 71 0 l 185 0 l 353 972 l 235 972 m 358 0 q 617 66 500 3 q 812 238 735 129 q 910 486 889 347 q 887 729 929 619 q 749 905 844 839 q 515 972 654 971 l 299 972 l 278 854 l 503 854 q 681 803 611 853 q 781 672 751 754 q 793 486 810 589 q 716 297 775 379 q 568 168 657 215 q 369 118 479 121 l 153 118 l 132 0 l 358 0 z "},"Ø":{"ha":1065,"x_min":13,"x_max":1139,"o":"m 222 486 q 272 633 235 564 q 367 756 310 703 q 495 838 424 808 q 647 868 567 868 q 785 836 726 868 q 882 750 844 804 q 933 628 919 696 q 935 486 946 560 q 884 340 922 408 q 789 218 846 271 q 660 135 732 165 q 508 106 589 106 q 370 138 429 106 q 274 223 311 169 q 224 344 238 276 q 222 486 211 413 m 99 486 q 105 299 85 389 q 178 140 125 210 q 311 28 231 69 q 497 -14 392 -14 q 699 26 604 -14 q 868 134 793 65 q 992 294 943 203 q 1058 486 1042 385 q 1051 674 1072 585 q 978 834 1031 764 q 844 945 925 904 q 660 986 764 986 q 458 947 553 986 q 288 839 364 908 q 163 679 213 769 q 99 486 114 589 m 1065 1042 l 13 -11 l 86 -68 l 1139 985 l 1065 1042 z "},"Þ":{"ha":742,"x_min":71,"x_max":746,"o":"m 235 972 l 71 0 l 185 0 l 353 972 l 235 972 m 246 667 l 444 667 q 544 644 503 665 q 606 583 586 622 q 615 486 625 543 q 571 389 606 429 q 485 328 536 349 q 375 306 435 307 l 185 306 l 165 194 l 364 194 q 534 233 456 197 q 665 333 613 268 q 732 486 718 399 q 712 638 746 572 q 611 740 678 703 q 456 778 544 776 l 265 778 l 246 667 z "},"Đ":{"ha":917,"x_min":43,"x_max":929,"o":"m 43 432 l 450 431 l 467 535 l 61 535 l 43 432 m 235 972 l 71 0 l 185 0 l 353 972 l 235 972 m 358 0 q 617 66 500 3 q 812 238 735 129 q 910 486 889 347 q 887 729 929 619 q 749 905 844 839 q 515 972 654 971 l 299 972 l 278 854 l 503 854 q 681 803 611 853 q 781 672 751 754 q 793 486 810 589 q 716 297 775 379 q 568 168 657 215 q 369 118 479 121 l 153 118 l 132 0 l 358 0 z "},"Ħ":{"ha":964,"x_min":71,"x_max":1068,"o":"m 215 474 l 865 474 l 883 583 l 233 583 l 215 474 m 867 972 l 704 0 l 819 0 l 988 972 l 867 972 m 233 972 l 71 0 l 185 0 l 354 972 l 233 972 m 99 751 l 1051 751 l 1068 854 l 115 854 l 99 751 z "},"Ĳ":{"ha":661,"x_min":71,"x_max":683,"o":"m 182 -144 l 108 -235 q 172 -283 132 -261 q 261 -304 211 -304 q 378 -277 328 -304 q 460 -200 428 -250 q 503 -83 492 -150 l 683 972 l 574 972 l 394 -69 q 352 -158 385 -125 q 279 -194 319 -192 q 221 -181 244 -196 q 182 -144 197 -167 m 235 972 l 71 0 l 185 0 l 353 972 l 235 972 z "},"Ŀ":{"ha":607,"x_min":69,"x_max":576,"o":"m 236 972 l 69 0 l 557 0 l 576 111 l 206 111 l 353 972 l 236 972 m 404 578 q 419 526 401 549 q 468 501 438 503 q 506 510 488 500 q 539 539 525 521 q 554 575 553 557 q 549 612 557 594 q 525 640 540 629 q 490 653 510 651 q 452 643 471 654 q 420 615 433 632 q 404 578 407 597 z "},"Ł":{"ha":607,"x_min":36,"x_max":576,"o":"m 51 474 l 456 707 l 439 785 l 36 550 l 51 474 m 236 972 l 69 0 l 557 0 l 576 111 l 206 111 l 353 972 l 236 972 z "},"Ŋ":{"ha":1076,"x_min":49,"x_max":1065,"o":"m 667 -306 q 771 -279 725 -306 q 847 -203 817 -253 q 889 -83 878 -153 l 1065 972 l 947 972 l 826 249 l 219 1021 l 49 0 l 167 0 l 288 724 l 803 68 l 781 -69 q 762 -142 774 -114 q 733 -182 750 -169 q 693 -194 717 -194 q 655 -185 671 -194 q 631 -158 639 -175 l 554 -250 q 598 -292 571 -278 q 667 -306 625 -306 z "},"Œ":{"ha":1328,"x_min":83,"x_max":1364,"o":"m 801 474 l 1251 472 l 1271 583 l 819 583 l 801 474 m 814 931 l 664 43 l 778 42 l 932 931 l 814 931 m 1215 111 l 749 111 l 717 111 l 503 111 q 363 144 422 114 q 267 225 304 174 q 216 343 229 276 q 215 486 203 410 q 266 635 229 567 q 358 753 303 703 q 485 831 414 803 q 640 861 557 860 l 857 861 l 879 861 l 1343 861 l 1364 972 l 650 972 q 451 934 544 971 q 284 832 357 897 q 163 678 211 767 q 99 486 115 590 q 104 299 83 386 q 177 145 125 211 q 309 41 229 79 q 493 0 389 3 l 1197 0 l 1215 111 z "},"Ŧ":{"ha":646,"x_min":121,"x_max":743,"o":"m 154 529 l 583 529 l 611 632 l 182 632 l 154 529 m 121 861 l 365 861 l 217 0 l 333 0 l 482 861 l 724 861 l 743 972 l 142 972 l 121 861 z "},"ẞ":{"ha":994,"x_min":69,"x_max":954,"o":"m 586 -17 q 479 -5 526 -17 q 393 28 432 7 q 319 75 354 49 l 375 175 q 473 123 424 143 q 594 103 522 103 q 701 117 651 103 q 783 162 751 131 q 814 244 814 193 q 791 314 814 289 q 735 354 768 339 q 667 385 701 369 q 610 426 633 401 q 588 493 588 450 q 612 566 588 538 q 672 615 636 594 q 744 653 708 635 q 805 695 781 671 q 829 756 829 719 q 812 812 829 785 q 755 856 794 839 q 650 872 715 872 q 481 834 560 872 q 349 720 403 796 q 276 531 294 644 l 189 -3 l 69 -3 l 160 540 q 223 734 176 651 q 337 873 269 817 q 485 957 404 929 q 654 985 567 985 q 810 962 743 985 q 916 893 878 939 q 954 781 954 847 q 931 683 954 722 q 873 617 907 643 q 805 574 839 592 q 747 542 771 557 q 724 507 724 526 q 746 470 724 483 q 801 444 768 457 q 865 411 833 432 q 919 353 897 390 q 942 253 942 315 q 897 113 942 174 q 771 18 851 53 q 586 -17 690 -17 z "},"Δ":{"ha":833,"x_min":-37,"x_max":744,"o":"m -37 0 l 540 1111 l 744 0 l -37 0 m 147 106 l 597 106 l 490 799 l 147 106 z "},"Ω":{"ha":833,"x_min":29,"x_max":764,"o":"m 29 0 l 46 94 l 167 94 q 122 203 139 144 q 102 322 106 261 q 107 440 99 383 q 178 612 124 536 q 313 732 233 688 q 485 776 393 776 q 641 732 576 776 q 735 612 706 688 q 747 440 764 536 q 715 322 739 383 q 654 203 690 261 q 574 94 618 144 l 694 94 l 678 0 l 410 0 l 428 108 q 493 168 461 132 q 551 248 525 204 q 595 339 576 292 q 621 432 614 386 q 619 551 633 503 q 565 623 604 599 q 463 647 526 647 q 351 623 399 647 q 272 551 303 599 q 229 432 242 503 q 228 309 219 372 q 259 193 236 246 q 315 108 282 140 l 297 0 l 29 0 z "},"А":{"ha":889,"x_min":-36,"x_max":844,"o":"m 211 293 l 713 292 l 689 403 l 268 403 l 211 293 m 540 753 l 632 361 l 638 333 l 718 0 l 844 0 l 582 1025 l -36 0 l 101 0 l 300 342 l 315 367 l 540 753 z "},"Б":{"ha":739,"x_min":71,"x_max":744,"o":"m 211 472 l 413 472 q 512 449 471 471 q 572 388 553 428 q 582 292 592 349 q 536 194 571 235 q 451 133 501 154 q 339 111 400 113 l 151 111 l 131 0 l 333 0 q 503 38 425 3 q 633 139 581 74 q 699 292 686 204 q 678 444 713 379 q 576 545 643 508 q 419 583 508 582 l 232 583 l 211 472 m 232 972 l 71 0 l 185 0 l 335 861 l 725 861 l 744 972 l 232 972 z "},"В":{"ha":753,"x_min":68,"x_max":729,"o":"m 249 515 l 406 515 q 552 540 485 517 q 664 611 619 564 q 719 729 708 658 q 714 834 729 789 q 665 909 699 879 q 581 955 631 939 q 472 972 532 971 l 235 972 l 68 0 l 333 0 q 503 35 425 3 q 633 130 581 67 q 697 285 685 193 q 688 399 707 350 q 629 478 669 447 q 533 526 589 510 q 414 542 478 542 l 251 542 l 242 478 l 413 476 q 513 452 471 475 q 573 389 554 429 q 582 292 592 349 q 536 193 571 235 q 450 129 501 151 q 338 106 399 107 l 204 104 l 335 868 l 467 868 q 574 826 535 865 q 601 722 613 788 q 565 647 593 678 q 495 599 536 615 q 407 579 454 582 l 258 579 l 249 515 z "},"Г":{"ha":586,"x_min":71,"x_max":704,"o":"m 232 972 l 71 0 l 185 0 l 335 861 l 683 861 l 704 972 l 232 972 z "},"Ѓ":{"ha":586,"x_min":71,"x_max":742,"o":"m 232 972 l 71 0 l 185 0 l 335 861 l 683 861 l 704 972 l 232 972 m 742 1274 l 646 1332 l 411 1113 l 468 1069 l 742 1274 z "},"Д":{"ha":1072,"x_min":-11,"x_max":996,"o":"m 628 754 l 768 42 l 885 42 l 669 1025 l 114 43 l 243 43 l 628 754 m 875 0 l 847 -151 l 949 -151 l 996 111 l 35 111 l -11 -151 l 93 -151 l 121 0 l 875 0 z "},"Е":{"ha":742,"x_min":71,"x_max":779,"o":"m 135 0 l 614 0 l 632 111 l 153 111 l 135 0 m 282 863 l 760 863 l 779 972 l 299 972 l 282 863 m 215 474 l 667 474 l 685 583 l 233 583 l 215 474 m 233 972 l 71 0 l 185 0 l 354 972 l 233 972 z "},"Ѐ":{"ha":742,"x_min":71,"x_max":779,"o":"m 135 0 l 614 0 l 632 111 l 153 111 l 135 0 m 282 863 l 760 863 l 779 972 l 299 972 l 282 863 m 215 474 l 667 474 l 685 583 l 233 583 l 215 474 m 233 972 l 71 0 l 185 0 l 354 972 l 233 972 m 324 1279 l 539 1069 l 604 1110 l 432 1333 l 324 1279 z "},"Ё":{"ha":742,"x_min":71,"x_max":779,"o":"m 135 0 l 614 0 l 632 111 l 153 111 l 135 0 m 282 863 l 760 863 l 779 972 l 299 972 l 282 863 m 215 474 l 667 474 l 685 583 l 233 583 l 215 474 m 233 972 l 71 0 l 185 0 l 354 972 l 233 972 m 611 1147 q 628 1095 610 1118 q 676 1069 646 1072 q 732 1092 704 1068 q 761 1144 760 1117 q 745 1197 764 1174 q 697 1221 726 1219 q 641 1199 668 1224 q 611 1147 614 1175 m 342 1147 q 358 1095 340 1118 q 407 1069 376 1072 q 463 1092 435 1068 q 492 1144 490 1117 q 476 1197 494 1174 q 428 1221 457 1219 q 372 1199 399 1224 q 342 1147 344 1175 z "},"Ж":{"ha":1207,"x_min":-36,"x_max":1314,"o":"m 294 972 l 158 972 l 488 522 l -36 0 l 115 0 l 625 510 l 294 972 m 678 972 l 517 0 l 631 0 l 799 972 l 678 972 m 1161 972 l 696 519 l 1024 0 l 1160 0 l 821 513 l 1314 972 l 1161 972 z "},"З":{"ha":817,"x_min":78,"x_max":829,"o":"m 426 481 q 563 499 497 482 q 683 547 629 515 q 773 623 738 578 q 818 728 808 668 q 797 858 829 800 q 701 951 765 917 q 551 986 638 986 q 391 954 463 986 q 272 865 319 922 q 208 732 225 808 l 321 732 q 402 838 342 796 q 547 879 463 881 q 638 859 601 879 q 691 804 675 839 q 697 724 707 769 q 649 636 686 672 q 558 580 613 600 q 436 556 503 560 l 426 481 m 389 -12 q 566 19 486 -12 q 699 112 646 51 q 764 257 751 172 q 751 381 775 331 q 680 465 728 432 q 568 513 632 497 q 433 529 504 528 l 421 453 q 514 440 469 451 q 592 408 558 429 q 641 353 625 386 q 647 271 657 319 q 603 178 638 217 q 515 119 568 139 q 394 99 463 99 q 249 140 297 99 q 201 257 201 182 l 85 257 q 113 115 78 176 q 218 21 147 54 q 389 -12 289 -12 z "},"И":{"ha":1044,"x_min":56,"x_max":1081,"o":"m 1036 836 l 1081 1031 l 100 136 l 56 -57 l 1036 836 m 354 972 l 235 972 l 56 -57 l 203 100 l 354 972 m 1081 1031 l 932 874 l 782 0 l 900 0 l 1081 1031 z "},"Ѝ":{"ha":1044,"x_min":56,"x_max":1081,"o":"m 1036 836 l 1081 1031 l 100 136 l 56 -57 l 1036 836 m 354 972 l 235 972 l 56 -57 l 203 100 l 354 972 m 1081 1031 l 932 874 l 782 0 l 900 0 l 1081 1031 m 475 1246 l 689 1035 l 753 1075 l 585 1300 l 475 1246 z "},"Й":{"ha":1044,"x_min":56,"x_max":1081,"o":"m 1036 836 l 1081 1031 l 100 136 l 56 -57 l 1036 836 m 354 972 l 235 972 l 56 -57 l 203 100 l 354 972 m 1081 1031 l 932 874 l 782 0 l 900 0 l 1081 1031 m 496 1258 q 512 1163 493 1207 q 574 1092 531 1119 q 683 1065 617 1065 q 800 1092 751 1065 q 880 1163 849 1119 q 924 1257 911 1207 l 825 1258 q 801 1212 817 1236 q 759 1172 786 1188 q 690 1156 732 1156 q 628 1172 650 1156 q 599 1212 607 1188 q 592 1258 592 1236 l 496 1258 z "},"К":{"ha":761,"x_min":71,"x_max":869,"o":"m 233 972 l 71 0 l 185 0 l 354 972 l 233 972 m 717 972 l 238 519 l 579 0 l 715 0 l 376 513 l 869 972 l 717 972 z "},"Ќ":{"ha":761,"x_min":71,"x_max":869,"o":"m 233 972 l 71 0 l 185 0 l 354 972 l 233 972 m 717 972 l 238 519 l 579 0 l 715 0 l 376 513 l 869 972 l 717 972 m 825 1274 l 728 1333 l 490 1115 l 550 1071 l 825 1274 z "},"Л":{"ha":888,"x_min":-24,"x_max":910,"o":"m 910 972 l 265 972 l 161 361 q 131 242 151 297 q 76 149 110 186 q -8 101 42 111 l -24 1 q 121 55 61 8 q 217 174 181 101 q 269 333 254 247 l 358 861 l 772 861 l 625 0 l 743 0 l 910 972 z "},"М":{"ha":1092,"x_min":13,"x_max":1065,"o":"m 315 656 l 525 88 l 925 647 l 883 0 l 1001 0 l 1065 1029 l 560 321 l 304 1024 l 13 0 l 133 0 l 315 656 z "},"Н":{"ha":964,"x_min":71,"x_max":988,"o":"m 215 474 l 865 474 l 883 583 l 233 583 l 215 474 m 867 972 l 704 0 l 819 0 l 988 972 l 867 972 m 233 972 l 71 0 l 185 0 l 354 972 l 233 972 z "},"О":{"ha":1065,"x_min":83,"x_max":1072,"o":"m 222 486 q 274 633 236 564 q 369 756 311 703 q 498 838 426 808 q 650 868 569 868 q 788 836 729 868 q 883 750 847 804 q 933 628 919 696 q 933 486 946 560 q 883 340 921 408 q 788 218 844 271 q 659 135 731 165 q 507 106 588 106 q 369 138 428 106 q 274 224 310 169 q 224 346 238 278 q 222 486 211 414 m 97 486 q 105 299 83 389 q 179 138 126 208 q 313 27 232 68 q 499 -14 394 -14 q 700 26 606 -14 q 869 134 794 65 q 994 294 944 203 q 1058 486 1043 385 q 1051 674 1072 585 q 976 834 1029 764 q 842 945 924 904 q 657 986 761 986 q 456 947 550 986 q 286 839 361 908 q 162 679 211 769 q 97 486 113 589 z "},"П":{"ha":964,"x_min":68,"x_max":986,"o":"m 853 863 l 704 0 l 819 0 l 986 972 l 235 972 l 68 0 l 186 0 l 335 861 l 853 863 z "},"Р":{"ha":739,"x_min":71,"x_max":779,"o":"m 233 972 l 71 0 l 185 0 l 354 972 l 233 972 m 278 861 l 479 861 q 578 838 538 860 q 639 777 619 817 q 649 681 658 738 q 603 583 638 624 q 517 522 568 543 q 406 500 467 501 l 218 500 l 197 389 l 399 389 q 569 427 490 392 q 700 528 647 463 q 765 681 753 593 q 744 833 779 768 q 642 934 710 897 q 486 972 575 971 l 299 972 l 278 861 z "},"С":{"ha":924,"x_min":83,"x_max":942,"o":"m 222 486 q 274 634 236 565 q 370 756 313 703 q 497 838 428 808 q 643 868 567 868 q 805 830 735 868 q 918 724 875 792 l 942 879 q 813 961 882 935 q 650 986 744 988 q 453 947 546 986 q 285 840 360 908 q 162 681 211 771 q 97 486 113 590 q 105 298 83 388 q 179 138 126 208 q 311 27 232 68 q 492 -14 390 -14 q 667 14 590 -14 q 810 93 743 42 l 833 247 q 685 146 769 188 q 500 106 600 104 q 368 138 425 106 q 275 223 311 169 q 225 344 239 276 q 222 486 211 413 z "},"Т":{"ha":626,"x_min":121,"x_max":744,"o":"m 121 861 l 364 861 l 217 0 l 335 0 l 482 861 l 725 861 l 744 972 l 140 972 l 121 861 z "},"У":{"ha":761,"x_min":129,"x_max":896,"o":"m 896 972 l 758 972 l 364 326 l 433 319 l 265 972 l 129 972 l 324 293 l 147 0 l 285 0 l 896 972 z "},"Ў":{"ha":761,"x_min":129,"x_max":896,"o":"m 896 972 l 758 972 l 364 326 l 433 319 l 265 972 l 129 972 l 324 293 l 147 0 l 285 0 l 896 972 m 339 1264 q 356 1168 336 1213 q 418 1097 375 1124 q 526 1069 461 1069 q 644 1097 594 1069 q 724 1168 693 1124 q 767 1263 756 1213 l 669 1263 q 645 1217 661 1240 q 603 1176 629 1193 q 533 1160 576 1160 q 472 1177 493 1161 q 442 1217 450 1193 q 435 1264 435 1242 l 339 1264 z "},"Ф":{"ha":1056,"x_min":85,"x_max":1061,"o":"m 596 972 l 433 0 l 549 0 l 717 972 l 596 972 m 932 486 q 864 346 917 403 q 733 260 811 289 q 565 229 656 231 l 481 231 q 329 261 394 232 q 232 347 264 290 q 215 486 200 404 q 283 628 231 571 q 413 713 336 685 q 581 743 490 742 l 665 743 q 817 713 751 742 q 915 626 883 683 q 932 486 947 569 m 1049 486 q 1038 641 1061 572 q 962 758 1014 710 q 835 833 910 807 q 674 861 761 860 l 589 861 q 362 815 467 860 q 186 686 257 769 q 97 486 115 603 q 108 331 85 400 q 184 214 132 263 q 310 139 236 165 q 474 111 385 113 l 558 111 q 733 139 650 113 q 882 213 815 165 q 992 330 949 261 q 1049 486 1035 399 z "},"Х":{"ha":749,"x_min":-29,"x_max":849,"o":"m 704 972 l 443 617 l 310 972 l 178 972 l 371 515 l -29 0 l 115 0 l 413 404 l 564 0 l 696 0 l 485 504 l 849 972 l 704 972 z "},"Ц":{"ha":1025,"x_min":68,"x_max":988,"o":"m 201 111 l 350 972 l 236 972 l 68 0 l 831 0 l 804 -151 l 908 -151 l 954 111 l 839 111 l 988 972 l 868 972 l 721 111 l 201 111 z "},"Ч":{"ha":829,"x_min":181,"x_max":853,"o":"m 421 390 l 715 390 l 733 493 l 438 493 l 421 390 m 732 972 l 569 0 l 685 0 l 853 972 l 732 972 m 347 972 l 235 972 l 192 719 q 202 558 181 633 q 278 436 224 482 q 421 390 333 390 l 438 493 q 348 526 382 493 q 303 610 314 558 q 301 719 292 661 l 347 972 z "},"Ш":{"ha":1328,"x_min":68,"x_max":1351,"o":"m 1085 111 l 704 111 l 853 972 l 733 972 l 586 111 l 206 111 l 354 972 l 235 972 l 68 0 l 1185 0 l 1351 972 l 1232 972 l 1085 111 z "},"Щ":{"ha":1389,"x_min":68,"x_max":1351,"o":"m 1085 111 l 704 111 l 853 972 l 733 972 l 586 111 l 206 111 l 354 972 l 235 972 l 68 0 l 1194 0 l 1168 -151 l 1272 -151 l 1318 111 l 1203 111 l 1351 972 l 1232 972 l 1085 111 z "},"Ъ":{"ha":888,"x_min":121,"x_max":861,"o":"m 360 472 l 561 472 q 660 450 619 472 q 721 388 701 428 q 731 292 740 349 q 685 194 719 235 q 599 133 650 154 q 488 111 547 113 l 300 111 l 279 0 l 481 0 q 651 36 572 0 q 782 138 729 72 q 847 292 835 204 q 826 444 861 379 q 724 547 792 510 q 568 583 657 583 l 381 583 l 360 472 m 368 863 l 219 0 l 333 0 l 501 972 l 140 972 l 121 861 l 368 863 z "},"Ы":{"ha":1031,"x_min":71,"x_max":1056,"o":"m 933 972 l 772 0 l 886 0 l 1056 972 l 933 972 m 233 972 l 71 0 l 185 0 l 354 972 l 233 972 m 211 472 l 413 472 q 512 450 471 472 q 572 388 553 428 q 582 292 592 349 q 536 194 571 235 q 451 133 501 154 q 339 111 400 113 l 151 111 l 131 0 l 333 0 q 503 36 425 0 q 633 138 581 72 q 699 292 686 204 q 678 444 713 379 q 576 547 643 510 q 419 583 508 583 l 232 583 l 211 472 z "},"Ь":{"ha":739,"x_min":71,"x_max":713,"o":"m 233 972 l 71 0 l 185 0 l 354 972 l 233 972 m 211 472 l 413 472 q 512 450 471 472 q 572 388 553 428 q 582 292 592 349 q 536 194 571 235 q 451 133 501 154 q 339 111 400 113 l 151 111 l 131 0 l 333 0 q 503 36 425 0 q 633 138 581 72 q 699 292 686 204 q 678 444 713 379 q 576 547 643 510 q 419 583 508 583 l 232 583 l 211 472 z "},"Э":{"ha":924,"x_min":72,"x_max":931,"o":"m 215 432 l 788 432 l 807 542 l 232 542 l 215 432 m 792 486 q 740 340 779 408 q 644 218 701 271 q 518 135 588 165 q 372 106 449 106 q 210 143 279 106 q 96 249 140 181 l 72 94 q 201 13 132 39 q 364 -14 271 -14 q 561 26 468 -14 q 729 134 654 65 q 853 293 804 203 q 917 486 901 383 q 909 674 931 585 q 835 834 888 764 q 703 945 782 904 q 522 986 624 986 q 349 960 425 988 q 204 881 272 932 l 182 725 q 330 828 246 786 q 515 868 414 869 q 647 835 590 867 q 740 749 704 803 q 790 628 776 696 q 792 486 803 560 z "},"Ю":{"ha":1389,"x_min":71,"x_max":1396,"o":"m 215 474 l 514 474 l 533 583 l 233 583 l 215 474 m 233 972 l 71 0 l 185 0 l 354 972 l 233 972 m 546 486 q 597 633 560 564 q 692 756 635 703 q 822 838 750 808 q 974 868 893 868 q 1112 836 1053 868 q 1207 750 1171 804 q 1256 628 1243 696 q 1257 486 1269 560 q 1206 340 1244 408 q 1111 218 1168 271 q 983 135 1054 165 q 831 106 911 106 q 692 138 751 106 q 597 224 633 169 q 548 346 561 278 q 546 486 535 414 m 421 486 q 428 299 407 389 q 503 138 450 208 q 637 27 556 68 q 822 -14 718 -14 q 1024 26 929 -14 q 1193 134 1118 65 q 1317 294 1268 203 q 1382 486 1367 385 q 1374 674 1396 585 q 1300 834 1353 764 q 1166 945 1247 904 q 981 986 1085 986 q 779 947 874 986 q 610 839 685 908 q 485 679 535 769 q 421 486 436 589 z "},"Я":{"ha":754,"x_min":-29,"x_max":778,"o":"m 529 479 l 390 479 l -29 0 l 122 0 l 529 479 m 778 972 l 660 972 l 493 0 l 611 0 l 778 972 m 696 868 l 715 972 l 514 972 q 344 936 424 972 q 213 835 265 900 q 147 682 161 771 q 169 531 135 596 q 271 428 203 465 q 426 389 339 392 l 614 389 l 633 493 l 432 494 q 333 520 374 497 q 273 584 292 543 q 264 681 254 625 q 310 781 275 739 q 397 846 344 824 q 508 868 449 868 l 696 868 z "},"a":{"ha":768,"x_min":50,"x_max":749,"o":"m 643 639 l 536 0 l 638 0 l 749 639 l 643 639 m 63 319 q 78 153 50 229 q 167 33 106 78 q 319 -12 229 -12 q 437 13 383 -12 q 531 85 490 39 q 597 191 571 131 q 633 319 624 251 q 634 444 642 385 q 601 550 626 503 q 533 625 576 597 q 425 653 489 653 q 258 610 335 654 q 128 490 181 565 q 63 319 76 414 m 174 319 q 222 438 185 385 q 313 520 258 490 q 428 549 367 550 q 501 528 469 547 q 553 478 532 510 q 582 406 574 446 q 583 319 590 365 q 552 231 575 272 q 496 158 529 189 q 423 109 463 126 q 342 92 383 92 q 240 123 281 92 q 182 206 199 154 q 174 319 165 258 z "},"à":{"ha":768,"x_min":50,"x_max":749,"o":"m 643 639 l 536 0 l 638 0 l 749 639 l 643 639 m 63 319 q 78 153 50 229 q 167 33 106 78 q 319 -12 229 -12 q 437 13 383 -12 q 531 85 490 39 q 597 191 571 131 q 633 319 624 251 q 634 444 642 385 q 601 550 626 503 q 533 625 576 597 q 425 653 489 653 q 258 610 335 654 q 128 490 181 565 q 63 319 76 414 m 174 319 q 222 438 185 385 q 313 520 258 490 q 428 549 367 550 q 501 528 469 547 q 553 478 532 510 q 582 406 574 446 q 583 319 590 365 q 552 231 575 272 q 496 158 529 189 q 423 109 463 126 q 342 92 383 92 q 240 123 281 92 q 182 206 199 154 q 174 319 165 258 m 275 946 l 486 736 l 551 776 l 385 1000 l 275 946 z "},"á":{"ha":768,"x_min":50,"x_max":749,"o":"m 643 639 l 536 0 l 638 1 l 749 639 l 643 639 m 63 319 q 78 153 50 229 q 167 33 106 78 q 319 -12 229 -12 q 437 13 383 -12 q 531 85 490 39 q 597 191 571 131 q 633 319 624 251 q 634 444 642 385 q 601 550 626 503 q 533 625 576 597 q 425 653 489 653 q 258 610 335 654 q 128 490 181 565 q 63 319 76 414 m 174 319 q 222 438 185 385 q 313 520 258 490 q 428 549 367 550 q 501 528 469 547 q 553 478 532 510 q 582 406 574 446 q 583 319 590 365 q 552 231 575 272 q 496 158 529 189 q 423 109 463 126 q 342 92 383 92 q 240 123 281 92 q 182 206 199 154 q 174 319 165 258 m 654 942 l 560 1000 l 321 781 l 378 738 l 654 942 z "},"â":{"ha":768,"x_min":50,"x_max":749,"o":"m 643 639 l 536 0 l 638 0 l 749 639 l 643 639 m 63 319 q 78 153 50 229 q 167 33 106 78 q 319 -12 229 -12 q 437 13 383 -12 q 531 85 490 39 q 597 191 571 131 q 633 319 624 251 q 634 444 642 385 q 601 550 626 503 q 533 625 576 597 q 425 653 489 653 q 258 610 335 654 q 128 490 181 565 q 63 319 76 414 m 174 319 q 222 438 185 385 q 313 520 258 490 q 428 549 367 550 q 501 528 469 547 q 553 478 532 510 q 582 406 574 446 q 583 319 590 365 q 552 231 575 272 q 496 158 529 189 q 423 109 463 126 q 342 92 383 92 q 240 123 281 92 q 182 206 199 154 q 174 319 165 258 m 496 868 l 621 738 l 696 790 l 510 986 l 263 794 l 324 738 l 496 868 z "},"ã":{"ha":768,"x_min":50,"x_max":749,"o":"m 643 639 l 536 0 l 638 0 l 749 639 l 643 639 m 63 319 q 78 153 50 229 q 167 33 106 78 q 319 -12 229 -12 q 437 13 383 -12 q 531 85 490 39 q 597 191 571 131 q 633 319 624 251 q 634 444 642 385 q 601 550 626 503 q 533 625 576 597 q 425 653 489 653 q 258 610 335 654 q 128 490 181 565 q 63 319 76 414 m 174 319 q 222 438 185 385 q 313 520 258 490 q 428 549 367 550 q 501 528 469 547 q 553 478 532 510 q 582 406 574 446 q 583 319 590 365 q 552 231 575 272 q 496 158 529 189 q 423 109 463 126 q 342 92 383 92 q 240 123 281 92 q 182 206 199 154 q 174 319 165 258 m 256 790 l 321 738 q 348 781 331 757 q 403 807 365 806 q 453 792 432 808 q 499 760 475 776 q 554 743 522 744 q 618 757 589 742 q 672 795 647 772 q 711 842 696 818 l 657 903 q 615 858 636 876 q 568 838 593 839 q 515 852 536 836 q 471 885 493 868 q 413 901 449 901 q 349 886 381 901 q 294 846 318 871 q 256 790 269 821 z "},"ä":{"ha":768,"x_min":50,"x_max":749,"o":"m 643 639 l 536 0 l 638 0 l 749 639 l 643 639 m 63 319 q 78 153 50 229 q 167 33 106 78 q 319 -12 229 -12 q 437 13 383 -12 q 531 85 490 39 q 597 191 571 131 q 633 319 624 251 q 634 444 642 385 q 601 550 626 503 q 533 625 576 597 q 425 653 489 653 q 258 610 335 654 q 128 490 181 565 q 63 319 76 414 m 174 319 q 222 438 185 385 q 313 520 258 490 q 428 549 367 550 q 501 528 469 547 q 553 478 532 510 q 582 406 574 446 q 583 319 590 365 q 552 231 575 272 q 496 158 529 189 q 423 109 463 126 q 342 92 383 92 q 240 123 281 92 q 182 206 199 154 q 174 319 165 258 m 543 814 q 558 762 540 785 q 606 738 576 739 q 663 760 635 736 q 693 811 690 783 q 677 864 696 840 q 629 889 658 888 q 573 866 600 890 q 543 814 546 842 m 274 814 q 289 762 271 785 q 336 738 307 739 q 392 760 365 736 q 422 811 419 783 q 407 864 425 840 q 360 889 389 888 q 303 866 331 890 q 274 814 276 842 z "},"å":{"ha":768,"x_min":50,"x_max":749,"o":"m 643 639 l 536 0 l 638 0 l 749 639 l 643 639 m 63 319 q 78 153 50 229 q 167 33 106 78 q 319 -12 229 -12 q 437 13 383 -12 q 531 85 490 39 q 597 191 571 131 q 633 319 624 251 q 634 444 642 385 q 601 550 626 503 q 533 625 576 597 q 425 653 489 653 q 258 610 335 654 q 128 490 181 565 q 63 319 76 414 m 174 319 q 222 438 185 385 q 313 520 258 490 q 428 549 367 550 q 501 528 469 547 q 553 478 532 510 q 582 406 574 446 q 583 319 590 365 q 552 231 575 272 q 496 158 529 189 q 423 109 463 126 q 342 92 383 92 q 240 123 281 92 q 182 206 199 154 q 174 319 165 258 m 318 875 q 328 806 314 838 q 371 756 342 775 q 436 736 400 738 q 508 755 474 736 q 566 805 542 774 q 596 874 590 836 q 587 943 601 911 q 544 994 572 975 q 478 1013 515 1013 q 407 995 442 1014 q 348 945 372 976 q 318 875 324 914 m 388 874 q 403 910 390 893 q 436 937 417 926 q 472 947 456 947 q 513 925 497 947 q 526 875 529 903 q 511 840 525 857 q 478 812 497 822 q 442 801 460 801 q 401 824 417 801 q 388 874 385 847 z "},"ā":{"ha":768,"x_min":50,"x_max":749,"o":"m 643 639 l 536 0 l 638 0 l 749 639 l 643 639 m 63 319 q 78 153 50 229 q 167 33 106 78 q 319 -12 229 -12 q 437 13 383 -12 q 531 85 490 39 q 597 191 571 131 q 633 319 624 251 q 634 444 642 385 q 601 550 626 503 q 533 625 576 597 q 425 653 489 653 q 258 610 335 654 q 128 490 181 565 q 63 319 76 414 m 174 319 q 222 438 185 385 q 313 520 258 490 q 428 549 367 550 q 501 528 469 547 q 553 478 532 510 q 582 406 574 446 q 583 319 590 365 q 552 231 575 272 q 496 158 529 189 q 423 109 463 126 q 342 92 383 92 q 240 123 281 92 q 182 206 199 154 q 174 319 165 258 m 221 751 l 694 750 l 713 854 l 238 854 l 221 751 z "},"ă":{"ha":768,"x_min":50,"x_max":749,"o":"m 643 639 l 536 0 l 638 0 l 749 639 l 643 639 m 63 319 q 78 153 50 229 q 167 33 106 78 q 319 -12 229 -12 q 437 13 383 -12 q 531 85 490 39 q 597 191 571 131 q 633 319 624 251 q 634 444 642 385 q 601 550 626 503 q 533 625 576 597 q 425 653 489 653 q 258 610 335 654 q 128 490 181 565 q 63 319 76 414 m 174 319 q 222 438 185 385 q 313 520 258 490 q 428 549 367 550 q 501 528 469 547 q 553 478 532 510 q 582 406 574 446 q 583 319 590 365 q 552 231 575 272 q 496 158 529 189 q 423 109 463 126 q 342 92 383 92 q 240 123 281 92 q 182 206 199 154 q 174 319 165 258 m 233 931 q 250 835 231 879 q 312 763 269 790 q 421 736 354 736 q 538 763 489 736 q 619 835 588 790 q 661 929 650 879 l 564 929 q 540 883 556 907 q 497 843 524 860 q 428 826 471 826 q 366 844 388 828 q 337 883 344 860 q 329 929 329 907 l 233 931 z "},"ą":{"ha":768,"x_min":50,"x_max":749,"o":"m 643 639 l 536 0 l 638 1 l 749 639 l 643 639 m 63 319 q 78 153 50 229 q 167 33 106 78 q 319 -12 229 -12 q 437 13 383 -12 q 531 85 490 39 q 597 191 571 131 q 633 319 624 251 q 634 444 642 385 q 601 550 626 503 q 533 625 576 597 q 425 653 489 653 q 258 610 335 654 q 128 490 181 565 q 63 319 76 414 m 174 319 q 222 438 185 385 q 313 520 258 490 q 428 549 367 550 q 501 528 469 547 q 553 478 532 510 q 582 406 574 446 q 583 319 590 365 q 552 231 575 272 q 496 158 529 189 q 423 109 463 126 q 342 92 383 92 q 240 123 281 92 q 182 206 199 154 q 174 319 165 258 m 611 -181 q 580 -199 597 -190 q 539 -207 563 -208 q 497 -187 510 -204 q 488 -139 485 -169 q 517 -83 493 -108 q 573 -36 540 -57 q 638 0 606 -15 l 585 35 q 493 -17 539 13 q 415 -83 447 -46 q 374 -165 382 -119 q 404 -267 364 -229 q 519 -304 444 -306 q 592 -288 560 -304 q 646 -251 624 -272 l 611 -181 z "},"b":{"ha":768,"x_min":56,"x_max":751,"o":"m 351 1083 l 242 1083 l 56 0 l 165 0 l 351 1083 m 739 319 q 724 485 751 410 q 635 607 697 561 q 483 653 574 653 q 366 626 419 653 q 272 554 313 600 q 206 448 232 508 q 169 319 179 388 q 169 196 161 256 q 201 89 176 136 q 270 14 226 42 q 378 -14 314 -14 q 545 30 468 -14 q 674 150 622 74 q 739 319 726 226 m 629 319 q 582 202 619 254 q 491 120 544 150 q 375 92 438 90 q 302 111 333 93 q 250 161 271 129 q 222 233 229 193 q 219 319 214 274 q 251 410 228 368 q 307 483 274 451 q 380 531 340 514 q 461 549 419 549 q 563 517 522 549 q 622 434 604 486 q 629 319 639 382 z "},"c":{"ha":644,"x_min":54,"x_max":642,"o":"m 176 319 q 221 435 186 383 q 309 517 256 486 q 426 549 363 549 q 548 517 496 549 q 622 432 600 485 l 642 571 q 551 632 606 611 q 435 653 496 653 q 261 608 340 653 q 130 488 182 563 q 65 319 78 413 q 85 155 54 231 q 181 33 115 79 q 339 -12 247 -12 q 463 9 404 -12 q 565 68 522 31 l 585 206 q 485 125 549 160 q 349 92 422 90 q 244 125 286 93 q 185 209 203 157 q 176 319 168 261 z "},"ç":{"ha":644,"x_min":43,"x_max":638,"o":"m 167 319 q 214 434 178 382 q 304 517 250 486 q 422 549 358 549 q 543 517 492 549 q 615 432 594 485 l 638 571 q 547 632 601 611 q 432 653 493 653 q 258 608 338 653 q 124 488 178 563 q 57 319 71 413 q 73 156 43 232 q 167 34 103 81 q 325 -12 232 -12 q 450 9 390 -12 q 553 68 510 31 l 575 206 q 474 125 538 160 q 336 92 411 90 q 233 125 274 93 q 175 209 192 157 q 167 319 158 261 m 322 81 l 168 -150 q 213 -132 189 -139 q 253 -126 238 -125 q 285 -132 271 -126 q 306 -149 299 -137 q 310 -175 313 -160 q 297 -203 308 -190 q 267 -224 285 -217 q 231 -232 250 -232 q 192 -222 207 -232 q 161 -199 178 -212 l 107 -251 q 160 -292 135 -278 q 224 -306 186 -306 q 297 -290 261 -306 q 357 -245 332 -274 q 386 -178 382 -217 q 366 -104 392 -132 q 303 -74 340 -76 q 299 -74 301 -74 q 293 -74 296 -74 l 406 81 l 322 81 z "},"ć":{"ha":644,"x_min":43,"x_max":661,"o":"m 167 319 q 214 434 178 382 q 304 517 250 486 q 422 549 358 549 q 543 517 492 549 q 615 432 594 485 l 638 571 q 547 632 601 611 q 432 653 493 653 q 258 608 338 653 q 124 488 178 563 q 57 319 71 413 q 73 156 43 232 q 167 34 103 81 q 325 -12 232 -12 q 450 9 390 -12 q 553 68 510 31 l 575 206 q 474 125 538 160 q 336 92 411 90 q 233 125 274 93 q 175 209 192 157 q 167 319 158 261 m 661 942 l 565 1000 l 328 781 l 385 738 l 661 942 z "},"ĉ":{"ha":644,"x_min":43,"x_max":676,"o":"m 167 319 q 214 434 178 382 q 304 517 250 486 q 422 549 358 549 q 543 517 492 549 q 615 432 594 485 l 638 571 q 547 632 601 611 q 432 653 493 653 q 258 608 338 653 q 124 488 178 563 q 57 319 71 413 q 73 156 43 232 q 167 34 103 81 q 325 -12 232 -12 q 450 9 390 -12 q 553 68 510 31 l 575 206 q 474 125 538 160 q 336 92 411 90 q 233 125 274 93 q 175 209 192 157 q 167 319 158 261 m 476 868 l 601 738 l 676 790 l 489 986 l 242 794 l 304 738 l 476 868 z "},"ċ":{"ha":644,"x_min":43,"x_max":638,"o":"m 167 319 q 214 434 178 382 q 304 517 250 486 q 422 549 358 549 q 543 517 492 549 q 615 432 594 485 l 638 571 q 547 632 601 611 q 432 653 493 653 q 258 608 338 653 q 124 488 178 563 q 57 319 71 413 q 73 156 43 232 q 167 34 103 81 q 325 -12 232 -12 q 450 9 390 -12 q 553 68 510 31 l 575 206 q 474 125 538 160 q 336 92 411 90 q 233 125 274 93 q 175 209 192 157 q 167 319 158 261 m 388 814 q 403 762 385 785 q 451 738 421 739 q 507 760 479 736 q 538 811 535 783 q 522 864 540 840 q 474 889 504 888 q 418 866 446 890 q 388 814 390 842 z "},"č":{"ha":644,"x_min":43,"x_max":700,"o":"m 167 319 q 214 434 178 382 q 304 517 250 486 q 422 549 358 549 q 543 517 492 549 q 615 432 594 485 l 638 571 q 547 632 601 611 q 432 653 493 653 q 258 608 338 653 q 124 488 178 563 q 57 319 71 413 q 73 156 43 232 q 167 34 103 81 q 325 -12 232 -12 q 450 9 390 -12 q 553 68 510 31 l 575 206 q 474 125 538 160 q 336 92 411 90 q 233 125 274 93 q 175 209 192 157 q 167 319 158 261 m 467 856 l 340 986 l 265 932 l 453 736 l 700 929 l 638 986 l 467 856 z "},"d":{"ha":768,"x_min":50,"x_max":824,"o":"m 711 1083 l 529 0 l 636 0 l 824 1083 l 711 1083 m 63 319 q 78 153 50 229 q 167 33 106 78 q 319 -12 229 -12 q 437 13 383 -12 q 531 85 490 39 q 597 191 571 131 q 633 319 624 251 q 634 444 642 385 q 601 550 626 503 q 533 625 576 597 q 425 653 489 653 q 258 610 335 654 q 128 490 181 565 q 63 319 76 414 m 174 319 q 222 438 185 385 q 313 520 258 490 q 428 549 367 550 q 501 528 469 547 q 553 478 532 510 q 582 406 574 446 q 583 319 590 365 q 552 231 575 272 q 496 158 529 189 q 423 109 463 126 q 342 92 383 92 q 240 123 281 92 q 182 206 199 154 q 174 319 165 258 z "},"ď":{"ha":768,"x_min":50,"x_max":1083,"o":"m 711 1083 l 529 0 l 636 0 l 824 1083 l 711 1083 m 63 319 q 78 153 50 229 q 167 33 106 78 q 319 -12 229 -12 q 437 13 383 -12 q 531 85 490 39 q 597 191 571 131 q 633 319 624 251 q 634 444 642 385 q 601 550 626 503 q 533 625 576 597 q 425 653 489 653 q 258 610 335 654 q 128 490 181 565 q 63 319 76 414 m 174 319 q 222 438 185 385 q 313 520 258 490 q 428 549 367 550 q 501 528 469 547 q 553 478 532 510 q 582 406 574 446 q 583 319 590 365 q 552 231 575 272 q 496 158 529 189 q 423 109 463 126 q 342 92 383 92 q 240 123 281 92 q 182 206 199 154 q 174 319 165 258 m 978 1082 l 799 725 l 876 696 l 1083 1039 l 978 1082 z "},"e":{"ha":694,"x_min":65,"x_max":681,"o":"m 331 -14 q 511 32 433 -14 q 639 149 589 78 l 551 206 q 463 123 517 156 q 344 90 410 90 q 249 115 286 90 q 193 183 211 139 q 175 285 175 228 q 192 388 175 339 q 242 475 210 438 q 317 534 274 513 q 414 556 361 556 q 499 536 465 556 q 549 481 532 517 q 567 396 567 446 q 561 358 567 376 q 549 322 556 339 l 592 386 l 133 386 l 133 292 l 665 292 q 676 328 671 303 q 681 374 681 353 q 649 527 681 465 q 559 621 617 589 q 421 653 501 653 q 280 622 344 653 q 167 540 215 592 q 92 420 119 488 q 65 278 65 353 q 99 121 65 186 q 192 21 132 56 q 331 -14 251 -14 z "},"è":{"ha":694,"x_min":51,"x_max":678,"o":"m 128 293 l 661 293 q 665 309 664 301 q 667 325 665 317 q 655 488 678 414 q 575 608 632 563 q 425 653 518 653 q 272 617 342 653 q 153 522 203 582 q 79 388 104 463 q 69 354 74 371 q 63 319 65 338 q 76 159 51 235 q 158 36 100 83 q 306 -12 217 -11 q 438 8 381 -12 q 540 65 494 28 q 625 147 586 101 l 543 206 q 484 149 517 175 q 413 107 451 122 q 329 92 375 92 q 228 124 265 93 q 178 206 190 154 q 174 319 165 258 l 185 361 q 230 460 197 417 q 310 531 263 504 q 415 556 358 557 q 501 533 469 556 q 545 472 532 510 q 557 386 558 433 l 143 386 l 128 293 m 290 960 l 503 750 l 568 790 l 400 1014 l 290 960 z "},"é":{"ha":694,"x_min":51,"x_max":697,"o":"m 128 293 l 661 293 q 665 309 664 301 q 667 325 665 317 q 655 488 678 414 q 575 608 632 563 q 425 653 518 653 q 272 617 342 653 q 153 522 203 582 q 79 388 104 463 q 69 354 74 371 q 63 319 65 338 q 76 159 51 235 q 158 36 100 83 q 306 -12 217 -11 q 438 8 381 -12 q 540 65 494 28 q 625 147 586 101 l 543 206 q 484 149 517 175 q 413 107 451 122 q 329 92 375 92 q 228 124 265 93 q 178 206 190 154 q 174 319 165 258 l 185 361 q 230 460 197 417 q 310 531 263 504 q 415 556 358 557 q 501 533 469 556 q 545 472 532 510 q 557 386 558 433 l 143 386 l 128 293 m 697 956 l 601 1014 l 364 794 l 421 751 l 697 956 z "},"ê":{"ha":694,"x_min":51,"x_max":678,"o":"m 128 293 l 661 293 q 665 309 664 301 q 667 325 665 317 q 655 488 678 414 q 575 608 632 563 q 425 653 518 653 q 272 617 342 653 q 153 522 203 582 q 79 388 104 463 q 69 354 74 371 q 63 319 65 338 q 76 159 51 235 q 158 36 100 83 q 306 -12 217 -11 q 438 8 381 -12 q 540 65 494 28 q 625 147 586 101 l 543 206 q 484 149 517 175 q 413 107 451 122 q 329 92 375 92 q 228 124 265 93 q 178 206 190 154 q 174 319 165 258 l 185 361 q 230 460 197 417 q 310 531 263 504 q 415 556 358 557 q 501 533 469 556 q 545 472 532 510 q 557 386 558 433 l 143 386 l 128 293 m 469 868 l 594 738 l 669 790 l 483 986 l 236 794 l 297 738 l 469 868 z "},"ë":{"ha":694,"x_min":51,"x_max":678,"o":"m 128 293 l 661 293 q 665 309 664 301 q 667 325 665 317 q 655 488 678 414 q 575 608 632 563 q 425 653 518 653 q 272 617 342 653 q 153 522 203 582 q 79 388 104 463 q 69 354 74 371 q 63 319 65 338 q 76 159 51 235 q 158 36 100 83 q 306 -12 217 -11 q 438 8 381 -12 q 540 65 494 28 q 625 147 586 101 l 543 206 q 484 149 517 175 q 413 107 451 122 q 329 92 375 92 q 228 124 265 93 q 178 206 190 154 q 174 319 165 258 l 185 361 q 230 460 197 417 q 310 531 263 504 q 415 556 358 557 q 501 533 469 556 q 545 472 532 510 q 557 386 558 433 l 143 386 l 128 293 m 515 814 q 531 762 513 785 q 579 738 550 739 q 635 760 608 736 q 665 811 663 783 q 650 864 668 840 q 601 889 632 888 q 546 866 574 890 q 515 814 518 842 m 246 814 q 261 762 243 785 q 310 738 279 739 q 365 760 338 736 q 396 811 393 783 q 381 864 399 840 q 332 889 363 888 q 276 866 304 890 q 246 814 249 842 z "},"ē":{"ha":694,"x_min":51,"x_max":699,"o":"m 128 293 l 661 293 q 665 309 664 301 q 667 325 665 317 q 655 488 678 414 q 575 608 632 563 q 425 653 518 653 q 272 617 342 653 q 153 522 203 582 q 79 388 104 463 q 69 354 74 371 q 63 319 65 338 q 76 159 51 235 q 158 36 100 83 q 306 -12 217 -11 q 438 8 381 -12 q 540 65 494 28 q 625 147 586 101 l 543 206 q 484 149 517 175 q 413 107 451 122 q 329 92 375 92 q 228 124 265 93 q 178 206 190 154 q 174 319 165 258 l 185 361 q 230 460 197 417 q 310 531 263 504 q 415 556 358 557 q 501 533 469 556 q 545 472 532 510 q 557 386 558 433 l 143 386 l 128 293 m 207 738 l 681 736 l 699 840 l 225 840 l 207 738 z "},"ĕ":{"ha":694,"x_min":51,"x_max":690,"o":"m 128 293 l 661 293 q 665 309 664 301 q 667 325 665 317 q 655 488 678 414 q 575 608 632 563 q 425 653 518 653 q 272 617 342 653 q 153 522 203 582 q 79 388 104 463 q 69 354 74 371 q 63 319 65 338 q 76 159 51 235 q 158 36 100 83 q 306 -12 217 -11 q 438 8 381 -12 q 540 65 494 28 q 625 147 586 101 l 543 206 q 484 149 517 175 q 413 107 451 122 q 329 92 375 92 q 228 124 265 93 q 178 206 190 154 q 174 319 165 258 l 185 361 q 230 460 197 417 q 310 531 263 504 q 415 556 358 557 q 501 533 469 556 q 545 472 532 510 q 557 386 558 433 l 143 386 l 128 293 m 263 931 q 277 836 258 881 q 338 765 296 792 q 446 738 379 738 q 563 765 514 738 q 645 835 613 792 q 690 929 678 879 l 592 931 q 566 884 582 908 q 524 844 550 860 q 454 828 497 828 q 392 844 414 828 q 364 884 371 860 q 358 931 357 908 l 263 931 z "},"ė":{"ha":694,"x_min":51,"x_max":678,"o":"m 128 293 l 661 293 q 665 309 664 301 q 667 325 665 317 q 655 488 678 414 q 575 608 632 563 q 425 653 518 653 q 272 617 342 653 q 153 522 203 582 q 79 388 104 463 q 69 354 74 371 q 63 319 65 338 q 76 159 51 235 q 158 36 100 83 q 306 -12 217 -11 q 438 8 381 -12 q 540 65 494 28 q 625 147 586 101 l 543 206 q 484 149 517 175 q 413 107 451 122 q 329 92 375 92 q 228 124 265 93 q 178 206 190 154 q 174 319 165 258 l 185 361 q 230 460 197 417 q 310 531 263 504 q 415 556 358 557 q 501 533 469 556 q 545 472 532 510 q 557 386 558 433 l 143 386 l 128 293 m 381 814 q 396 762 378 785 q 444 738 414 739 q 500 760 472 736 q 531 811 528 783 q 515 864 533 840 q 467 889 497 888 q 411 866 439 890 q 381 814 383 842 z "},"ę":{"ha":694,"x_min":51,"x_max":678,"o":"m 128 293 l 661 293 q 665 309 664 301 q 667 325 665 317 q 655 488 678 414 q 575 608 632 563 q 425 653 518 653 q 272 617 342 653 q 153 522 203 582 q 79 388 104 463 q 69 354 74 371 q 63 319 65 338 q 76 159 51 235 q 158 36 100 83 q 306 -12 217 -11 q 405 3 361 -12 q 485 44 449 19 q 555 97 521 69 q 625 147 589 125 l 543 206 q 484 149 517 175 q 413 107 451 122 q 329 92 375 92 q 228 124 265 93 q 178 206 190 154 q 174 319 165 258 l 185 361 q 230 460 197 417 q 310 531 263 504 q 415 556 358 557 q 501 533 469 556 q 545 472 532 510 q 557 386 558 433 l 143 386 l 128 293 m 556 -90 q 524 -109 542 -100 q 483 -117 507 -118 q 442 -97 454 -114 q 432 -56 429 -81 q 459 -1 438 -25 q 522 56 481 22 q 625 147 564 89 l 544 140 q 452 76 501 111 q 365 -1 403 40 q 319 -87 328 -42 q 353 -183 310 -151 q 458 -214 396 -215 q 533 -198 499 -214 q 590 -161 568 -182 l 556 -90 z "},"ě":{"ha":694,"x_min":51,"x_max":693,"o":"m 128 293 l 661 293 q 665 309 664 301 q 667 325 665 317 q 655 488 678 414 q 575 608 632 563 q 425 653 518 653 q 272 617 342 653 q 153 522 203 582 q 79 388 104 463 q 69 354 74 371 q 63 319 65 338 q 76 159 51 235 q 158 36 100 83 q 306 -12 217 -11 q 438 8 381 -12 q 540 65 494 28 q 625 147 586 101 l 543 206 q 484 149 517 175 q 413 107 451 122 q 329 92 375 92 q 228 124 265 93 q 178 206 190 154 q 174 319 165 258 l 185 361 q 230 460 197 417 q 310 531 263 504 q 415 556 358 557 q 501 533 469 556 q 545 472 532 510 q 557 386 558 433 l 143 386 l 128 293 m 460 856 l 333 986 l 260 932 l 446 736 l 693 929 l 631 986 l 460 856 z "},"f":{"ha":386,"x_min":75,"x_max":554,"o":"m 125 639 l 106 535 l 418 535 l 438 639 l 125 639 m 481 951 l 554 1040 q 508 1080 536 1064 q 440 1097 481 1096 q 335 1070 379 1099 q 263 991 290 1042 q 225 876 235 940 l 75 0 l 186 0 l 333 861 q 350 924 339 896 q 379 970 361 953 q 422 988 397 988 q 455 978 440 988 q 481 951 469 969 z "},"g":{"ha":768,"x_min":6,"x_max":747,"o":"m 14 -42 q 38 -185 6 -122 q 134 -283 69 -247 q 288 -318 199 -318 q 453 -276 379 -318 q 577 -158 528 -233 q 640 14 626 -83 l 747 639 l 638 639 l 529 14 q 484 -106 519 -54 q 397 -186 449 -158 q 289 -214 346 -214 q 192 -190 231 -214 q 138 -128 154 -167 q 124 -42 121 -89 l 14 -42 m 63 319 q 78 153 50 229 q 167 33 106 78 q 319 -12 229 -12 q 437 13 383 -12 q 531 85 490 39 q 597 191 571 131 q 633 319 624 251 q 634 444 642 385 q 601 550 626 503 q 533 625 576 597 q 425 653 489 653 q 258 610 335 654 q 128 490 181 565 q 63 319 76 414 m 174 319 q 222 438 185 385 q 313 520 258 490 q 428 549 367 550 q 501 528 469 547 q 553 478 532 510 q 582 406 574 446 q 583 319 590 365 q 552 231 575 272 q 496 158 529 189 q 423 109 463 126 q 342 92 383 92 q 240 123 281 92 q 182 206 199 154 q 174 319 165 258 z "},"ĝ":{"ha":768,"x_min":6,"x_max":747,"o":"m 14 -42 q 35 -185 6 -122 q 128 -283 65 -247 q 279 -318 190 -318 q 444 -276 368 -318 q 573 -158 521 -233 q 640 14 625 -83 l 747 639 l 638 639 l 529 14 q 483 -106 518 -54 q 397 -185 447 -157 q 289 -214 346 -214 q 192 -190 231 -214 q 138 -128 154 -167 q 124 -42 121 -89 l 14 -42 m 63 319 q 78 153 50 229 q 167 33 106 78 q 319 -12 229 -12 q 437 13 383 -12 q 531 85 490 39 q 597 191 571 131 q 633 319 624 251 q 634 444 642 385 q 601 550 626 503 q 533 625 576 597 q 425 653 489 653 q 258 610 335 654 q 128 490 181 565 q 63 319 76 414 m 174 319 q 222 438 185 385 q 313 520 258 490 q 428 549 367 550 q 501 528 469 547 q 553 478 532 510 q 582 406 574 446 q 583 319 590 365 q 552 231 575 272 q 496 158 529 189 q 423 109 463 126 q 342 92 383 92 q 240 123 281 92 q 182 206 199 154 q 174 319 165 258 m 469 868 l 594 738 l 669 790 l 483 986 l 236 794 l 297 738 l 469 868 z "},"ğ":{"ha":768,"x_min":6,"x_max":747,"o":"m 14 -42 q 35 -185 6 -122 q 128 -283 65 -247 q 279 -318 190 -318 q 444 -276 368 -318 q 573 -158 521 -233 q 640 14 625 -83 l 747 639 l 638 639 l 529 14 q 483 -106 518 -54 q 397 -185 447 -157 q 289 -214 346 -214 q 192 -190 231 -214 q 138 -128 154 -167 q 124 -42 121 -89 l 14 -42 m 63 319 q 78 153 50 229 q 167 33 106 78 q 319 -12 229 -12 q 437 13 383 -12 q 531 85 490 39 q 597 191 571 131 q 633 319 624 251 q 634 444 642 385 q 601 550 626 503 q 533 625 576 597 q 425 653 489 653 q 258 610 335 654 q 128 490 181 565 q 63 319 76 414 m 174 319 q 222 438 185 385 q 313 520 258 490 q 428 549 367 550 q 501 528 469 547 q 553 478 532 510 q 582 406 574 446 q 583 319 590 365 q 552 231 575 272 q 496 158 529 189 q 423 109 463 126 q 342 92 383 92 q 240 123 281 92 q 182 206 199 154 q 174 319 165 258 m 263 931 q 277 836 258 881 q 338 765 296 792 q 446 738 379 738 q 563 765 514 738 q 645 835 613 792 q 690 929 678 879 l 592 931 q 566 884 582 908 q 524 844 550 860 q 454 828 497 828 q 392 844 414 828 q 364 884 371 860 q 358 931 357 908 l 263 931 z "},"ġ":{"ha":768,"x_min":6,"x_max":747,"o":"m 14 -42 q 35 -185 6 -122 q 128 -283 65 -247 q 279 -318 190 -318 q 444 -276 368 -318 q 573 -158 521 -233 q 640 14 625 -83 l 747 639 l 638 639 l 529 14 q 483 -106 518 -54 q 397 -185 447 -157 q 289 -214 346 -214 q 192 -190 231 -214 q 138 -128 154 -167 q 124 -42 121 -89 l 14 -42 m 63 319 q 78 153 50 229 q 167 33 106 78 q 319 -12 229 -12 q 437 13 383 -12 q 531 85 490 39 q 597 191 571 131 q 633 319 624 251 q 634 444 642 385 q 601 550 626 503 q 533 625 576 597 q 425 653 489 653 q 258 610 335 654 q 128 490 181 565 q 63 319 76 414 m 174 319 q 222 438 185 385 q 313 520 258 490 q 428 549 367 550 q 501 528 469 547 q 553 478 532 510 q 582 406 574 446 q 583 319 590 365 q 552 231 575 272 q 496 158 529 189 q 423 109 463 126 q 342 92 383 92 q 240 123 281 92 q 182 206 199 154 q 174 319 165 258 m 418 869 q 433 817 415 840 q 481 793 451 794 q 537 815 510 792 q 567 867 564 839 q 551 919 569 896 q 504 944 533 943 q 448 922 475 946 q 418 869 421 897 z "},"ģ":{"ha":768,"x_min":6,"x_max":749,"o":"m 13 -42 q 36 -185 6 -122 q 129 -283 67 -247 q 281 -318 192 -318 q 446 -276 369 -318 q 574 -158 522 -233 q 642 14 626 -83 l 749 639 l 636 639 l 529 14 q 482 -106 518 -54 q 394 -185 446 -157 q 286 -214 343 -214 q 191 -189 229 -212 q 136 -126 153 -165 q 122 -42 119 -87 l 13 -42 m 63 319 q 78 153 50 229 q 169 33 107 78 q 321 -12 232 -12 q 438 13 385 -12 q 532 85 492 39 q 599 191 572 131 q 633 319 625 251 q 634 444 642 385 q 601 551 626 504 q 531 625 575 597 q 422 653 488 653 q 255 610 332 654 q 127 490 178 565 q 63 319 76 414 m 175 319 q 223 438 186 385 q 314 520 260 490 q 431 549 368 550 q 502 528 471 547 q 553 478 533 510 q 581 405 574 446 q 582 319 589 364 q 551 231 574 272 q 494 158 528 189 q 422 109 461 126 q 340 92 382 92 q 239 123 279 92 q 182 206 199 154 q 175 319 165 258 m 478 758 l 701 1092 l 631 1135 l 379 821 l 478 758 z "},"h":{"ha":707,"x_min":63,"x_max":647,"o":"m 358 1083 l 249 1083 l 63 0 l 172 0 l 358 1083 m 528 389 l 461 0 l 569 0 l 639 403 q 632 530 647 474 q 575 619 617 586 q 464 653 533 653 q 340 616 394 653 q 250 519 285 579 q 201 390 215 460 l 239 390 q 276 469 250 433 q 340 528 301 506 q 426 549 378 550 q 496 526 472 547 q 526 469 519 504 q 528 389 533 433 z "},"ĥ":{"ha":707,"x_min":63,"x_max":647,"o":"m 358 1083 l 249 1083 l 63 0 l 172 0 l 358 1083 m 528 389 l 461 0 l 569 0 l 639 403 q 632 530 647 474 q 575 619 617 586 q 464 653 533 653 q 336 616 393 653 q 241 519 279 579 q 189 390 203 460 l 239 390 q 276 469 250 433 q 340 528 301 506 q 426 549 378 550 q 496 526 472 547 q 526 469 519 504 q 528 389 533 433 m 353 1299 l 478 1168 l 553 1221 l 367 1417 l 119 1225 l 181 1168 l 353 1299 z "},"i":{"ha":350,"x_min":85,"x_max":368,"o":"m 217 903 q 239 850 217 872 q 292 828 261 828 q 346 850 324 828 q 368 903 368 872 q 346 957 368 935 q 292 979 324 979 q 239 957 261 979 q 217 903 217 935 m 190 639 l 85 0 l 194 0 l 303 639 l 190 639 z "},"ì":{"ha":350,"x_min":85,"x_max":364,"o":"m 190 639 l 85 0 l 192 0 l 303 639 l 190 639 m 88 974 l 299 764 l 364 804 l 197 1028 l 88 974 z "},"í":{"ha":350,"x_min":85,"x_max":521,"o":"m 190 639 l 85 0 l 192 0 l 303 639 l 190 639 m 521 969 l 425 1028 l 186 808 l 244 765 l 521 969 z "},"î":{"ha":350,"x_min":58,"x_max":492,"o":"m 190 639 l 85 0 l 192 0 l 303 639 l 190 639 m 292 882 l 418 751 l 492 804 l 306 1000 l 58 808 l 119 751 l 292 882 z "},"ï":{"ha":350,"x_min":71,"x_max":496,"o":"m 190 639 l 85 0 l 192 0 l 303 639 l 190 639 m 343 856 q 359 803 340 826 q 407 779 378 781 q 463 801 436 778 q 493 853 490 825 q 478 906 496 882 q 429 931 460 929 q 374 908 401 932 q 343 856 346 883 m 74 856 q 90 803 71 826 q 138 779 108 781 q 194 801 167 778 q 224 853 221 825 q 208 906 226 882 q 160 931 190 929 q 104 908 132 932 q 74 856 76 883 z "},"ĩ":{"ha":350,"x_min":49,"x_max":506,"o":"m 190 639 l 85 0 l 192 0 l 303 639 l 190 639 m 49 790 l 115 738 q 142 781 124 757 q 196 807 160 806 q 247 792 225 808 q 292 760 269 776 q 347 743 315 744 q 412 757 382 742 q 466 795 442 772 q 506 842 490 818 l 450 903 q 408 858 431 876 q 363 838 386 839 q 309 852 331 836 q 265 885 288 868 q 206 901 242 901 q 142 887 172 903 q 87 845 111 871 q 49 790 63 819 z "},"ī":{"ha":350,"x_min":28,"x_max":519,"o":"m 190 639 l 85 0 l 192 0 l 303 639 l 190 639 m 28 738 l 501 736 l 519 840 l 46 840 l 28 738 z "},"ĭ":{"ha":350,"x_min":79,"x_max":510,"o":"m 190 639 l 85 0 l 192 0 l 303 639 l 190 639 m 82 931 q 97 836 79 881 q 158 765 115 792 q 267 738 200 738 q 384 765 335 738 q 465 835 433 792 q 510 929 497 879 l 413 931 q 387 884 403 908 q 344 844 371 860 q 275 828 317 828 q 213 844 235 828 q 185 884 192 860 q 178 931 178 908 l 82 931 z "},"į":{"ha":350,"x_min":-81,"x_max":369,"o":"m 217 904 q 233 852 214 875 q 281 828 251 829 q 337 850 310 826 q 367 901 364 874 q 351 954 369 931 q 303 979 333 978 q 247 956 275 981 q 217 904 219 932 m 190 639 l 85 0 l 192 0 l 303 639 l 190 639 m 167 -181 q 134 -199 151 -190 q 93 -207 117 -208 q 53 -187 65 -204 q 43 -139 40 -169 q 72 -83 49 -108 q 128 -36 94 -57 q 193 0 161 -15 l 140 35 q 49 -17 94 13 q -30 -83 3 -46 q -71 -165 -62 -119 q -40 -267 -81 -229 q 75 -304 0 -306 q 147 -288 115 -304 q 201 -251 179 -272 l 167 -181 z "},"j":{"ha":338,"x_min":-162,"x_max":350,"o":"m 200 903 q 222 850 200 872 q 275 828 244 828 q 328 850 307 828 q 350 903 350 872 q 328 956 350 935 q 275 978 307 978 q 222 956 244 978 q 200 903 200 935 m -90 -158 l -162 -247 q -110 -289 -140 -274 q -42 -304 -81 -304 q 63 -276 19 -306 q 131 -195 106 -246 q 167 -83 157 -144 l 289 639 l 179 639 l 57 -69 q 43 -131 54 -101 q 14 -178 32 -160 q -31 -194 -4 -196 q -65 -184 -49 -194 q -90 -158 -81 -174 z "},"ĵ":{"ha":338,"x_min":-162,"x_max":476,"o":"m -90 -158 l -162 -247 q -116 -287 -143 -269 q -50 -304 -89 -304 q 56 -277 11 -306 q 129 -198 101 -249 q 167 -83 157 -147 l 289 639 l 179 639 l 57 -69 q 42 -131 53 -103 q 13 -177 31 -160 q -31 -194 -6 -194 q -63 -185 -49 -194 q -90 -158 -78 -176 m 276 868 l 401 738 l 476 790 l 290 986 l 43 794 l 104 738 l 276 868 z "},"k":{"ha":593,"x_min":57,"x_max":642,"o":"m 240 1083 l 57 0 l 165 0 l 353 1083 l 240 1083 m 500 639 l 189 379 l 422 0 l 554 0 l 319 367 l 642 639 l 500 639 z "},"ķ":{"ha":593,"x_min":57,"x_max":642,"o":"m 240 1083 l 57 0 l 165 0 l 353 1083 l 240 1083 m 500 639 l 189 379 l 422 0 l 554 0 l 322 372 l 642 639 l 500 639 m 294 -85 l 117 -442 l 193 -471 l 401 -128 l 294 -85 z "},"l":{"ha":310,"x_min":64,"x_max":358,"o":"m 247 1083 l 64 0 l 171 0 l 358 1083 l 247 1083 z "},"ĺ":{"ha":310,"x_min":64,"x_max":529,"o":"m 247 1083 l 64 0 l 171 0 l 358 1083 l 247 1083 m 529 1372 l 433 1431 l 194 1211 l 253 1168 l 529 1372 z "},"ļ":{"ha":310,"x_min":-72,"x_max":358,"o":"m 247 1083 l 64 0 l 171 0 l 358 1083 l 247 1083 m 106 -85 l -72 -442 l 4 -471 l 213 -128 l 106 -85 z "},"ľ":{"ha":310,"x_min":64,"x_max":646,"o":"m 247 1083 l 64 0 l 171 0 l 358 1083 l 247 1083 m 540 1082 l 361 725 l 438 696 l 646 1039 l 540 1082 z "},"m":{"ha":1051,"x_min":61,"x_max":990,"o":"m 982 403 q 978 526 990 469 q 928 618 967 583 q 821 653 890 653 q 700 619 753 653 q 610 529 647 586 q 581 594 601 567 q 528 638 561 622 q 450 653 496 653 q 378 640 411 653 q 317 605 344 628 q 268 550 290 582 l 282 639 l 172 639 l 61 0 l 172 0 l 242 396 q 272 474 249 440 q 331 528 294 508 q 414 547 368 547 q 478 526 458 547 q 503 468 499 504 q 501 389 507 432 l 435 0 l 542 0 l 610 392 q 640 471 617 436 q 699 526 663 506 q 783 547 736 547 q 848 526 828 547 q 873 468 868 504 q 872 389 878 432 l 803 0 l 914 0 l 982 403 z "},"n":{"ha":707,"x_min":61,"x_max":649,"o":"m 528 389 l 461 0 l 569 0 l 639 403 q 633 526 649 469 q 576 618 617 583 q 464 653 535 653 q 351 624 400 653 q 267 543 303 596 l 282 639 l 172 639 l 61 0 l 172 0 l 242 394 q 274 474 249 439 q 340 528 300 508 q 426 549 379 549 q 496 526 472 549 q 526 468 519 504 q 528 389 533 432 z "},"ñ":{"ha":707,"x_min":61,"x_max":685,"o":"m 282 639 l 172 639 l 61 0 l 172 0 l 282 639 m 528 389 l 461 0 l 569 0 l 639 403 q 632 530 647 474 q 575 619 617 586 q 464 653 533 653 q 336 616 393 653 q 241 519 279 579 q 189 390 203 460 l 239 390 q 276 469 250 433 q 340 528 301 506 q 426 549 378 550 q 496 526 472 547 q 526 469 519 504 q 528 389 533 433 m 228 790 l 294 738 q 321 781 303 757 q 375 807 339 806 q 426 792 404 808 q 472 760 449 776 q 526 743 494 744 q 591 757 561 742 q 645 795 621 772 q 685 842 669 818 l 629 903 q 588 858 610 876 q 542 838 565 839 q 488 852 510 836 q 444 885 467 868 q 385 901 421 901 q 321 887 351 903 q 266 845 290 871 q 228 790 242 819 z "},"ń":{"ha":707,"x_min":61,"x_max":667,"o":"m 282 639 l 172 639 l 61 0 l 172 0 l 282 639 m 528 389 l 461 0 l 569 0 l 639 403 q 632 530 647 474 q 575 619 617 586 q 464 653 533 653 q 340 616 394 653 q 250 519 285 579 q 201 390 215 460 l 239 390 q 276 469 250 433 q 340 528 301 506 q 426 549 378 550 q 496 526 472 547 q 526 469 519 504 q 528 389 533 433 m 667 942 l 572 1000 l 335 781 l 390 738 l 667 942 z "},"ņ":{"ha":707,"x_min":61,"x_max":647,"o":"m 282 639 l 172 639 l 61 0 l 172 0 l 282 639 m 528 389 l 461 0 l 569 0 l 639 403 q 632 530 647 474 q 575 619 617 586 q 464 653 533 653 q 336 616 393 653 q 241 519 279 579 q 189 390 203 460 l 239 390 q 276 469 250 433 q 340 528 301 506 q 426 549 378 550 q 496 526 472 547 q 526 469 519 504 q 528 389 533 433 m 304 -85 l 125 -442 l 203 -471 l 410 -128 l 304 -85 z "},"ň":{"ha":707,"x_min":61,"x_max":692,"o":"m 282 639 l 172 639 l 61 0 l 172 0 l 282 639 m 528 389 l 461 0 l 569 0 l 639 403 q 632 530 647 474 q 575 619 617 586 q 464 653 533 653 q 336 616 393 653 q 241 519 279 579 q 189 390 203 460 l 239 390 q 276 469 250 433 q 340 528 301 506 q 426 549 378 550 q 496 526 472 547 q 526 469 519 504 q 528 389 533 433 m 458 856 l 332 986 l 258 932 l 444 736 l 692 929 l 631 986 l 458 856 z "},"o":{"ha":736,"x_min":61,"x_max":728,"o":"m 72 319 q 92 155 61 231 q 188 33 122 79 q 346 -12 254 -12 q 519 33 440 -12 q 651 153 599 78 q 715 319 703 228 q 697 484 728 408 q 600 606 665 560 q 442 653 535 653 q 269 608 349 653 q 137 488 189 563 q 72 319 85 413 m 182 319 q 227 434 192 382 q 316 517 263 486 q 432 549 369 549 q 536 515 494 549 q 596 431 578 482 q 606 319 614 379 q 560 206 596 258 q 472 122 525 153 q 354 92 418 92 q 251 124 292 92 q 192 209 210 157 q 182 319 174 261 z "},"ò":{"ha":736,"x_min":50,"x_max":721,"o":"m 63 319 q 80 156 50 232 q 174 34 110 81 q 332 -12 239 -12 q 506 33 426 -12 q 640 153 586 78 q 707 319 693 228 q 691 484 721 408 q 596 606 661 560 q 438 653 531 653 q 264 608 344 653 q 130 487 183 563 q 63 319 76 411 m 174 319 q 221 434 185 382 q 311 517 257 486 q 428 549 365 549 q 532 515 492 549 q 589 431 572 482 q 596 319 606 379 q 550 206 586 258 q 460 122 514 153 q 342 92 406 92 q 239 124 279 92 q 182 209 199 157 q 174 319 165 261 m 279 974 l 492 764 l 557 804 l 389 1028 l 279 974 z "},"ó":{"ha":736,"x_min":50,"x_max":721,"o":"m 63 319 q 80 156 50 232 q 174 34 110 81 q 332 -12 239 -12 q 506 33 426 -12 q 640 153 586 78 q 707 319 693 228 q 691 484 721 408 q 596 606 661 560 q 438 653 531 653 q 264 608 344 653 q 130 487 183 563 q 63 319 76 411 m 174 319 q 221 434 185 382 q 311 517 257 486 q 428 549 365 549 q 532 515 492 549 q 589 431 572 482 q 596 319 606 379 q 550 206 586 258 q 460 122 514 153 q 342 92 406 92 q 239 124 279 92 q 182 209 199 157 q 174 319 165 261 m 713 969 l 618 1028 l 379 808 l 438 765 l 713 969 z "},"ô":{"ha":736,"x_min":50,"x_max":721,"o":"m 63 319 q 80 156 50 232 q 174 34 110 81 q 332 -12 239 -12 q 506 33 426 -12 q 640 153 586 78 q 707 319 693 228 q 691 484 721 408 q 596 606 661 560 q 438 653 531 653 q 264 608 344 653 q 130 487 183 563 q 63 319 76 411 m 174 319 q 221 434 185 382 q 311 517 257 486 q 428 549 365 549 q 532 515 492 549 q 589 431 572 482 q 596 319 606 379 q 550 206 586 258 q 460 122 514 153 q 342 92 406 92 q 239 124 279 92 q 182 209 199 157 q 174 319 165 261 m 488 896 l 613 765 l 688 818 l 501 1014 l 254 822 l 315 765 l 488 896 z "},"õ":{"ha":736,"x_min":50,"x_max":721,"o":"m 63 319 q 80 156 50 232 q 174 34 110 81 q 332 -12 239 -12 q 506 33 426 -12 q 640 153 586 78 q 707 319 693 228 q 691 484 721 408 q 596 606 661 560 q 438 653 531 653 q 264 608 344 653 q 130 487 183 563 q 63 319 76 411 m 174 319 q 221 434 185 382 q 311 517 257 486 q 428 549 365 549 q 532 515 492 549 q 589 431 572 482 q 596 319 606 379 q 550 206 586 258 q 460 122 514 153 q 342 92 406 92 q 239 124 279 92 q 182 209 199 157 q 174 319 165 261 m 242 790 l 307 738 q 334 781 317 757 q 389 807 351 806 q 440 792 418 808 q 485 760 463 776 q 540 743 508 744 q 605 757 575 742 q 659 795 635 772 q 699 842 683 818 l 643 903 q 601 858 622 876 q 554 838 579 839 q 501 852 522 836 q 457 885 479 868 q 399 901 435 901 q 336 886 374 901 q 270 846 299 871 q 242 790 242 821 z "},"ö":{"ha":736,"x_min":50,"x_max":721,"o":"m 63 319 q 80 156 50 232 q 174 34 110 81 q 332 -12 239 -12 q 506 33 426 -12 q 640 153 586 78 q 707 319 693 228 q 691 484 721 408 q 596 606 661 560 q 438 653 531 653 q 264 608 344 653 q 130 487 183 563 q 63 319 76 411 m 174 319 q 221 434 185 382 q 311 517 257 486 q 428 549 365 549 q 532 515 492 549 q 589 431 572 482 q 596 319 606 379 q 550 206 586 258 q 460 122 514 153 q 342 92 406 92 q 239 124 279 92 q 182 209 199 157 q 174 319 165 261 m 536 856 q 551 803 533 826 q 600 779 569 781 q 656 801 628 778 q 686 853 683 825 q 671 906 689 882 q 622 931 653 929 q 567 908 594 932 q 536 856 539 883 m 267 856 q 282 803 264 826 q 331 779 300 781 q 386 801 358 778 q 417 853 414 825 q 401 906 419 882 q 353 931 383 929 q 297 908 325 932 q 267 856 269 883 z "},"ō":{"ha":736,"x_min":50,"x_max":721,"o":"m 63 319 q 80 156 50 232 q 174 34 110 81 q 332 -12 239 -12 q 506 33 426 -12 q 640 153 586 78 q 707 319 693 228 q 691 484 721 408 q 596 606 661 560 q 438 653 531 653 q 264 608 344 653 q 130 487 183 563 q 63 319 76 411 m 174 319 q 221 434 185 382 q 311 517 257 486 q 428 549 365 549 q 532 515 492 549 q 589 431 572 482 q 596 319 606 379 q 550 206 586 258 q 460 122 514 153 q 342 92 406 92 q 239 124 279 92 q 182 209 199 157 q 174 319 165 261 m 221 738 l 694 736 l 713 840 l 238 840 l 221 738 z "},"ŏ":{"ha":736,"x_min":50,"x_max":721,"o":"m 63 319 q 80 156 50 232 q 174 34 110 81 q 332 -12 239 -12 q 506 33 426 -12 q 640 153 586 78 q 707 319 693 228 q 691 484 721 408 q 596 606 661 560 q 438 653 531 653 q 264 608 344 653 q 130 487 183 563 q 63 319 76 411 m 174 319 q 221 434 185 382 q 311 517 257 486 q 428 549 365 549 q 532 515 492 549 q 589 431 572 482 q 596 319 606 379 q 550 206 586 258 q 460 122 514 153 q 342 92 406 92 q 239 124 279 92 q 182 209 199 157 q 174 319 165 261 m 275 931 q 290 836 272 881 q 351 765 308 792 q 460 738 393 738 q 577 765 528 738 q 658 835 626 792 q 703 929 690 879 l 606 931 q 580 884 596 908 q 537 844 564 860 q 468 828 510 828 q 406 844 428 828 q 378 884 385 860 q 371 931 371 908 l 275 931 z "},"ő":{"ha":736,"x_min":61,"x_max":793,"o":"m 342 736 l 563 1001 l 444 1032 l 265 763 l 342 736 m 569 736 l 793 1001 l 672 1032 l 494 763 l 569 736 m 72 319 q 92 155 61 231 q 188 33 122 79 q 346 -12 254 -12 q 519 33 440 -12 q 651 153 599 78 q 715 319 703 228 q 697 484 728 408 q 600 606 665 560 q 442 653 535 653 q 269 608 349 653 q 137 488 189 563 q 72 319 85 413 m 182 319 q 227 434 192 382 q 316 517 263 486 q 432 549 369 549 q 536 515 494 549 q 596 431 578 482 q 606 319 614 379 q 560 206 596 258 q 472 122 525 153 q 354 92 418 92 q 251 124 292 92 q 192 209 210 157 q 182 319 174 261 z "},"p":{"ha":768,"x_min":3,"x_max":751,"o":"m 115 -304 l 274 639 l 167 639 l 3 -306 l 115 -304 m 739 319 q 724 485 751 410 q 635 607 697 561 q 483 653 574 653 q 366 626 419 653 q 272 554 313 600 q 206 448 232 508 q 169 319 179 388 q 169 196 161 256 q 201 89 176 136 q 270 14 226 42 q 378 -14 314 -14 q 545 30 468 -14 q 674 150 622 74 q 739 319 726 226 m 629 319 q 582 202 619 254 q 491 120 544 150 q 375 92 438 90 q 302 111 333 93 q 250 161 271 129 q 222 233 229 193 q 219 319 214 274 q 251 410 228 368 q 307 483 274 451 q 380 531 340 514 q 461 549 419 549 q 563 517 522 549 q 622 434 604 486 q 629 319 639 382 z "},"q":{"ha":768,"x_min":50,"x_max":747,"o":"m 475 -306 l 585 -306 l 747 639 l 638 639 l 475 -306 m 63 319 q 78 153 50 229 q 167 33 106 78 q 319 -12 229 -12 q 437 13 383 -12 q 531 85 490 39 q 597 191 571 131 q 633 319 624 251 q 634 444 642 385 q 601 550 626 503 q 533 625 576 597 q 425 653 489 653 q 258 610 335 654 q 128 490 181 565 q 63 319 76 414 m 174 319 q 222 438 185 385 q 313 520 258 490 q 428 549 367 550 q 501 528 469 547 q 553 478 532 510 q 582 406 574 446 q 583 319 590 365 q 552 231 575 272 q 496 158 529 189 q 423 109 463 126 q 342 92 383 92 q 240 123 281 92 q 182 206 199 154 q 174 319 165 258 z "},"r":{"ha":463,"x_min":61,"x_max":524,"o":"m 282 639 l 172 639 l 61 0 l 172 0 l 282 639 m 450 518 l 524 607 q 472 642 499 631 q 411 653 444 653 q 309 614 356 653 q 231 515 263 575 q 188 390 200 456 l 239 390 q 262 467 247 431 q 303 526 276 503 q 372 549 331 550 q 414 540 396 549 q 450 518 432 532 z "},"ŕ":{"ha":463,"x_min":61,"x_max":578,"o":"m 282 639 l 172 639 l 61 0 l 172 0 l 282 639 m 450 518 l 524 607 q 472 642 499 631 q 411 653 444 653 q 309 614 356 653 q 231 515 263 575 q 188 390 200 456 l 239 390 q 262 467 247 431 q 303 526 276 503 q 372 549 331 550 q 414 540 396 549 q 450 518 432 532 m 578 942 l 483 1000 l 246 781 l 301 738 l 578 942 z "},"ŗ":{"ha":463,"x_min":-72,"x_max":524,"o":"m 282 639 l 172 639 l 61 0 l 172 0 l 282 639 m 450 518 l 524 607 q 472 642 499 631 q 411 653 444 653 q 309 614 356 653 q 231 515 263 575 q 188 390 200 456 l 239 390 q 262 467 247 431 q 303 526 276 503 q 372 549 331 550 q 414 540 396 549 q 450 518 432 532 m 106 -85 l -72 -442 l 4 -471 l 213 -128 l 106 -85 z "},"ř":{"ha":463,"x_min":61,"x_max":615,"o":"m 282 639 l 172 639 l 61 0 l 172 0 l 282 639 m 450 518 l 524 607 q 472 642 499 631 q 411 653 444 653 q 309 614 356 653 q 231 515 263 575 q 188 390 200 456 l 239 390 q 262 467 247 431 q 303 526 276 503 q 372 549 331 550 q 414 540 396 549 q 450 518 432 532 m 382 856 l 257 986 l 182 932 l 368 736 l 615 929 l 554 986 l 382 856 z "},"ȓ":{"ha":463,"x_min":61,"x_max":585,"o":"m 282 639 l 172 639 l 61 0 l 172 0 l 282 639 m 450 518 l 524 607 q 472 642 499 631 q 411 653 444 653 q 309 614 356 653 q 231 515 263 575 q 188 390 200 456 l 239 390 q 262 467 247 431 q 303 526 276 503 q 372 549 331 550 q 414 540 396 549 q 450 518 432 532 m 153 736 q 201 831 168 786 q 285 903 235 875 q 404 931 336 932 q 511 903 471 931 q 568 831 551 875 q 578 736 585 786 l 490 736 q 483 784 492 760 q 453 824 475 808 q 389 840 431 840 q 321 824 347 840 q 279 783 294 807 q 254 738 264 760 l 153 736 z "},"s":{"ha":543,"x_min":43,"x_max":550,"o":"m 133 193 l 43 142 q 96 68 61 104 q 181 9 131 32 q 296 -14 232 -14 q 411 13 361 -14 q 490 86 461 40 q 518 188 518 132 q 494 280 518 244 q 429 339 469 315 q 342 383 389 363 q 285 411 311 397 q 244 444 260 425 q 229 488 229 463 q 255 539 229 519 q 324 558 281 558 q 405 534 368 558 q 468 474 442 510 l 550 529 q 464 617 521 582 q 331 653 407 653 q 231 633 279 653 q 153 574 183 614 q 122 474 122 535 q 147 387 122 421 q 210 331 172 353 q 283 296 247 310 q 342 267 313 283 q 390 229 371 251 q 410 175 410 207 q 381 112 410 138 q 304 86 351 86 q 233 101 265 86 q 177 140 201 115 q 133 193 153 164 z "},"ś":{"ha":543,"x_min":25,"x_max":642,"o":"m 122 224 l 25 172 q 61 77 32 119 q 137 11 90 35 q 240 -12 183 -12 q 361 8 306 -12 q 453 73 417 29 q 497 181 490 117 q 485 262 504 226 q 431 324 465 297 q 356 369 396 351 q 295 397 328 382 q 242 431 263 411 q 225 478 221 450 q 264 531 231 514 q 335 547 297 547 q 405 525 374 547 q 457 472 436 503 l 551 526 q 474 619 532 585 q 344 653 417 653 q 244 632 294 653 q 160 574 194 611 q 117 486 125 538 q 131 401 110 436 q 190 342 153 365 q 267 299 226 318 q 313 277 290 289 q 352 251 335 265 q 378 217 369 236 q 382 172 386 197 q 359 127 378 146 q 314 100 340 108 q 257 92 288 92 q 190 109 218 92 q 144 157 161 126 q 122 224 128 188 m 642 942 l 546 1000 l 307 781 l 365 738 l 642 942 z "},"ŝ":{"ha":543,"x_min":25,"x_max":588,"o":"m 122 224 l 25 172 q 61 77 32 119 q 137 11 90 35 q 240 -12 183 -12 q 361 8 306 -12 q 453 73 417 29 q 497 181 490 117 q 485 262 504 226 q 431 324 465 297 q 356 369 396 351 q 295 397 328 382 q 242 431 263 411 q 225 478 221 450 q 264 531 231 514 q 335 547 297 547 q 405 525 374 547 q 457 472 436 503 l 551 526 q 474 619 532 585 q 344 653 417 653 q 244 632 294 653 q 160 574 194 611 q 117 486 125 538 q 131 401 110 436 q 190 342 153 365 q 267 299 226 318 q 313 277 290 289 q 352 251 335 265 q 378 217 369 236 q 382 172 386 197 q 360 127 378 146 q 315 100 342 108 q 258 92 289 92 q 190 109 219 92 q 144 157 161 126 q 122 224 128 188 m 388 868 l 514 738 l 588 790 l 401 986 l 154 794 l 217 738 l 388 868 z "},"ş":{"ha":543,"x_min":25,"x_max":551,"o":"m 118 226 l 25 174 q 74 81 43 122 q 151 14 106 39 q 254 -11 197 -11 q 367 10 315 -11 q 454 76 419 32 q 497 182 489 119 q 486 268 504 232 q 433 331 468 304 q 356 376 399 358 q 295 402 328 389 q 240 435 263 415 q 224 486 218 456 q 265 538 231 522 q 335 553 299 553 q 406 528 374 551 q 457 474 438 506 l 551 528 q 470 619 524 585 q 344 654 417 654 q 243 635 293 654 q 159 577 193 615 q 117 483 125 539 q 130 394 110 429 q 188 337 150 360 q 267 294 225 314 q 326 265 297 282 q 372 226 356 249 q 382 171 389 204 q 360 128 378 146 q 318 101 343 110 q 265 93 293 93 q 204 113 232 94 q 155 162 176 132 q 118 226 133 192 m 276 82 l 125 -149 q 169 -131 146 -137 q 207 -125 192 -124 q 239 -131 225 -125 q 260 -147 253 -136 q 264 -174 267 -158 q 251 -202 263 -189 q 222 -223 239 -215 q 185 -231 204 -231 q 147 -221 163 -231 q 115 -197 132 -211 l 64 -250 q 116 -290 90 -276 q 178 -304 142 -304 q 251 -289 215 -304 q 313 -244 288 -274 q 343 -176 339 -215 q 322 -103 349 -131 q 257 -72 294 -75 q 253 -72 256 -72 q 249 -72 251 -72 l 364 82 l 276 82 z "},"š":{"ha":543,"x_min":25,"x_max":613,"o":"m 122 224 l 25 172 q 61 77 32 119 q 137 11 90 35 q 240 -12 183 -12 q 361 8 306 -12 q 453 73 417 29 q 497 181 490 117 q 485 262 504 226 q 431 324 465 297 q 356 369 396 351 q 295 397 328 382 q 242 431 263 411 q 225 478 221 450 q 264 531 231 514 q 335 547 297 547 q 405 525 374 547 q 457 472 436 503 l 551 526 q 474 619 532 585 q 344 653 417 653 q 244 632 294 653 q 160 574 194 611 q 117 486 125 538 q 131 401 110 436 q 190 342 153 365 q 267 299 226 318 q 313 277 290 289 q 352 251 335 265 q 378 217 369 236 q 382 172 386 197 q 360 127 378 146 q 315 100 342 108 q 258 92 289 92 q 190 109 219 92 q 144 157 161 126 q 122 224 128 188 m 378 856 l 253 986 l 178 932 l 364 736 l 613 929 l 550 986 l 378 856 z "},"ș":{"ha":543,"x_min":25,"x_max":551,"o":"m 122 224 l 25 172 q 61 77 32 119 q 137 11 90 35 q 240 -12 183 -12 q 361 8 306 -12 q 453 73 417 29 q 497 181 490 117 q 485 262 504 226 q 431 324 465 297 q 356 369 396 351 q 295 397 328 382 q 242 431 263 411 q 225 478 221 450 q 264 531 231 514 q 335 547 297 547 q 405 525 374 547 q 457 472 436 503 l 551 526 q 474 619 532 585 q 344 653 417 653 q 244 632 294 653 q 160 574 194 611 q 117 486 125 538 q 131 401 110 436 q 190 342 153 365 q 267 299 226 318 q 313 277 290 289 q 352 251 335 265 q 378 217 369 236 q 382 172 386 197 q 359 127 378 146 q 314 100 340 108 q 257 92 288 92 q 190 109 218 92 q 144 157 161 126 q 122 224 128 188 m 225 -99 l 46 -456 l 124 -485 l 331 -142 l 225 -99 z "},"t":{"ha":324,"x_min":61,"x_max":392,"o":"m 81 639 l 61 535 l 374 535 l 392 639 l 81 639 m 215 861 l 71 0 l 178 0 l 328 861 l 215 861 z "},"ţ":{"ha":324,"x_min":-129,"x_max":392,"o":"m 85 13 l -68 -218 q -24 -200 -47 -207 q 15 -194 0 -193 q 47 -200 33 -194 q 68 -217 61 -206 q 72 -243 75 -228 q 59 -272 71 -258 q 30 -292 47 -285 q -7 -300 13 -300 q -45 -290 -31 -300 q -76 -267 -60 -281 l -129 -319 q -77 -360 -103 -346 q -14 -374 -51 -374 q 60 -358 24 -374 q 121 -314 96 -343 q 150 -246 146 -285 q 129 -172 156 -200 q 65 -142 103 -144 q 61 -142 64 -142 q 56 -142 58 -142 l 169 13 l 85 13 m 81 639 l 61 535 l 374 535 l 392 639 l 81 639 m 215 861 l 71 0 l 178 0 l 328 861 l 215 861 z "},"ť":{"ha":472,"x_min":58,"x_max":656,"o":"m 78 639 l 58 535 l 371 535 l 390 639 l 78 639 m 215 861 l 71 0 l 178 0 l 328 861 l 215 861 m 550 1124 l 371 767 l 447 738 l 656 1081 l 550 1124 z "},"ț":{"ha":324,"x_min":-65,"x_max":392,"o":"m 81 639 l 61 535 l 374 535 l 392 639 l 81 639 m 215 861 l 71 0 l 178 0 l 328 861 l 215 861 m 114 -83 l -65 -440 l 13 -469 l 219 -126 l 114 -83 z "},"u":{"ha":707,"x_min":93,"x_max":681,"o":"m 214 250 l 281 639 l 174 639 l 103 236 q 108 114 93 171 q 166 22 124 57 q 278 -12 208 -12 q 391 17 342 -12 q 475 97 440 46 l 460 0 l 569 0 l 681 639 l 569 639 l 500 244 q 467 167 493 201 q 403 112 442 132 q 315 92 364 92 q 246 114 269 92 q 215 172 222 136 q 214 250 208 208 z "},"ù":{"ha":707,"x_min":94,"x_max":681,"o":"m 460 0 l 569 0 l 681 639 l 569 639 l 460 0 m 214 250 l 281 639 l 174 639 l 103 236 q 110 110 94 167 q 167 21 125 54 q 278 -12 208 -12 q 406 24 349 -12 q 502 121 464 61 q 554 249 540 181 l 503 249 q 466 171 492 207 q 402 113 440 135 q 315 92 364 90 q 246 115 269 93 q 216 172 222 136 q 214 250 210 207 m 319 974 l 531 764 l 597 804 l 429 1028 l 319 974 z "},"ú":{"ha":707,"x_min":94,"x_max":681,"o":"m 460 0 l 569 0 l 681 639 l 569 639 l 460 0 m 214 250 l 281 639 l 174 639 l 103 236 q 110 110 94 167 q 167 21 125 54 q 278 -12 208 -12 q 406 24 349 -12 q 502 121 464 61 q 554 249 540 181 l 503 249 q 466 171 492 207 q 402 113 440 135 q 315 92 364 90 q 246 115 269 93 q 216 172 222 136 q 214 250 210 207 m 644 969 l 550 1028 l 313 808 l 368 765 l 644 969 z "},"û":{"ha":707,"x_min":94,"x_max":681,"o":"m 460 0 l 569 0 l 681 639 l 569 639 l 460 0 m 214 250 l 281 639 l 174 639 l 103 236 q 110 110 94 167 q 167 21 125 54 q 278 -12 208 -12 q 406 24 349 -12 q 502 121 464 61 q 554 249 540 181 l 503 249 q 466 171 492 207 q 402 113 440 135 q 315 92 364 90 q 246 115 269 93 q 216 172 222 136 q 214 250 210 207 m 472 896 l 597 765 l 672 818 l 486 1014 l 239 822 l 300 765 l 472 896 z "},"ü":{"ha":707,"x_min":94,"x_max":681,"o":"m 460 0 l 569 0 l 681 639 l 569 639 l 460 0 m 214 250 l 281 639 l 174 639 l 103 236 q 110 110 94 167 q 167 21 125 54 q 278 -12 208 -12 q 406 24 349 -12 q 502 121 464 61 q 554 249 540 181 l 503 249 q 466 171 492 207 q 402 113 440 135 q 315 92 364 90 q 246 115 269 93 q 216 172 222 136 q 214 250 210 207 m 521 842 q 535 790 518 814 q 582 765 551 767 q 640 788 611 764 q 671 839 668 811 q 654 892 674 868 q 606 917 635 915 q 550 894 576 918 q 521 842 524 869 m 251 842 q 265 790 249 814 q 313 765 282 767 q 369 788 342 764 q 400 839 397 811 q 384 892 403 868 q 336 917 365 915 q 281 894 307 918 q 251 842 254 869 z "},"ũ":{"ha":707,"x_min":94,"x_max":683,"o":"m 458 0 l 571 0 l 681 639 l 569 639 l 458 0 m 214 250 l 281 639 l 172 639 l 103 236 q 110 110 94 167 q 169 20 126 53 q 281 -12 211 -12 q 403 24 350 -12 q 492 121 457 61 q 540 249 528 181 l 501 249 q 465 171 490 207 q 401 113 439 135 q 314 92 363 90 q 245 115 268 93 q 216 172 222 136 q 214 250 210 207 m 226 790 l 294 738 q 322 781 304 757 q 376 807 339 806 q 427 792 406 808 q 472 760 449 776 q 528 743 496 744 q 592 756 563 742 q 644 794 621 771 q 683 840 668 817 l 626 903 q 585 858 607 878 q 539 838 563 839 q 485 852 507 836 q 441 885 464 868 q 382 901 418 901 q 318 887 349 903 q 264 846 288 871 q 226 790 240 821 z "},"ū":{"ha":707,"x_min":94,"x_max":699,"o":"m 458 0 l 571 0 l 681 639 l 569 639 l 458 0 m 214 250 l 281 639 l 172 639 l 103 236 q 110 110 94 167 q 169 20 126 53 q 281 -12 211 -12 q 403 24 350 -12 q 492 121 457 61 q 540 249 528 181 l 501 249 q 465 171 490 207 q 401 113 439 135 q 314 92 363 90 q 245 115 268 93 q 216 172 222 136 q 214 250 210 207 m 207 738 l 682 738 l 699 840 l 224 840 l 207 738 z "},"ŭ":{"ha":707,"x_min":94,"x_max":689,"o":"m 458 0 l 571 0 l 681 639 l 569 639 l 458 0 m 214 250 l 281 639 l 172 639 l 103 236 q 110 110 94 167 q 169 20 126 53 q 281 -12 211 -12 q 403 24 350 -12 q 492 121 457 61 q 540 249 528 181 l 501 249 q 465 171 490 207 q 401 113 439 135 q 314 92 363 90 q 245 115 268 93 q 216 172 222 136 q 214 250 210 207 m 260 931 q 276 835 257 879 q 338 765 294 792 q 447 738 381 738 q 565 765 515 738 q 645 835 614 792 q 689 929 676 879 l 589 931 q 564 884 581 908 q 520 844 547 860 q 451 828 493 828 q 390 844 411 828 q 361 884 368 860 q 356 931 354 908 l 260 931 z "},"ů":{"ha":707,"x_min":94,"x_max":681,"o":"m 460 0 l 569 0 l 681 639 l 569 639 l 460 0 m 214 250 l 281 639 l 174 639 l 103 236 q 110 110 94 167 q 167 21 125 54 q 278 -12 208 -12 q 403 24 349 -12 q 492 121 457 61 q 540 249 528 181 l 503 249 q 466 171 492 207 q 402 113 440 135 q 315 92 364 90 q 246 115 269 93 q 216 172 222 136 q 214 250 210 207 m 326 876 q 336 808 322 839 q 379 757 350 776 q 444 738 408 738 q 516 756 482 738 q 574 805 550 774 q 604 874 599 836 q 595 944 610 913 q 552 994 581 975 q 486 1014 524 1014 q 415 995 450 1014 q 356 946 381 976 q 326 876 332 915 m 396 875 q 412 912 399 894 q 444 940 425 929 q 481 949 464 950 q 522 926 506 947 q 535 876 538 904 q 519 840 533 857 q 487 812 506 822 q 450 803 468 801 q 409 826 425 804 q 396 875 393 847 z "},"ű":{"ha":707,"x_min":93,"x_max":781,"o":"m 329 736 l 550 1001 l 432 1032 l 253 763 l 329 736 m 557 736 l 781 1001 l 660 1032 l 482 763 l 557 736 m 214 250 l 281 639 l 174 639 l 103 236 q 108 114 93 171 q 166 22 124 57 q 278 -12 208 -12 q 391 17 342 -12 q 475 97 440 46 l 460 0 l 569 0 l 681 639 l 569 639 l 500 244 q 467 167 493 201 q 403 112 442 132 q 315 92 364 92 q 246 114 269 92 q 215 172 222 136 q 214 250 208 208 z "},"ų":{"ha":707,"x_min":93,"x_max":681,"o":"m 547 -181 q 515 -199 532 -190 q 474 -207 497 -208 q 433 -187 446 -204 q 422 -139 419 -169 q 449 -83 426 -108 q 505 -36 472 -57 q 569 0 538 -15 l 517 35 q 426 -17 471 13 q 348 -83 381 -46 q 308 -165 315 -119 q 341 -267 300 -229 q 457 -304 382 -306 q 528 -287 497 -304 q 582 -251 560 -271 l 547 -181 m 214 250 l 281 639 l 174 639 l 103 236 q 108 114 93 171 q 166 22 124 57 q 278 -12 208 -12 q 391 17 342 -12 q 475 97 440 46 l 460 0 l 569 0 l 681 639 l 569 639 l 500 244 q 467 167 493 201 q 403 112 442 132 q 315 92 364 92 q 246 114 269 92 q 215 172 222 136 q 214 250 208 208 z "},"v":{"ha":593,"x_min":75,"x_max":671,"o":"m 75 639 l 265 -50 l 671 639 l 544 639 l 301 192 l 196 639 l 75 639 z "},"w":{"ha":917,"x_min":79,"x_max":985,"o":"m 79 639 l 231 -51 l 489 414 l 594 -51 l 985 639 l 858 639 l 631 225 l 532 690 l 282 228 l 200 639 l 79 639 z "},"ŵ":{"ha":917,"x_min":79,"x_max":986,"o":"m 79 639 l 231 -53 l 489 413 l 594 -53 l 986 639 l 857 639 l 631 226 l 532 692 l 282 229 l 200 639 l 79 639 m 574 901 l 699 771 l 772 825 l 585 1021 l 339 829 l 401 772 l 574 901 z "},"ẁ":{"ha":917,"x_min":79,"x_max":985,"o":"m 546 774 l 608 815 l 438 1038 l 332 982 l 546 774 m 79 639 l 231 -51 l 489 414 l 594 -51 l 985 639 l 858 639 l 631 225 l 532 690 l 282 228 l 200 639 l 79 639 z "},"ẃ":{"ha":917,"x_min":79,"x_max":985,"o":"m 546 774 l 832 982 l 722 1044 l 476 822 l 546 774 m 79 639 l 231 -51 l 489 414 l 594 -51 l 985 639 l 858 639 l 631 225 l 532 690 l 282 228 l 200 639 l 79 639 z "},"ẅ":{"ha":917,"x_min":79,"x_max":985,"o":"m 619 851 q 635 799 617 822 q 683 775 654 776 q 740 797 713 774 q 769 849 767 821 q 753 901 772 878 q 704 926 735 925 q 649 903 676 928 q 619 851 622 879 m 350 851 q 366 799 347 822 q 414 775 385 776 q 470 797 443 774 q 500 849 497 821 q 484 901 503 878 q 435 926 465 925 q 380 903 407 928 q 350 851 353 879 m 79 639 l 231 -51 l 489 414 l 594 -51 l 985 639 l 858 639 l 631 225 l 532 690 l 282 228 l 200 639 l 79 639 z "},"ẇ":{"ha":917,"x_min":79,"x_max":985,"o":"m 483 850 q 506 797 483 819 q 560 774 529 774 q 614 797 592 774 q 636 850 636 819 q 614 904 636 882 q 560 926 592 926 q 506 904 529 926 q 483 850 483 882 m 79 639 l 231 -51 l 489 414 l 594 -51 l 985 639 l 858 639 l 631 225 l 532 690 l 282 228 l 200 639 l 79 639 z "},"ẉ":{"ha":917,"x_min":79,"x_max":985,"o":"m 310 -211 q 333 -265 310 -242 q 386 -287 356 -287 q 440 -265 418 -287 q 463 -211 463 -242 q 440 -157 463 -179 q 386 -135 418 -135 q 333 -157 356 -135 q 310 -211 310 -179 m 79 639 l 231 -51 l 489 414 l 594 -51 l 985 639 l 858 639 l 631 225 l 532 690 l 282 228 l 200 639 l 79 639 z "},"x":{"ha":567,"x_min":-28,"x_max":632,"o":"m 504 639 l 324 417 l 208 639 l 89 639 l 253 336 l -28 0 l 100 0 l 299 244 l 422 0 l 542 0 l 371 324 l 632 639 l 504 639 z "},"y":{"ha":593,"x_min":-25,"x_max":668,"o":"m 668 639 l 542 639 l 267 146 l 311 139 l 194 639 l 72 639 l 217 94 l -25 -304 l 101 -304 l 668 639 z "},"ý":{"ha":593,"x_min":-25,"x_max":668,"o":"m 668 639 l 542 639 l 267 146 l 311 139 l 200 639 l 72 639 l 217 94 l -25 -304 l 101 -304 l 668 639 m 601 969 l 506 1028 l 268 808 l 325 765 l 601 969 z "},"ÿ":{"ha":593,"x_min":-25,"x_max":668,"o":"m 668 639 l 542 639 l 267 146 l 311 139 l 200 639 l 72 639 l 217 94 l -25 -304 l 101 -304 l 668 639 m 458 814 q 474 762 456 785 q 521 738 492 739 q 577 760 550 736 q 607 811 604 783 q 592 864 610 840 q 544 889 574 888 q 488 866 515 890 q 458 814 461 842 m 189 814 q 204 762 186 785 q 251 738 222 739 q 308 760 281 736 q 338 811 335 783 q 322 864 340 840 q 275 889 304 888 q 219 866 246 890 q 189 814 192 842 z "},"ŷ":{"ha":593,"x_min":-28,"x_max":669,"o":"m 669 639 l 540 639 l 265 146 l 313 139 l 200 639 l 72 639 l 217 96 l -28 -304 l 103 -304 l 669 639 m 413 867 l 538 736 l 611 790 l 424 986 l 178 794 l 240 738 l 413 867 z "},"ỳ":{"ha":593,"x_min":-25,"x_max":668,"o":"m 360 736 l 422 778 l 251 1000 l 146 944 l 360 736 m 668 639 l 542 639 l 267 146 l 311 139 l 194 639 l 72 639 l 217 94 l -25 -304 l 101 -304 l 668 639 z "},"z":{"ha":619,"x_min":-21,"x_max":675,"o":"m 456 535 l -21 0 l 536 0 l 556 104 l 199 104 l 675 639 l 132 639 l 113 535 l 456 535 z "},"ź":{"ha":619,"x_min":-21,"x_max":675,"o":"m 456 535 l -21 0 l 536 0 l 556 104 l 199 106 l 675 639 l 132 639 l 113 535 l 456 535 m 675 969 l 581 1028 l 342 808 l 399 765 l 675 969 z "},"ż":{"ha":619,"x_min":-21,"x_max":675,"o":"m 456 535 l -21 0 l 536 0 l 556 104 l 199 106 l 675 639 l 132 639 l 113 535 l 456 535 m 364 856 q 379 803 361 826 q 428 779 397 781 q 483 801 456 778 q 514 853 511 825 q 499 906 517 882 q 450 931 481 929 q 394 908 422 932 q 364 856 367 883 z "},"ž":{"ha":619,"x_min":-21,"x_max":675,"o":"m 435 856 l 310 986 l 235 932 l 421 736 l 668 929 l 607 986 l 435 856 m 456 535 l -21 0 l 536 0 l 556 104 l 199 106 l 675 639 l 132 639 l 113 535 l 456 535 z "},"ß":{"ha":785,"x_min":65,"x_max":764,"o":"m 475 -17 q 612 19 551 -17 q 708 117 672 56 q 744 253 744 178 q 724 352 744 313 q 674 419 704 392 q 613 467 643 446 q 562 508 582 488 q 542 558 542 529 q 564 619 542 593 q 619 669 586 644 q 686 723 653 693 q 742 797 719 753 q 764 906 764 840 q 733 1013 764 969 q 650 1080 703 1057 q 529 1103 597 1103 q 366 1068 435 1103 q 256 975 297 1033 q 204 844 215 917 l 65 -3 l 178 -3 l 315 817 q 351 920 325 879 q 418 981 378 961 q 511 1001 458 1001 q 608 977 568 1001 q 647 896 647 953 q 624 816 647 850 q 567 753 601 782 q 499 697 533 725 q 442 635 465 668 q 419 558 419 601 q 440 478 419 511 q 492 422 461 446 q 555 372 524 397 q 607 316 586 347 q 628 238 628 285 q 609 163 628 197 q 558 109 590 129 q 483 89 525 89 q 407 109 443 89 q 339 161 371 129 l 271 78 q 327 28 296 50 q 395 -5 358 7 q 475 -17 432 -17 z "},"æ":{"ha":1113,"x_min":28,"x_max":1093,"o":"m 254 -14 q 426 31 358 -14 q 521 153 493 76 l 500 153 q 588 26 529 65 q 740 -14 647 -14 q 910 27 828 -14 q 1044 149 993 68 l 954 206 q 866 119 919 147 q 747 90 813 90 q 645 122 683 90 q 594 205 607 153 q 592 318 582 257 l 561 292 l 1078 292 q 1089 327 1085 307 q 1093 374 1093 347 q 1063 522 1093 460 q 977 619 1032 585 q 851 653 922 653 q 728 628 785 653 q 628 564 671 604 q 561 474 586 524 l 589 494 q 542 613 596 572 q 393 653 488 653 q 264 633 326 653 q 149 574 201 613 l 203 489 q 263 525 231 510 q 328 548 294 540 q 393 556 363 556 q 479 524 447 556 q 503 431 511 493 l 485 319 l 539 319 q 419 381 468 364 q 314 397 371 397 q 166 366 231 397 q 65 283 101 335 q 28 167 28 231 q 84 39 28 92 q 254 -14 140 -14 m 275 85 q 173 106 206 85 q 140 181 140 128 q 164 251 140 222 q 228 297 188 281 q 319 313 269 313 q 411 301 368 313 q 492 269 454 290 l 481 307 l 481 161 l 492 267 q 411 129 464 174 q 275 85 358 85 m 592 332 q 642 450 610 400 q 720 528 674 500 q 828 556 767 556 q 917 533 885 556 q 964 468 950 510 q 978 369 978 426 q 975 347 978 353 l 1008 386 l 561 386 l 592 332 z "},"ð":{"ha":800,"x_min":69,"x_max":731,"o":"m 365 -14 q 519 19 451 -14 q 633 109 586 53 q 706 236 681 165 q 731 382 731 307 q 718 494 731 438 q 678 608 706 550 q 608 730 651 667 q 504 862 565 793 q 363 1007 443 931 l 296 929 q 401 830 356 878 q 481 735 446 782 q 541 639 515 688 q 588 536 567 590 l 644 536 q 530 610 585 585 q 413 635 475 635 q 289 609 350 635 q 178 536 228 583 q 99 425 129 489 q 69 285 69 361 q 106 127 69 194 q 210 23 143 60 q 365 -14 276 -14 m 365 93 q 233 145 285 93 q 182 285 182 197 q 203 387 182 339 q 261 471 225 435 q 342 528 297 507 q 435 549 388 549 q 528 526 488 549 q 591 460 568 504 q 614 354 614 417 q 596 259 614 306 q 545 175 578 213 q 467 115 513 138 q 365 93 421 93 m 311 699 l 700 847 l 675 913 l 286 764 l 311 699 z "},"ø":{"ha":736,"x_min":24,"x_max":732,"o":"m 63 319 q 80 156 50 232 q 174 34 110 81 q 332 -12 239 -12 q 506 33 426 -12 q 640 153 586 78 q 707 319 693 228 q 691 484 721 408 q 596 606 661 560 q 438 653 531 653 q 264 608 344 653 q 130 487 183 563 q 63 319 76 411 m 174 319 q 221 434 185 382 q 311 517 257 486 q 428 549 365 549 q 532 515 492 549 q 589 431 572 482 q 596 319 606 379 q 550 206 586 258 q 460 122 514 153 q 342 92 406 92 q 239 124 279 92 q 182 209 199 157 q 174 319 165 261 m 672 693 l 24 -31 l 83 -60 l 732 665 l 672 693 z "},"þ":{"ha":768,"x_min":3,"x_max":751,"o":"m 115 -304 l 350 1083 l 242 1083 l 3 -306 l 115 -304 m 739 319 q 724 485 751 410 q 635 607 697 561 q 483 653 574 653 q 366 626 419 653 q 272 554 313 600 q 206 448 232 508 q 169 319 179 388 q 169 196 161 256 q 201 89 176 136 q 270 14 226 42 q 378 -14 314 -14 q 545 30 468 -14 q 674 150 622 74 q 739 319 726 226 m 629 319 q 582 202 619 254 q 491 120 544 150 q 375 92 438 90 q 302 111 333 93 q 250 161 271 129 q 222 233 229 193 q 219 319 214 274 q 251 410 228 368 q 307 483 274 451 q 380 531 340 514 q 461 549 419 549 q 563 517 522 549 q 622 434 604 486 q 629 319 639 382 z "},"đ":{"ha":768,"x_min":50,"x_max":925,"o":"m 500 821 l 907 819 l 925 924 l 518 924 l 500 821 m 711 1083 l 529 0 l 636 0 l 824 1083 l 711 1083 m 63 319 q 78 153 50 229 q 167 33 106 78 q 319 -12 229 -12 q 437 13 383 -12 q 531 85 490 39 q 597 191 571 131 q 633 319 624 251 q 634 444 642 385 q 601 550 626 503 q 533 625 576 597 q 425 653 489 653 q 258 610 335 654 q 128 490 181 565 q 63 319 76 414 m 174 319 q 222 438 185 385 q 313 520 258 490 q 428 549 367 550 q 501 528 469 547 q 553 478 532 510 q 582 406 574 446 q 583 319 590 365 q 552 231 575 272 q 496 158 529 189 q 423 109 463 126 q 342 92 383 92 q 240 123 281 92 q 182 206 199 154 q 174 319 165 258 z "},"ħ":{"ha":707,"x_min":61,"x_max":647,"o":"m 360 1083 l 247 1083 l 61 0 l 172 0 l 360 1083 m 528 389 l 463 0 l 569 0 l 639 403 q 631 530 647 474 q 574 619 615 586 q 463 653 532 653 q 339 615 393 653 q 250 519 285 578 q 201 392 215 460 l 240 390 q 277 469 251 433 q 342 527 303 506 q 429 547 381 549 q 498 525 475 547 q 527 467 521 503 q 528 389 533 432 m 118 869 l 542 869 l 558 972 l 135 972 l 118 869 z "},"ı":{"ha":350,"x_min":85,"x_max":303,"o":"m 190 639 l 85 0 l 192 0 l 303 639 l 190 639 z "},"ĳ":{"ha":688,"x_min":85,"x_max":707,"o":"m 554 904 q 569 852 551 875 q 618 828 588 829 q 674 850 646 826 q 704 901 701 874 q 689 954 707 931 q 640 979 671 978 q 585 956 613 981 q 554 904 557 932 m 260 -158 l 188 -247 q 234 -287 207 -269 q 300 -304 261 -304 q 406 -277 361 -306 q 479 -198 451 -249 q 517 -83 507 -147 l 640 639 l 529 639 l 407 -69 q 392 -132 404 -103 q 363 -178 381 -161 q 319 -194 344 -196 q 299 -189 310 -194 q 278 -175 289 -183 q 260 -158 268 -167 m 217 904 q 233 852 214 875 q 281 828 251 829 q 337 850 310 826 q 367 901 364 874 q 351 954 369 931 q 303 979 333 978 q 247 956 275 981 q 217 904 219 932 m 190 639 l 85 0 l 192 0 l 303 639 l 190 639 z "},"ĸ":{"ha":593,"x_min":57,"x_max":642,"o":"m 164 639 l 57 0 l 165 0 l 276 639 l 164 639 m 500 639 l 189 379 l 422 0 l 554 0 l 322 372 l 642 639 l 500 639 z "},"ŀ":{"ha":499,"x_min":64,"x_max":503,"o":"m 247 1083 l 64 0 l 171 0 l 358 1083 l 247 1083 m 350 578 q 356 541 349 558 q 379 513 364 524 q 414 501 394 503 q 452 510 433 500 q 485 539 471 521 q 500 575 499 557 q 494 612 503 594 q 472 640 486 629 q 436 653 457 651 q 399 643 418 654 q 366 615 379 632 q 350 578 353 597 z "},"ł":{"ha":310,"x_min":36,"x_max":424,"o":"m 51 474 l 424 679 l 408 757 l 36 550 l 51 474 m 247 1083 l 64 0 l 171 0 l 358 1083 l 247 1083 z "},"ŉ":{"ha":856,"x_min":168,"x_max":796,"o":"m 431 639 l 321 639 l 210 0 l 321 0 l 431 639 m 676 389 l 610 0 l 717 0 l 788 403 q 781 530 796 474 q 724 619 765 586 q 613 653 682 653 q 484 616 542 653 q 388 519 426 579 q 336 390 350 460 l 388 390 q 424 469 399 433 q 488 528 450 506 q 575 549 526 550 q 644 526 621 547 q 675 469 668 504 q 676 389 682 433 m 301 972 l 168 654 l 244 654 l 436 972 l 301 972 z "},"ŋ":{"ha":729,"x_min":42,"x_max":650,"o":"m 326 -306 q 474 -249 418 -306 q 549 -83 531 -193 l 631 403 q 603 588 650 522 q 453 653 557 653 q 338 623 393 653 q 243 539 283 593 l 260 639 l 149 639 l 42 0 l 153 0 l 218 389 q 253 472 226 436 q 320 528 281 508 q 407 549 360 549 q 503 508 475 549 q 517 389 531 468 l 440 -69 q 408 -164 431 -133 q 353 -194 386 -194 q 290 -158 307 -194 l 214 -250 q 259 -291 229 -276 q 326 -306 289 -306 z "},"œ":{"ha":1213,"x_min":50,"x_max":1196,"o":"m 1074 347 l 1068 321 l 1179 293 q 1183 309 1182 301 q 1185 325 1183 317 q 1172 485 1196 411 q 1094 606 1149 560 q 957 653 1040 653 q 806 619 875 654 q 686 523 736 583 q 613 388 636 463 q 603 354 607 371 q 596 319 599 338 q 609 159 585 235 q 691 36 633 83 q 838 -12 749 -11 q 959 8 904 -12 q 1060 66 1014 29 q 1144 147 1107 103 l 1063 206 q 969 124 1022 158 q 847 92 917 90 q 747 124 783 93 q 697 206 710 154 q 693 319 685 258 l 703 361 q 748 460 715 417 q 829 531 781 504 q 935 556 878 557 q 1028 524 996 554 q 1071 447 1061 494 q 1074 347 1081 400 m 661 293 l 1178 292 l 1165 386 l 675 386 l 661 293 m 63 319 q 78 153 50 229 q 167 33 106 78 q 319 -12 229 -12 q 478 32 410 -12 q 591 152 547 76 q 647 319 635 228 q 640 484 658 408 q 568 606 621 560 q 425 653 515 653 q 258 609 335 653 q 128 490 181 565 q 63 319 76 414 m 174 319 q 222 438 185 385 q 313 520 258 490 q 428 549 367 550 q 517 515 483 547 q 565 431 551 482 q 569 319 578 379 q 526 205 560 257 q 445 122 493 153 q 342 92 397 92 q 240 123 281 92 q 182 206 199 154 q 174 319 165 258 z "},"ŧ":{"ha":333,"x_min":38,"x_max":392,"o":"m 38 286 l 310 286 l 328 389 l 56 389 l 38 286 m 81 639 l 61 535 l 374 535 l 392 639 l 81 639 m 215 861 l 71 0 l 178 0 l 328 861 l 215 861 z "},"ȷ":{"ha":338,"x_min":-162,"x_max":289,"o":"m -90 -158 l -162 -247 q -116 -287 -143 -269 q -50 -304 -89 -304 q 56 -277 11 -306 q 129 -198 101 -249 q 167 -83 157 -147 l 289 639 l 179 639 l 57 -69 q 42 -131 53 -103 q 13 -177 31 -160 q -31 -194 -6 -194 q -63 -185 -49 -194 q -90 -158 -78 -176 z "},"μ":{"ha":729,"x_min":-11,"x_max":681,"o":"m 283 639 l 171 639 l -11 -443 l 96 -444 l 175 14 q 221 -6 194 1 q 278 -12 247 -12 q 387 14 338 -12 q 472 83 436 40 l 460 0 l 569 0 l 681 639 l 569 639 l 500 244 q 467 167 493 201 q 403 112 442 132 q 315 92 364 92 q 249 110 274 92 q 215 162 224 129 q 210 235 206 194 l 283 639 z "},"π":{"ha":728,"x_min":85,"x_max":747,"o":"m 183 597 l 85 0 l 192 0 l 296 597 l 183 597 m 111 639 l 93 535 l 729 535 l 747 639 l 111 639 m 522 597 l 449 168 q 449 85 443 118 q 474 31 456 51 q 525 1 493 11 q 600 -11 557 -8 l 618 99 q 581 113 594 104 q 563 141 567 122 q 563 196 558 160 l 633 597 l 522 597 z "},"а":{"ha":654,"x_min":25,"x_max":622,"o":"m 144 188 q 177 256 151 229 q 242 298 203 283 q 329 313 282 313 q 429 297 385 313 q 517 249 474 281 l 526 313 q 453 369 501 343 q 332 397 406 396 q 192 372 256 397 q 86 300 128 347 q 33 185 44 253 q 47 81 25 125 q 114 12 69 36 q 218 -12 158 -12 q 338 11 283 -12 q 429 78 392 35 q 481 179 467 121 l 471 250 q 428 160 458 197 q 353 104 397 124 q 254 86 310 85 q 171 113 204 88 q 144 188 138 139 m 197 489 q 283 533 233 510 q 394 554 333 556 q 456 542 429 554 q 498 510 483 531 q 507 458 513 489 l 425 0 l 536 0 l 614 458 q 609 540 622 504 q 567 601 596 576 q 496 640 538 626 q 404 653 454 653 q 266 628 328 653 q 157 576 204 604 l 197 489 z "},"б":{"ha":736,"x_min":75,"x_max":768,"o":"m 428 549 q 533 518 490 549 q 596 435 576 488 q 604 319 615 383 q 559 206 594 258 q 470 122 524 153 q 353 92 417 92 q 254 121 293 92 q 197 194 215 150 q 179 283 179 238 l 75 325 q 102 163 75 240 q 190 35 129 85 q 349 -14 250 -14 q 522 31 443 -14 q 652 152 600 76 q 717 319 704 228 q 698 487 729 411 q 601 608 667 563 q 444 653 536 653 l 428 549 m 131 321 l 179 283 q 201 395 179 346 q 260 478 224 444 q 341 531 297 513 q 428 549 385 549 l 444 653 q 326 628 379 653 q 234 558 274 603 q 169 453 194 514 q 131 321 143 392 m 75 325 l 172 288 l 172 410 q 194 535 172 472 q 254 656 215 599 q 346 756 293 713 q 461 821 399 799 q 653 923 571 861 q 768 1082 736 985 l 657 1083 q 574 985 628 1026 q 438 911 521 943 q 285 824 353 881 q 171 691 218 768 q 99 522 124 614 q 75 325 75 429 z "},"в":{"ha":611,"x_min":64,"x_max":597,"o":"m 182 333 l 174 276 l 357 275 q 402 269 382 275 q 435 251 422 263 q 454 224 449 240 q 457 189 460 208 q 410 122 450 147 q 318 97 371 97 l 142 97 l 126 0 l 339 1 q 493 49 433 1 q 564 174 553 97 q 544 269 572 235 q 467 319 517 304 q 358 333 417 333 l 182 333 m 179 307 l 350 307 q 457 325 406 308 q 544 376 508 342 q 588 465 579 411 q 572 563 597 525 q 499 620 546 601 q 397 639 453 639 l 233 639 l 219 543 l 389 542 q 438 531 417 542 q 469 503 458 521 q 476 460 481 485 q 453 413 472 433 q 408 382 435 393 q 351 371 382 371 l 189 371 l 179 307 m 169 639 l 64 0 l 172 0 l 285 639 l 169 639 z "},"г":{"ha":444,"x_min":71,"x_max":513,"o":"m 175 639 l 71 0 l 179 0 l 272 535 l 493 535 l 513 639 l 175 639 z "},"ѓ":{"ha":444,"x_min":71,"x_max":640,"o":"m 175 639 l 71 0 l 179 0 l 272 535 l 493 535 l 513 639 l 175 639 m 640 940 l 543 1000 l 306 782 l 365 738 l 640 940 z "},"д":{"ha":883,"x_min":-8,"x_max":806,"o":"m 482 447 l 593 42 l 710 42 l 518 692 l 100 43 l 229 43 l 482 447 m 681 0 l 657 -125 l 764 -125 l 806 104 l 33 104 l -8 -125 l 111 -125 l 133 0 l 681 0 z "},"е":{"ha":694,"x_min":63,"x_max":685,"o":"m 138 292 l 669 292 q 672 308 671 300 q 675 325 674 317 q 660 489 685 415 q 578 608 636 563 q 428 653 519 653 q 277 618 346 653 q 160 523 208 583 q 88 388 111 463 q 78 354 82 371 q 72 319 75 338 q 88 158 63 233 q 172 35 113 82 q 319 -12 231 -11 q 451 8 394 -12 q 553 65 508 28 q 638 147 599 101 l 553 207 q 494 149 526 175 q 425 107 463 122 q 342 92 388 92 q 240 123 278 92 q 188 206 201 154 q 182 319 174 258 l 192 361 q 235 460 203 417 q 315 531 268 504 q 419 556 363 557 q 506 533 474 556 q 553 472 539 510 q 564 386 567 433 l 151 386 l 138 292 z "},"ѐ":{"ha":694,"x_min":63,"x_max":685,"o":"m 138 292 l 669 292 q 672 308 671 300 q 675 325 674 317 q 660 489 685 415 q 578 608 636 563 q 428 653 519 653 q 277 618 346 653 q 160 523 208 583 q 88 388 111 463 q 78 354 82 371 q 72 319 75 338 q 88 158 63 233 q 172 35 113 82 q 319 -12 231 -11 q 451 8 394 -12 q 553 65 508 28 q 638 147 599 101 l 553 207 q 494 149 526 175 q 425 107 463 122 q 342 92 388 92 q 240 123 278 92 q 188 206 201 154 q 182 319 174 258 l 192 361 q 235 460 203 417 q 315 531 268 504 q 419 556 363 557 q 506 533 474 556 q 553 472 539 510 q 564 386 567 433 l 151 386 l 138 292 m 247 944 l 461 736 l 526 775 l 356 999 l 247 944 z "},"ё":{"ha":694,"x_min":63,"x_max":685,"o":"m 138 292 l 669 292 q 672 308 671 300 q 675 325 674 317 q 660 489 685 415 q 578 608 636 563 q 428 653 519 653 q 277 618 346 653 q 160 523 208 583 q 88 388 111 463 q 78 354 82 371 q 72 319 75 338 q 88 158 63 233 q 172 35 113 82 q 319 -12 231 -11 q 451 8 394 -12 q 553 65 508 28 q 638 147 599 101 l 553 207 q 494 149 526 175 q 425 107 463 122 q 342 92 388 92 q 240 123 278 92 q 188 206 201 154 q 182 319 174 258 l 192 361 q 235 460 203 417 q 315 531 268 504 q 419 556 363 557 q 506 533 474 556 q 553 472 539 510 q 564 386 567 433 l 151 386 l 138 292 m 513 813 q 529 760 511 783 q 578 736 547 738 q 633 758 606 735 q 663 810 661 782 q 647 863 665 839 q 599 888 628 886 q 542 865 569 889 q 513 813 515 840 m 243 813 q 260 760 242 783 q 308 736 278 738 q 364 758 336 735 q 393 810 392 782 q 377 863 396 839 q 329 888 358 886 q 273 865 300 889 q 243 813 246 840 z "},"ж":{"ha":910,"x_min":-43,"x_max":961,"o":"m 815 639 l 506 381 l 740 0 l 869 0 l 624 357 l 961 639 l 815 639 m 578 639 l 475 639 l 367 0 l 469 1 l 578 639 m 229 639 l 101 639 l 335 367 l -43 0 l 101 0 l 458 371 l 229 639 z "},"з":{"ha":638,"x_min":76,"x_max":603,"o":"m 340 321 q 458 338 403 322 q 549 387 513 354 q 594 471 586 419 q 578 563 603 522 q 506 628 553 604 q 403 653 460 653 q 287 626 339 653 q 201 553 235 599 q 154 456 167 508 l 267 454 q 293 500 276 478 q 336 538 310 522 q 400 551 363 553 q 447 542 428 551 q 477 515 467 532 q 485 474 488 497 q 440 413 478 433 q 350 389 403 392 l 340 321 m 299 -12 q 422 12 363 -12 q 524 81 482 36 q 574 188 565 126 q 552 287 583 250 q 466 342 521 324 q 346 361 411 360 l 335 292 q 406 279 375 290 q 454 246 438 268 q 464 188 471 224 q 435 132 458 156 q 378 97 413 108 q 304 85 343 85 q 216 120 240 86 q 185 201 192 154 l 76 201 q 136 48 79 108 q 299 -12 193 -12 z "},"и":{"ha":735,"x_min":56,"x_max":714,"o":"m 674 524 l 714 697 l 96 115 l 56 -57 l 674 524 m 290 639 l 178 639 l 56 -57 l 196 100 l 290 639 m 714 697 l 572 540 l 479 0 l 590 0 l 714 697 z "},"й":{"ha":735,"x_min":56,"x_max":714,"o":"m 674 524 l 714 697 l 96 115 l 56 -57 l 674 524 m 290 639 l 178 639 l 56 -57 l 196 100 l 290 639 m 714 697 l 572 540 l 479 0 l 590 0 l 714 697 m 275 953 q 291 858 272 901 q 353 787 310 814 q 463 760 396 760 q 579 787 531 760 q 659 858 628 814 q 703 951 690 901 l 604 953 q 581 906 596 931 q 538 866 565 882 q 469 850 511 850 q 408 866 429 850 q 378 906 386 882 q 371 953 371 931 l 275 953 z "},"ѝ":{"ha":735,"x_min":56,"x_max":714,"o":"m 674 524 l 714 697 l 96 115 l 56 -57 l 674 524 m 290 639 l 178 639 l 56 -57 l 196 100 l 290 639 m 714 697 l 572 540 l 479 0 l 590 0 l 714 697 m 249 968 l 464 760 l 529 799 l 357 1022 l 249 968 z "},"к":{"ha":593,"x_min":58,"x_max":644,"o":"m 163 639 l 58 0 l 165 0 l 278 639 l 163 639 m 497 639 l 189 381 l 424 0 l 553 0 l 322 371 l 644 639 l 497 639 z "},"ќ":{"ha":593,"x_min":58,"x_max":697,"o":"m 163 639 l 58 0 l 165 0 l 278 639 l 163 639 m 497 639 l 189 381 l 424 0 l 553 0 l 322 371 l 644 639 l 497 639 m 697 940 l 600 1000 l 364 782 l 424 738 l 697 940 z "},"л":{"ha":753,"x_min":-24,"x_max":718,"o":"m 718 639 l 182 639 l 110 222 q 69 135 100 163 q -8 101 38 108 l -24 1 q 98 31 47 6 q 180 103 149 56 q 224 222 211 150 l 276 535 l 589 535 l 496 0 l 608 0 l 718 639 z "},"м":{"ha":818,"x_min":-35,"x_max":774,"o":"m 651 0 l 774 0 l 732 694 l 638 514 l 651 0 m 346 103 l 363 -46 l 706 460 l 732 694 l 346 103 m 363 -46 l 426 90 l 250 693 l 197 472 l 363 -46 m -35 0 l 93 0 l 278 500 l 250 693 l -35 0 z "},"н":{"ha":761,"x_min":64,"x_max":736,"o":"m 176 286 l 638 286 l 654 389 l 193 389 l 176 286 m 621 639 l 517 0 l 624 0 l 736 639 l 621 639 m 169 639 l 64 0 l 172 0 l 285 639 l 169 639 z "},"о":{"ha":736,"x_min":50,"x_max":721,"o":"m 63 319 q 81 155 50 231 q 176 33 111 79 q 335 -12 242 -12 q 508 33 429 -12 q 641 153 588 78 q 708 319 694 228 q 690 484 721 408 q 594 606 660 560 q 436 653 529 653 q 262 608 342 653 q 129 488 182 563 q 63 319 76 413 m 175 319 q 222 434 186 382 q 313 518 258 486 q 431 549 367 550 q 533 515 493 549 q 589 430 572 482 q 596 319 606 378 q 548 206 585 258 q 458 122 511 153 q 340 92 404 92 q 238 126 278 93 q 181 210 197 158 q 175 319 165 263 z "},"п":{"ha":707,"x_min":61,"x_max":681,"o":"m 681 639 l 171 639 l 61 0 l 172 0 l 265 535 l 551 535 l 458 0 l 571 0 l 681 639 z "},"р":{"ha":768,"x_min":1,"x_max":753,"o":"m 117 -304 l 274 639 l 165 639 l 1 -306 l 117 -304 m 740 319 q 724 487 753 411 q 634 608 696 563 q 482 653 572 654 q 365 626 418 653 q 271 554 311 600 q 204 448 231 508 q 169 319 178 388 q 169 196 161 256 q 202 89 176 136 q 272 14 228 42 q 381 -14 317 -14 q 548 30 471 -14 q 676 150 625 74 q 740 319 728 226 m 628 319 q 581 202 618 254 q 489 120 543 150 q 372 92 435 90 q 301 112 332 93 q 249 162 269 131 q 222 234 229 193 q 221 319 214 275 q 252 410 229 368 q 308 483 275 451 q 381 531 342 514 q 463 549 421 549 q 565 517 525 549 q 621 434 604 486 q 628 319 638 382 z "},"с":{"ha":644,"x_min":43,"x_max":638,"o":"m 168 319 q 215 434 179 382 q 306 517 251 486 q 424 549 360 549 q 544 517 493 549 q 617 432 596 485 l 638 571 q 547 632 601 611 q 429 653 492 653 q 256 608 336 653 q 123 488 176 563 q 56 319 69 413 q 74 155 43 231 q 169 33 104 79 q 328 -14 235 -12 q 452 8 393 -14 q 554 68 511 29 l 574 206 q 472 125 536 160 q 333 92 408 90 q 231 126 271 93 q 174 210 190 158 q 168 319 158 261 z "},"т":{"ha":378,"x_min":58,"x_max":444,"o":"m 76 639 l 58 535 l 426 535 l 444 639 l 76 639 m 199 611 l 99 0 l 206 0 l 313 611 l 199 611 z "},"у":{"ha":593,"x_min":-28,"x_max":669,"o":"m 669 639 l 540 639 l 265 146 l 313 139 l 200 639 l 72 639 l 217 96 l -28 -304 l 103 -304 l 669 639 z "},"ў":{"ha":593,"x_min":-28,"x_max":669,"o":"m 669 639 l 540 639 l 265 146 l 313 139 l 200 639 l 72 639 l 217 96 l -28 -304 l 103 -304 l 669 639 m 203 931 q 219 835 200 879 q 281 765 238 792 q 390 738 324 738 q 508 765 458 738 q 588 835 557 792 q 632 929 619 879 l 532 931 q 507 884 524 908 q 463 844 490 860 q 394 828 436 828 q 332 844 353 828 q 304 884 311 860 q 299 931 297 908 l 203 931 z "},"ф":{"ha":790,"x_min":50,"x_max":775,"o":"m 433 778 l 281 -137 l 388 -137 l 547 778 l 433 778 m 63 319 q 83 152 50 228 q 189 32 117 76 q 361 -14 261 -12 q 551 30 465 -14 q 692 149 636 74 q 761 319 747 225 q 742 488 775 413 q 636 608 708 564 q 463 653 564 653 q 274 610 360 654 q 133 491 189 567 q 63 319 78 415 m 175 319 q 226 437 188 385 q 325 519 265 489 q 457 549 385 550 q 576 517 529 549 q 642 434 622 486 q 650 319 661 382 q 599 203 639 256 q 500 122 560 151 q 367 92 440 92 q 249 124 296 93 q 183 206 203 154 q 175 319 164 257 z "},"х":{"ha":567,"x_min":-43,"x_max":631,"o":"m 499 639 l 314 419 l 204 639 l 88 639 l 244 335 l -43 0 l 88 0 l 290 239 l 410 0 l 526 0 l 358 325 l 631 639 l 499 639 z "},"ц":{"ha":761,"x_min":61,"x_max":699,"o":"m 586 104 l 678 639 l 571 639 l 476 104 l 190 104 l 283 639 l 172 639 l 61 0 l 582 0 l 561 -124 l 658 -124 l 699 104 l 586 104 z "},"ч":{"ha":654,"x_min":94,"x_max":628,"o":"m 307 196 l 521 196 l 539 299 l 324 299 l 307 196 m 513 639 l 408 0 l 515 0 l 628 639 l 513 639 m 250 639 l 138 639 l 107 456 q 108 313 94 371 q 169 226 121 256 q 307 196 218 196 l 324 299 q 226 340 247 299 q 217 456 204 381 l 250 639 z "},"ш":{"ha":1051,"x_min":61,"x_max":1025,"o":"m 558 104 l 651 639 l 543 639 l 450 104 l 190 104 l 283 639 l 172 639 l 61 0 l 914 0 l 1025 639 l 913 639 l 821 104 l 558 104 z "},"щ":{"ha":1106,"x_min":61,"x_max":1040,"o":"m 558 104 l 651 639 l 543 639 l 450 104 l 190 104 l 283 639 l 172 639 l 61 0 l 926 0 l 904 -124 l 1001 -124 l 1040 104 l 932 104 l 1025 639 l 913 639 l 821 104 l 558 104 z "},"ъ":{"ha":779,"x_min":58,"x_max":719,"o":"m 306 301 l 503 300 q 582 272 556 299 q 600 200 608 246 q 552 124 590 151 q 460 97 514 97 l 269 97 l 256 0 l 453 0 q 572 22 517 0 q 664 89 626 44 q 710 199 701 133 q 694 308 719 264 q 621 376 669 353 q 510 397 572 399 l 321 397 l 306 301 m 285 536 l 193 0 l 300 0 l 411 639 l 76 639 l 58 535 l 285 536 z "},"ы":{"ha":869,"x_min":64,"x_max":843,"o":"m 729 639 l 624 0 l 731 0 l 843 639 l 729 639 m 169 639 l 64 0 l 172 0 l 285 639 l 169 639 m 178 301 l 375 300 q 433 288 410 300 q 467 253 457 275 q 472 200 478 231 q 447 144 467 168 q 397 109 426 121 q 332 97 368 97 l 142 97 l 126 0 l 325 0 q 444 22 389 0 q 535 89 499 44 q 582 199 572 133 q 567 308 592 264 q 493 376 542 353 q 382 397 444 399 l 193 397 l 178 301 z "},"ь":{"ha":651,"x_min":64,"x_max":592,"o":"m 169 639 l 64 0 l 172 0 l 285 639 l 169 639 m 178 301 l 375 300 q 433 288 410 300 q 467 253 457 275 q 472 200 478 231 q 424 124 463 151 q 332 97 386 97 l 142 97 l 126 0 l 325 0 q 444 22 389 0 q 535 89 499 44 q 582 199 572 133 q 567 308 592 264 q 493 376 542 353 q 382 397 444 399 l 193 397 l 178 301 z "},"э":{"ha":644,"x_min":42,"x_max":635,"o":"m 208 371 l 193 269 l 508 269 l 621 371 l 208 371 m 511 319 q 464 206 500 257 q 374 123 428 154 q 256 92 319 92 q 135 123 186 90 q 63 207 83 156 l 42 69 q 133 7 78 28 q 250 -12 188 -14 q 424 32 344 -12 q 556 152 503 76 q 622 319 610 228 q 605 484 635 408 q 510 606 575 560 q 351 653 444 653 q 228 631 288 653 q 125 572 168 608 l 106 433 q 206 514 143 479 q 344 547 269 549 q 447 515 407 547 q 504 431 488 482 q 511 319 521 379 z "},"ю":{"ha":1006,"x_min":64,"x_max":990,"o":"m 176 286 l 408 286 l 426 389 l 193 389 l 176 286 m 169 639 l 64 0 l 172 0 l 285 639 l 169 639 m 332 319 q 350 155 319 231 q 446 33 381 79 q 604 -12 511 -12 q 778 33 699 -12 q 911 153 858 78 q 978 319 964 228 q 960 484 990 408 q 864 606 929 560 q 706 653 799 653 q 531 608 611 653 q 399 488 451 563 q 332 319 346 413 m 444 319 q 492 434 456 382 q 582 518 528 486 q 700 549 636 550 q 803 515 763 549 q 859 430 843 482 q 865 319 875 378 q 817 206 854 258 q 727 122 781 153 q 610 92 674 92 q 507 126 547 93 q 451 210 467 158 q 444 319 435 263 z "},"я":{"ha":651,"x_min":28,"x_max":654,"o":"m 158 0 l 439 332 l 317 332 l 28 0 l 158 0 m 550 0 l 654 639 l 547 639 l 435 0 l 550 0 m 543 353 l 346 354 q 289 365 313 354 q 254 396 265 375 q 249 447 243 417 q 274 500 254 479 q 323 531 293 521 q 388 542 353 542 l 578 543 l 592 639 l 394 639 q 277 617 332 638 q 185 556 222 597 q 139 449 149 514 q 156 340 131 383 q 229 276 181 297 q 339 256 278 256 l 529 257 l 543 353 z "},"ª":{"ha":321,"x_min":108,"x_max":411,"o":"m 171 739 q 203 789 174 768 q 265 810 232 810 q 315 801 293 811 q 358 776 336 792 l 364 810 q 326 838 350 824 q 264 851 301 851 q 168 820 214 851 q 115 740 122 789 q 136 665 108 694 q 207 633 164 635 q 292 659 257 632 q 339 728 326 686 l 333 764 q 293 705 322 728 q 225 683 264 682 q 182 701 196 685 q 171 739 168 717 m 199 897 q 242 919 217 907 q 299 929 268 932 q 338 916 324 928 q 354 882 351 904 l 311 640 l 367 640 l 407 882 q 381 953 411 928 q 303 979 351 979 q 233 968 264 981 q 179 942 203 956 l 199 897 z "},"º":{"ha":375,"x_min":117,"x_max":456,"o":"m 126 807 q 155 690 117 739 q 263 640 193 640 q 349 663 310 640 q 416 722 389 685 q 449 806 443 760 q 440 888 456 850 q 392 949 425 925 q 313 972 360 972 q 226 950 267 972 q 160 890 186 928 q 126 807 133 853 m 181 806 q 205 862 186 836 q 251 903 224 888 q 310 919 279 919 q 378 884 356 918 q 394 806 401 850 q 370 749 389 775 q 324 708 351 724 q 265 693 297 693 q 197 728 219 693 q 181 806 175 763 z "},"̀":{"ha":0,"x_min":163,"x_max":439,"o":"m 376 757 l 439 799 l 268 1021 l 163 965 l 376 757 z "},"́":{"ha":0,"x_min":154,"x_max":510,"o":"m 224 750 l 510 958 l 400 1021 l 154 799 l 224 750 z "},"̂":{"ha":0,"x_min":139,"x_max":558,"o":"m 192 758 l 393 907 l 346 907 l 490 760 l 558 828 l 379 1008 l 139 828 l 192 758 z "},"̃":{"ha":0,"x_min":146,"x_max":614,"o":"m 211 810 q 222 838 213 821 q 251 867 232 854 q 297 881 269 881 q 336 871 318 881 q 372 848 354 861 q 409 825 389 835 q 456 815 429 815 q 521 830 490 815 q 575 868 551 844 q 614 917 599 892 l 560 983 q 508 933 533 950 q 464 917 483 917 q 422 926 439 917 q 389 949 404 936 q 354 972 374 963 q 303 982 335 982 q 240 967 272 982 q 183 928 208 953 q 146 868 158 903 l 211 810 z "},"̄":{"ha":0,"x_min":140,"x_max":643,"o":"m 140 833 l 626 833 l 643 938 l 157 938 l 140 833 z "},"̆":{"ha":0,"x_min":150,"x_max":597,"o":"m 353 750 q 469 775 417 750 q 555 844 521 800 q 597 944 589 889 l 499 944 q 473 892 494 915 q 422 854 451 868 q 360 840 392 840 q 279 870 308 840 q 257 944 250 900 l 158 944 q 172 844 150 889 q 242 775 194 800 q 353 750 289 750 z "},"̇":{"ha":0,"x_min":146,"x_max":299,"o":"m 222 792 q 276 815 254 792 q 299 868 299 838 q 276 922 299 900 q 222 944 254 944 q 169 922 192 944 q 146 868 146 900 q 169 815 146 838 q 222 792 192 792 z "},"̈":{"ha":0,"x_min":293,"x_max":446,"o":"m 369 840 q 424 863 401 840 q 446 917 446 885 q 424 972 446 950 q 369 993 401 993 q 315 972 336 993 q 293 917 293 950 q 315 863 293 885 q 369 840 336 840 m 369 840 q 424 863 401 840 q 446 917 446 885 q 424 972 446 950 q 369 993 401 993 q 315 972 336 993 q 293 917 293 950 q 315 863 293 885 q 369 840 336 840 z "},"̊":{"ha":0,"x_min":138,"x_max":471,"o":"m 276 722 q 359 743 319 722 q 426 799 399 764 q 460 875 453 833 q 432 983 471 939 q 328 1028 393 1028 q 246 1007 285 1028 q 181 952 207 986 q 147 875 154 918 q 175 767 138 811 q 276 722 213 722 m 289 794 q 238 818 257 794 q 225 875 219 842 q 257 932 231 908 q 315 956 283 956 q 367 932 347 956 q 381 875 386 908 q 348 818 375 842 q 289 794 321 794 z "},"̋":{"ha":0,"x_min":0,"x_max":528,"o":"m 76 707 l 297 972 l 179 1003 l 0 733 l 76 707 m 304 707 l 528 972 l 407 1003 l 229 733 l 304 707 z "},"̌":{"ha":0,"x_min":158,"x_max":578,"o":"m 338 760 l 578 942 l 524 1011 l 324 863 l 371 863 l 225 1008 l 158 942 l 338 760 z "},"̒":{"ha":0,"x_min":124,"x_max":410,"o":"m 228 694 l 410 1054 l 335 1083 l 124 736 l 228 694 z "},"̦":{"ha":0,"x_min":-46,"x_max":208,"o":"m 11 -311 l 208 -75 l 132 -24 l -46 -274 l 11 -311 z "},"̧":{"ha":0,"x_min":-44,"x_max":261,"o":"m 72 -306 q 160 -288 122 -306 q 221 -242 197 -271 q 250 -175 244 -212 q 231 -100 257 -135 q 160 -65 204 -65 q 121 -72 133 -65 q 93 -100 108 -79 l 126 -100 l 261 83 l 169 83 l 24 -129 q 62 -126 38 -126 q 103 -125 86 -125 q 153 -137 139 -125 q 164 -175 168 -150 q 139 -216 160 -201 q 85 -231 118 -231 q 42 -226 58 -231 q -1 -204 25 -221 l -44 -267 q 8 -297 -18 -287 q 72 -306 33 -306 z "},"̨":{"ha":0,"x_min":-35,"x_max":251,"o":"m 119 -306 q 199 -288 164 -306 q 251 -250 233 -271 l 218 -181 q 186 -201 201 -194 q 143 -208 171 -208 q 100 -192 117 -208 q 89 -139 83 -176 q 115 -87 93 -112 q 169 -38 136 -61 q 240 0 203 -15 l 182 35 q 84 -22 129 10 q 9 -89 39 -53 q -28 -167 -21 -125 q -19 -239 -35 -207 q 33 -288 -3 -271 q 119 -306 68 -306 z "},"０":{"ha":782,"x_min":76,"x_max":796,"o":"m 201 486 q 237 626 213 557 q 300 752 261 696 q 391 842 339 808 q 507 875 443 875 q 592 850 558 874 q 644 786 625 826 q 670 695 663 746 q 677 591 678 644 q 671 486 676 538 q 636 346 661 415 q 573 220 611 276 q 483 131 535 164 q 367 99 431 97 q 282 123 315 99 q 229 188 249 147 q 202 278 210 228 q 195 382 194 328 q 201 486 196 436 m 85 486 q 79 346 76 417 q 99 210 82 275 q 149 96 117 146 q 233 17 182 46 q 356 -12 283 -12 q 517 29 443 -12 q 647 142 590 71 q 739 303 703 214 q 788 486 775 392 q 793 627 796 556 q 774 763 790 699 q 724 877 757 826 q 640 957 692 928 q 518 986 589 986 q 356 944 429 986 q 226 831 282 903 q 135 670 171 760 q 85 486 99 581 z "},"１":{"ha":782,"x_min":249,"x_max":611,"o":"m 249 781 l 469 843 l 325 0 l 442 0 l 611 988 l 271 904 l 249 781 z "},"２":{"ha":782,"x_min":-3,"x_max":790,"o":"m -3 0 l 665 0 l 685 111 l 254 113 l 610 426 q 717 549 671 483 q 778 693 764 615 q 767 830 790 763 q 687 942 744 897 q 535 988 629 988 q 356 942 433 989 q 228 815 278 894 q 160 640 178 736 l 275 640 q 322 760 289 706 q 407 846 356 814 q 524 876 458 878 q 610 849 578 875 q 656 785 643 824 q 663 703 669 746 q 635 626 656 663 q 585 556 614 589 q 522 490 556 522 l -3 0 z "},"３":{"ha":782,"x_min":101,"x_max":771,"o":"m 408 481 q 532 501 474 483 q 638 549 590 518 q 718 626 686 581 q 760 728 750 671 q 746 854 771 796 q 667 949 721 913 q 536 986 614 986 q 394 953 457 986 q 288 862 331 919 q 231 732 246 804 l 343 732 q 381 806 354 772 q 444 860 407 839 q 528 879 482 881 q 601 857 575 879 q 638 800 628 835 q 640 724 647 765 q 600 638 631 675 q 524 581 569 601 q 419 556 478 560 l 408 481 m 369 -12 q 526 22 454 -12 q 645 116 597 56 q 706 257 693 176 q 697 377 717 326 q 636 460 678 428 q 538 510 594 493 q 415 528 481 526 l 403 451 q 483 437 446 449 q 547 403 519 425 q 585 349 574 382 q 589 271 597 315 q 551 182 581 221 q 478 121 522 143 q 379 99 433 99 q 291 119 326 99 q 239 176 256 140 q 225 257 222 213 l 108 257 q 131 121 101 182 q 221 24 160 60 q 369 -12 282 -12 z "},"４":{"ha":782,"x_min":17,"x_max":758,"o":"m 17 196 l 740 194 l 758 299 l 560 299 l 536 299 l 129 299 l 17 196 m 144 196 l 561 703 l 486 260 l 483 244 l 440 0 l 557 0 l 724 972 l 674 971 l 17 196 l 144 196 z "},"５":{"ha":782,"x_min":46,"x_max":844,"o":"m 736 319 q 724 478 747 404 q 647 600 701 553 q 504 647 592 647 q 377 621 440 647 q 265 546 314 594 l 186 457 q 315 521 256 497 q 446 542 375 544 q 549 510 508 540 q 608 429 590 479 q 615 319 625 379 q 570 207 604 257 q 483 128 536 157 q 363 99 431 99 q 232 147 286 99 q 153 258 178 194 l 46 192 q 159 45 86 103 q 351 -12 232 -12 q 488 11 424 -12 q 605 78 553 35 q 691 183 657 122 q 736 319 725 244 m 474 868 l 828 869 l 844 972 l 397 972 l 178 449 l 349 578 l 474 868 z "},"６":{"ha":782,"x_min":74,"x_max":742,"o":"m 197 319 q 244 434 208 382 q 333 517 279 486 q 451 549 388 549 q 554 515 514 549 q 612 431 594 482 q 619 319 629 379 q 574 206 610 258 q 483 124 538 154 q 365 94 429 94 q 262 126 303 94 q 204 210 221 158 q 197 319 188 261 m 574 972 l 178 521 q 119 429 143 481 q 86 319 96 378 q 103 153 74 229 q 197 33 132 78 q 356 -12 263 -12 q 530 31 450 -12 q 663 150 610 75 q 731 319 717 225 q 717 470 742 399 q 637 588 692 542 q 500 635 582 633 q 418 622 456 635 q 349 582 381 610 l 358 572 l 724 972 l 574 972 z "},"７":{"ha":782,"x_min":126,"x_max":871,"o":"m 186 861 l 674 861 l 126 0 l 250 0 l 871 972 l 206 972 l 186 861 z "},"８":{"ha":782,"x_min":96,"x_max":747,"o":"m 218 739 q 223 640 210 685 q 266 563 236 596 q 341 513 296 531 q 442 494 386 494 q 549 512 499 494 q 640 561 600 529 q 706 638 681 593 q 740 738 732 683 q 734 832 747 788 q 690 911 721 876 q 616 966 660 946 q 518 986 572 986 q 380 953 444 986 q 272 863 315 919 q 218 739 229 807 m 326 724 q 360 803 333 767 q 425 861 386 839 q 508 882 464 883 q 581 859 553 882 q 622 801 610 836 q 628 724 635 765 q 594 647 621 682 q 528 591 567 611 q 447 571 490 571 q 376 593 406 572 q 334 649 347 614 q 326 724 321 683 m 104 265 q 111 160 96 210 q 160 71 126 110 q 244 10 194 32 q 356 -12 294 -12 q 475 8 418 -12 q 578 67 532 29 q 654 156 624 106 q 693 264 685 207 q 686 376 701 325 q 635 465 671 428 q 551 522 600 501 q 442 542 501 542 q 325 522 382 542 q 222 466 268 503 q 144 378 175 429 q 104 265 113 328 m 217 278 q 258 371 225 328 q 340 440 292 414 q 438 465 388 467 q 523 438 488 465 q 576 369 558 411 q 586 278 593 326 q 544 181 578 224 q 464 115 511 139 q 365 92 417 92 q 278 117 315 93 q 225 184 242 142 q 217 278 208 226 z "},"９":{"ha":782,"x_min":132,"x_max":800,"o":"m 676 653 q 630 540 667 592 q 540 456 593 488 q 422 425 486 425 q 319 458 360 425 q 261 542 278 490 q 254 653 244 594 q 301 767 265 715 q 390 849 336 818 q 508 879 444 879 q 611 847 571 879 q 669 764 651 815 q 676 653 686 713 m 300 0 l 694 451 q 753 544 729 492 q 788 653 778 596 q 771 820 800 744 q 677 941 742 896 q 518 986 613 986 q 344 942 424 986 q 210 824 264 899 q 143 654 157 749 q 156 503 132 575 q 236 385 181 431 q 374 339 292 340 q 456 351 418 338 q 525 392 493 364 l 514 401 l 149 0 l 300 0 z "},"¹":{"ha":633,"x_min":313,"x_max":531,"o":"m 313 850 l 442 886 l 357 382 l 428 382 l 531 974 l 324 922 l 313 850 z "},"²":{"ha":467,"x_min":63,"x_max":539,"o":"m 63 393 l 463 393 l 474 458 l 219 460 l 431 647 q 495 722 467 682 q 532 808 524 761 q 525 890 539 850 q 476 958 511 931 q 385 985 442 985 q 277 957 324 986 q 201 881 231 928 q 160 776 172 833 l 231 776 q 260 847 240 814 q 311 901 281 881 q 381 918 342 921 q 431 901 413 917 q 458 863 450 886 q 461 814 465 839 q 431 745 456 776 q 378 686 407 714 l 63 393 z "},"³":{"ha":421,"x_min":86,"x_max":486,"o":"m 268 678 q 365 699 319 682 q 440 748 410 717 q 479 825 471 779 q 472 901 486 865 q 425 958 457 936 q 346 981 393 981 q 225 938 274 982 q 161 831 176 893 l 229 829 q 270 892 240 864 q 340 917 300 919 q 398 888 381 915 q 408 824 415 860 q 384 773 403 794 q 338 739 365 751 q 275 722 310 726 l 268 678 m 246 382 q 339 402 296 382 q 411 459 382 422 q 447 543 440 496 q 442 615 454 585 q 404 665 429 646 q 345 694 379 683 q 272 706 311 704 l 264 660 q 326 646 299 657 q 369 612 354 635 q 376 553 383 589 q 334 478 371 508 q 250 449 297 447 q 181 477 203 450 q 158 543 158 504 l 88 543 q 103 462 86 499 q 156 403 119 425 q 246 382 192 382 z "},"¼":{"ha":1017,"x_min":94,"x_max":1050,"o":"m 958 971 l 94 0 l 185 0 l 1050 971 l 958 971 m 149 850 l 278 886 l 193 382 l 264 382 l 365 974 l 160 922 l 149 850 m 519 118 l 951 118 l 961 179 l 842 179 l 828 179 l 583 178 l 519 118 m 594 118 l 843 419 l 799 156 l 797 147 l 772 0 l 843 0 l 942 583 l 911 582 l 518 119 l 594 118 z "},"½":{"ha":1104,"x_min":94,"x_max":1103,"o":"m 958 971 l 94 0 l 185 0 l 1050 971 l 958 971 m 149 850 l 278 886 l 193 382 l 264 382 l 365 974 l 160 922 l 149 850 m 628 4 l 1028 4 l 1039 69 l 785 71 l 996 258 q 1060 333 1032 293 q 1096 419 1089 372 q 1089 501 1103 461 q 1040 569 1075 542 q 949 596 1006 596 q 842 568 888 597 q 767 492 796 539 q 725 388 738 444 l 796 388 q 824 458 804 425 q 875 510 844 490 q 944 528 906 531 q 996 511 976 526 q 1023 473 1015 496 q 1026 425 1031 450 q 997 356 1021 388 q 942 297 972 325 l 628 4 z "},"¾":{"ha":1106,"x_min":93,"x_max":1140,"o":"m 1049 971 l 185 0 l 275 0 l 1140 971 l 1049 971 m 275 678 q 372 699 326 682 q 447 748 417 717 q 486 825 478 779 q 478 901 493 865 q 431 958 463 936 q 351 981 399 981 q 231 938 279 982 q 168 831 183 893 l 236 829 q 277 892 247 864 q 347 917 307 919 q 404 888 388 915 q 415 824 421 860 q 391 773 410 794 q 344 739 372 751 q 282 722 317 726 l 275 678 m 253 382 q 346 402 303 382 q 418 459 389 422 q 454 543 447 496 q 449 615 461 585 q 411 665 436 646 q 352 694 386 683 q 279 706 318 704 l 271 660 q 333 646 306 657 q 376 612 361 635 q 383 553 390 589 q 341 478 378 508 q 257 449 304 447 q 188 477 210 450 q 165 543 165 504 l 94 543 q 110 462 93 499 q 163 403 126 425 q 253 382 199 382 m 610 118 l 1042 118 l 1051 179 l 932 179 l 918 179 l 674 178 l 610 118 m 685 118 l 933 419 l 889 156 l 888 147 l 863 0 l 933 0 l 1032 583 l 1001 582 l 608 119 l 685 118 z "},"⁰":{"ha":501,"x_min":111,"x_max":549,"o":"m 189 681 q 210 764 196 722 q 249 840 225 806 q 303 894 272 874 q 374 914 335 914 q 433 891 411 913 q 465 835 456 869 q 474 759 474 800 q 471 681 475 718 q 449 597 465 639 q 410 522 433 556 q 355 467 386 488 q 286 449 324 447 q 226 471 247 449 q 194 527 204 493 q 185 602 185 561 q 189 681 185 643 m 118 681 q 116 575 111 628 q 140 478 121 522 q 194 408 158 435 q 282 382 229 382 q 378 407 335 382 q 456 474 422 432 q 512 571 490 517 q 542 681 533 625 q 543 786 549 733 q 519 883 538 839 q 465 953 500 926 q 376 981 431 981 q 281 955 325 981 q 202 887 236 929 q 147 791 168 844 q 118 681 125 738 z "},"⁴":{"ha":521,"x_min":89,"x_max":532,"o":"m 89 507 l 522 507 l 532 568 l 413 568 l 399 568 l 153 567 l 89 507 m 165 507 l 414 808 l 368 544 l 368 536 l 343 390 l 413 390 l 511 972 l 481 971 l 89 508 l 165 507 z "},"⁵":{"ha":479,"x_min":88,"x_max":567,"o":"m 501 578 q 494 674 508 629 q 447 747 481 718 q 363 775 414 775 q 286 758 324 775 q 219 714 249 742 l 172 661 q 249 699 213 685 q 329 711 286 714 q 390 691 365 710 q 424 643 414 672 q 429 578 435 614 q 402 510 424 540 q 349 463 381 481 q 276 446 317 446 q 199 475 229 446 q 151 542 168 504 l 88 501 q 157 414 114 449 q 272 379 200 379 q 378 403 329 379 q 460 473 428 428 q 501 578 493 518 m 344 907 l 557 908 l 567 969 l 299 969 l 164 653 l 271 732 l 344 907 z "},"⁶":{"ha":467,"x_min":101,"x_max":503,"o":"m 176 578 q 204 647 182 615 q 259 697 226 678 q 329 715 292 717 q 391 694 367 714 q 425 644 415 675 q 429 578 435 614 q 401 510 424 542 q 347 460 379 479 q 276 443 314 442 q 215 463 239 444 q 181 513 190 482 q 176 578 171 543 m 400 968 l 164 699 q 129 644 144 675 q 108 579 114 614 q 119 479 101 525 q 177 406 138 433 q 272 379 217 379 q 376 406 328 379 q 456 477 424 432 q 496 578 489 522 q 488 668 503 625 q 440 739 472 711 q 358 767 407 767 q 310 760 332 768 q 268 738 288 753 l 274 731 l 492 968 l 400 968 z "},"⁷":{"ha":478,"x_min":122,"x_max":568,"o":"m 157 907 l 449 906 l 122 390 l 197 390 l 568 972 l 168 972 l 157 907 z "},"⁸":{"ha":433,"x_min":89,"x_max":485,"o":"m 164 833 q 174 757 158 790 q 222 705 189 724 q 300 686 256 686 q 384 704 346 686 q 448 756 422 722 q 479 832 474 789 q 469 906 485 872 q 420 960 453 939 q 344 981 388 981 q 263 960 301 981 q 197 907 224 940 q 164 833 171 874 m 229 824 q 250 870 233 849 q 290 906 267 892 q 339 918 314 919 q 397 889 378 917 q 411 825 417 861 q 390 778 407 800 q 350 744 374 757 q 301 732 326 731 q 260 746 278 733 q 234 779 242 758 q 229 824 226 800 m 96 549 q 107 466 89 504 q 163 405 125 428 q 249 382 200 382 q 342 404 299 382 q 415 465 385 426 q 451 547 444 503 q 439 635 458 597 q 383 693 419 672 q 299 714 346 714 q 207 693 251 714 q 133 635 163 672 q 96 549 103 599 m 164 556 q 190 612 169 586 q 239 653 210 638 q 297 668 268 669 q 367 633 342 667 q 385 556 392 599 q 338 476 378 508 q 251 444 297 443 q 183 478 208 446 q 164 556 157 510 z "},"⁹":{"ha":467,"x_min":147,"x_max":549,"o":"m 472 783 q 444 715 467 747 q 390 665 422 683 q 319 647 357 646 q 258 668 282 649 q 224 718 233 688 q 219 783 214 749 q 247 851 225 821 q 302 901 269 882 q 372 919 335 921 q 434 900 410 919 q 468 850 458 881 q 472 783 478 819 m 247 393 l 483 663 q 519 718 504 688 q 540 783 535 749 q 530 883 549 838 q 472 956 511 929 q 376 983 432 983 q 272 957 321 983 q 192 885 224 931 q 153 785 161 840 q 162 694 147 738 q 209 624 176 651 q 290 594 242 596 q 340 602 318 594 q 381 625 361 610 l 374 632 l 157 394 l 247 393 z "},"₀":{"ha":501,"x_min":46,"x_max":482,"o":"m 122 292 q 144 375 129 333 q 183 451 160 417 q 238 505 207 485 q 307 525 269 525 q 367 502 346 524 q 398 446 389 481 q 408 370 407 411 q 404 292 408 329 q 383 208 399 250 q 343 133 367 167 q 288 78 319 99 q 219 60 257 58 q 159 82 181 60 q 128 138 138 104 q 118 213 118 172 q 122 292 118 254 m 51 292 q 51 186 46 239 q 74 90 56 133 q 128 19 93 46 q 215 -7 163 -7 q 312 18 268 -7 q 390 85 356 43 q 445 182 424 128 q 475 292 467 236 q 476 397 482 344 q 452 494 471 450 q 399 565 433 538 q 311 592 364 592 q 215 566 258 592 q 137 498 171 540 q 81 402 103 456 q 51 292 60 349 z "},"₁":{"ha":424,"x_min":164,"x_max":382,"o":"m 164 471 l 293 507 l 210 3 l 279 3 l 382 594 l 175 543 l 164 471 z "},"₂":{"ha":467,"x_min":-3,"x_max":472,"o":"m -3 4 l 397 4 l 407 69 l 154 71 l 364 258 q 429 333 400 293 q 465 419 458 372 q 458 501 472 461 q 410 569 444 542 q 318 596 375 596 q 210 568 257 597 q 135 492 164 539 q 93 388 106 444 l 164 388 q 194 458 174 425 q 244 512 214 492 q 314 529 275 532 q 365 513 346 528 q 392 474 385 497 q 396 425 400 450 q 365 356 390 388 q 311 297 340 325 l -3 4 z "},"₃":{"ha":421,"x_min":19,"x_max":419,"o":"m 201 289 q 298 310 253 293 q 374 359 343 328 q 413 436 406 390 q 405 512 419 476 q 358 569 390 547 q 279 592 326 592 q 158 549 207 593 q 94 442 110 504 l 163 440 q 203 503 174 475 q 275 528 233 531 q 332 499 315 526 q 342 435 349 471 q 317 384 336 406 q 271 350 299 363 q 208 333 243 338 l 201 289 m 179 -7 q 272 13 229 -7 q 344 70 315 33 q 381 154 374 107 q 375 226 388 196 q 338 276 363 257 q 278 305 313 294 q 206 317 244 315 l 197 271 q 260 257 232 268 q 302 223 288 246 q 311 164 317 200 q 267 89 304 119 q 183 60 231 58 q 114 88 136 61 q 92 154 92 115 l 22 154 q 36 73 19 110 q 89 15 53 36 q 179 -7 125 -7 z "},"₄":{"ha":521,"x_min":22,"x_max":465,"o":"m 22 118 l 456 118 l 465 179 l 346 179 l 332 179 l 88 178 l 22 118 m 99 118 l 347 419 l 303 156 l 301 147 l 276 0 l 346 0 l 446 583 l 415 582 l 22 119 l 99 118 z "},"₅":{"ha":479,"x_min":21,"x_max":500,"o":"m 436 189 q 429 285 443 240 q 382 358 415 329 q 296 386 349 386 q 220 369 258 386 q 153 325 182 353 l 106 272 q 183 310 146 296 q 263 322 219 325 q 323 302 299 321 q 358 254 347 283 q 363 189 368 225 q 335 122 357 151 q 282 74 314 92 q 210 57 250 57 q 132 86 163 57 q 85 153 101 115 l 21 113 q 90 25 47 60 q 206 -10 133 -10 q 312 15 263 -10 q 394 84 361 39 q 436 189 428 129 m 279 518 l 490 519 l 500 581 l 232 581 l 99 264 l 204 343 l 279 518 z "},"₆":{"ha":467,"x_min":33,"x_max":435,"o":"m 108 189 q 136 258 114 226 q 191 308 158 289 q 261 326 224 328 q 323 306 299 325 q 357 256 347 286 q 361 189 367 225 q 333 122 356 153 q 278 72 311 90 q 208 54 246 53 q 147 74 171 56 q 113 124 122 93 q 108 189 103 154 m 333 579 l 97 310 q 61 256 76 286 q 40 190 46 225 q 51 90 33 136 q 109 17 69 44 q 204 -10 149 -10 q 309 17 261 -10 q 389 88 357 43 q 428 189 421 133 q 419 279 435 236 q 372 350 404 322 q 290 378 339 378 q 242 372 264 379 q 200 349 219 364 l 207 342 l 424 579 l 333 579 z "},"₇":{"ha":478,"x_min":56,"x_max":503,"o":"m 90 518 l 382 517 l 56 0 l 131 0 l 503 583 l 101 583 l 90 518 z "},"₈":{"ha":433,"x_min":22,"x_max":418,"o":"m 97 444 q 107 368 92 401 q 156 316 122 335 q 233 297 189 297 q 317 315 279 297 q 381 367 356 333 q 413 443 407 400 q 402 517 418 483 q 353 571 386 550 q 278 592 321 592 q 195 572 235 592 q 130 518 156 551 q 97 444 104 485 m 164 435 q 184 481 168 460 q 224 517 200 503 q 272 529 247 531 q 331 500 311 528 q 344 436 350 472 q 324 390 340 411 q 283 355 307 368 q 235 343 260 342 q 194 357 211 344 q 169 390 176 369 q 164 435 161 411 m 29 160 q 40 77 22 115 q 96 16 58 39 q 182 -7 133 -7 q 275 15 232 -7 q 348 76 318 38 q 385 158 378 114 q 372 246 392 208 q 316 304 353 283 q 232 325 279 325 q 140 304 185 325 q 66 247 96 283 q 29 160 36 210 m 97 167 q 123 223 103 197 q 172 265 143 249 q 231 279 201 281 q 301 244 275 278 q 319 167 326 210 q 272 87 313 119 q 186 56 231 54 q 116 89 142 57 q 97 167 90 121 z "},"₉":{"ha":467,"x_min":57,"x_max":458,"o":"m 383 394 q 355 326 378 358 q 299 276 332 294 q 229 258 267 257 q 169 279 193 260 q 135 329 144 299 q 129 394 125 360 q 158 463 136 432 q 213 513 181 493 q 283 531 246 532 q 344 511 321 531 q 378 461 368 492 q 383 394 389 431 m 158 4 l 394 274 q 430 329 415 299 q 450 394 444 360 q 440 494 458 449 q 383 567 422 540 q 288 594 343 594 q 183 568 232 594 q 103 497 135 542 q 63 396 71 451 q 72 306 57 349 q 119 235 86 263 q 201 206 153 207 q 250 213 228 206 q 292 236 272 221 l 285 243 l 68 6 l 158 4 z "},"⅐":{"ha":1135,"x_min":26,"x_max":1160,"o":"m 892 971 l 26 0 l 118 0 l 982 971 l 892 971 m 149 850 l 278 886 l 193 382 l 264 382 l 365 974 l 160 922 l 149 850 m 749 518 l 1040 517 l 714 0 l 789 0 l 1160 583 l 760 583 l 749 518 z "},"⅑":{"ha":1057,"x_min":26,"x_max":1072,"o":"m 892 971 l 26 0 l 118 0 l 982 971 l 892 971 m 149 850 l 278 886 l 193 382 l 264 382 l 365 974 l 160 922 l 149 850 m 996 394 q 968 326 990 358 q 913 276 946 294 q 843 258 881 257 q 781 279 806 260 q 747 329 757 299 q 743 394 738 360 q 771 463 749 432 q 826 513 793 493 q 896 531 858 532 q 958 511 933 531 q 992 461 982 492 q 996 394 1001 431 m 772 4 l 1008 274 q 1043 329 1028 299 q 1064 394 1058 360 q 1053 494 1072 449 q 996 567 1035 540 q 900 594 957 594 q 797 568 844 594 q 717 497 749 542 q 676 396 685 451 q 685 306 671 349 q 733 235 700 263 q 814 206 765 207 q 864 213 842 206 q 904 236 886 221 l 899 243 l 681 6 l 772 4 z "},"⅒":{"ha":1456,"x_min":26,"x_max":1436,"o":"m 892 971 l 26 0 l 118 0 l 982 971 l 892 971 m 149 850 l 278 886 l 193 382 l 264 382 l 365 974 l 160 922 l 149 850 m 701 471 l 831 507 l 746 3 l 815 3 l 918 594 l 713 543 l 701 471 m 1076 292 q 1099 375 1083 333 q 1138 451 1114 417 q 1192 505 1161 485 q 1261 525 1224 525 q 1322 502 1300 524 q 1353 446 1343 481 q 1363 370 1363 411 q 1358 292 1363 329 q 1338 208 1353 250 q 1299 133 1322 167 q 1244 78 1275 99 q 1174 60 1213 58 q 1114 82 1136 60 q 1083 138 1092 104 q 1073 213 1074 172 q 1076 292 1072 254 m 1006 292 q 1005 186 1000 239 q 1028 90 1010 133 q 1082 19 1047 46 q 1169 -7 1117 -7 q 1266 18 1222 -7 q 1344 85 1310 43 q 1399 182 1378 128 q 1429 292 1421 236 q 1431 397 1436 344 q 1406 494 1425 450 q 1353 565 1388 538 q 1265 592 1318 592 q 1169 566 1213 592 q 1091 498 1125 540 q 1035 402 1057 456 q 1006 292 1014 349 z "},"⅓":{"ha":1018,"x_min":26,"x_max":1010,"o":"m 892 971 l 26 0 l 118 0 l 982 971 l 892 971 m 149 850 l 278 886 l 193 382 l 264 382 l 365 974 l 160 922 l 149 850 m 792 289 q 888 310 843 293 q 965 359 933 328 q 1003 436 996 390 q 995 512 1010 476 q 949 569 981 547 q 869 592 917 592 q 749 549 797 593 q 685 442 700 504 l 753 440 q 794 503 764 475 q 865 528 824 531 q 922 499 906 526 q 932 435 939 471 q 908 384 926 406 q 861 350 889 363 q 799 333 833 338 l 792 289 m 769 -7 q 863 13 819 -7 q 935 70 906 33 q 971 154 964 107 q 966 226 978 196 q 929 276 954 257 q 869 305 904 294 q 796 317 835 315 l 788 271 q 850 257 822 268 q 892 223 878 246 q 901 164 907 200 q 858 89 894 119 q 774 60 822 58 q 704 88 726 61 q 682 154 682 115 l 613 154 q 626 73 610 110 q 679 15 643 36 q 769 -7 715 -7 z "},"⅔":{"ha":1189,"x_min":69,"x_max":1181,"o":"m 1063 971 l 197 0 l 289 0 l 1154 971 l 1063 971 m 69 393 l 469 393 l 481 458 l 226 460 l 438 647 q 502 722 474 682 q 539 808 531 761 q 532 890 546 850 q 483 958 518 931 q 392 985 449 985 q 284 957 331 986 q 208 881 238 928 q 167 776 179 833 l 238 776 q 267 847 247 814 q 318 899 288 879 q 388 917 349 919 q 438 900 419 915 q 465 862 457 885 q 468 814 472 839 q 438 745 463 776 q 385 686 414 714 l 69 393 m 963 289 q 1059 310 1014 293 q 1135 359 1104 328 q 1174 436 1167 390 q 1166 512 1181 476 q 1119 569 1151 547 q 1040 592 1088 592 q 919 549 968 593 q 856 442 871 504 l 925 440 q 965 503 936 475 q 1036 528 994 531 q 1093 499 1076 526 q 1104 435 1110 471 q 1080 384 1099 406 q 1033 350 1061 363 q 971 333 1006 338 l 963 289 m 940 -7 q 1034 13 990 -7 q 1107 70 1078 33 q 1143 154 1136 107 q 1138 226 1150 196 q 1100 276 1125 257 q 1040 305 1075 294 q 967 317 1006 315 l 960 271 q 1021 257 993 268 q 1063 223 1049 246 q 1072 164 1078 200 q 1029 89 1065 119 q 944 60 993 58 q 875 88 897 61 q 853 154 853 115 l 783 154 q 798 73 781 110 q 851 15 815 36 q 940 -7 888 -7 z "},"⅕":{"ha":1003,"x_min":26,"x_max":1024,"o":"m 892 971 l 26 0 l 118 0 l 982 971 l 892 971 m 149 850 l 278 886 l 193 382 l 264 382 l 365 974 l 160 922 l 149 850 m 958 189 q 951 285 965 240 q 904 358 938 329 q 819 386 871 386 q 743 369 781 386 q 676 325 706 353 l 629 272 q 706 310 669 296 q 785 322 743 325 q 847 302 822 321 q 881 254 871 283 q 886 189 892 225 q 859 122 881 151 q 806 74 838 92 q 733 57 774 57 q 655 86 686 57 q 607 153 624 115 l 544 113 q 613 25 569 60 q 729 -10 657 -10 q 835 15 786 -10 q 917 84 885 39 q 958 189 950 129 m 801 518 l 1014 519 l 1024 581 l 756 581 l 621 264 l 726 343 l 801 518 z "},"⅖":{"ha":1174,"x_min":69,"x_max":1194,"o":"m 1063 971 l 197 0 l 289 0 l 1154 971 l 1063 971 m 69 393 l 469 393 l 481 458 l 226 460 l 438 647 q 502 722 474 682 q 539 808 531 761 q 532 890 546 850 q 483 958 518 931 q 392 985 449 985 q 284 957 331 986 q 208 881 238 928 q 167 776 179 833 l 238 776 q 267 847 247 814 q 318 899 288 879 q 388 917 349 919 q 438 900 419 915 q 465 862 457 885 q 468 814 472 839 q 438 745 463 776 q 385 686 414 714 l 69 393 m 1129 189 q 1122 285 1136 240 q 1075 358 1108 329 q 990 386 1042 386 q 914 369 951 386 q 847 325 876 353 l 800 272 q 877 310 840 296 q 957 322 914 325 q 1017 302 993 321 q 1052 254 1042 283 q 1057 189 1063 225 q 1030 122 1051 151 q 976 74 1008 92 q 904 57 944 57 q 826 86 857 57 q 779 153 796 115 l 715 113 q 785 25 742 60 q 900 -10 828 -10 q 1006 15 957 -10 q 1088 84 1056 39 q 1129 189 1121 129 m 972 518 l 1185 519 l 1194 581 l 926 581 l 792 264 l 899 343 l 972 518 z "},"⅗":{"ha":1119,"x_min":93,"x_max":1140,"o":"m 1008 971 l 144 0 l 235 0 l 1100 971 l 1008 971 m 275 678 q 372 699 326 682 q 447 748 417 717 q 486 825 478 779 q 478 901 493 865 q 431 958 463 936 q 351 981 399 981 q 231 938 279 982 q 168 831 183 893 l 236 829 q 277 892 247 864 q 347 917 307 919 q 404 888 388 915 q 415 824 421 860 q 391 773 410 794 q 344 739 372 751 q 282 722 317 726 l 275 678 m 253 382 q 346 402 303 382 q 418 459 389 422 q 454 543 447 496 q 449 615 461 585 q 411 665 436 646 q 352 694 386 683 q 279 706 318 704 l 271 660 q 333 646 306 657 q 376 612 361 635 q 383 553 390 589 q 341 478 378 508 q 257 449 304 447 q 188 477 210 450 q 165 543 165 504 l 94 543 q 110 462 93 499 q 163 403 126 425 q 253 382 199 382 m 1076 189 q 1069 285 1083 240 q 1022 358 1056 329 q 936 386 989 386 q 860 369 899 386 q 793 325 822 353 l 746 272 q 823 310 786 296 q 903 322 860 325 q 963 302 939 321 q 998 254 988 283 q 1003 189 1008 225 q 976 122 997 151 q 922 74 954 92 q 850 57 890 57 q 772 86 803 57 q 725 153 742 115 l 661 113 q 731 25 688 60 q 846 -10 774 -10 q 952 15 903 -10 q 1035 84 1001 39 q 1076 189 1068 129 m 918 518 l 1131 519 l 1140 581 l 872 581 l 739 264 l 844 343 l 918 518 z "},"⅘":{"ha":1167,"x_min":89,"x_max":1188,"o":"m 1056 971 l 192 0 l 282 0 l 1147 971 l 1056 971 m 89 507 l 522 507 l 532 568 l 413 568 l 399 568 l 153 567 l 89 507 m 165 507 l 414 808 l 368 544 l 368 536 l 343 390 l 413 390 l 511 972 l 481 971 l 89 508 l 165 507 m 1124 189 q 1117 285 1131 240 q 1069 358 1103 329 q 983 386 1036 386 q 908 369 946 386 q 840 325 869 353 l 793 272 q 870 310 833 296 q 950 322 907 325 q 1010 302 986 321 q 1045 254 1035 283 q 1050 189 1056 225 q 1023 122 1044 151 q 969 74 1001 92 q 897 57 938 57 q 819 86 850 57 q 772 153 789 115 l 708 113 q 778 25 735 60 q 893 -10 821 -10 q 999 15 950 -10 q 1082 84 1049 39 q 1124 189 1115 129 m 965 518 l 1178 519 l 1188 581 l 919 581 l 786 264 l 892 343 l 965 518 z "},"⅙":{"ha":989,"x_min":26,"x_max":982,"o":"m 892 971 l 26 0 l 118 0 l 982 971 l 892 971 m 149 850 l 278 886 l 193 382 l 264 382 l 365 974 l 160 922 l 149 850 m 632 189 q 661 258 639 226 q 716 308 683 289 q 786 326 749 328 q 847 306 824 325 q 881 256 871 286 q 886 189 892 225 q 858 122 881 153 q 802 72 835 90 q 732 54 769 53 q 672 74 696 56 q 638 124 647 93 q 632 189 628 154 m 857 579 l 621 310 q 586 256 601 286 q 565 190 571 225 q 575 90 557 136 q 633 17 593 44 q 729 -10 674 -10 q 833 17 785 -10 q 913 88 881 43 q 953 189 946 133 q 944 279 960 236 q 896 350 929 322 q 814 378 863 378 q 766 372 788 379 q 725 349 744 364 l 731 342 l 949 579 l 857 579 z "},"⅚":{"ha":1154,"x_min":88,"x_max":1147,"o":"m 1056 971 l 192 0 l 282 0 l 1147 971 l 1056 971 m 501 578 q 494 674 508 629 q 447 747 481 718 q 363 775 414 775 q 286 758 324 775 q 219 714 249 742 l 172 661 q 249 699 213 685 q 329 711 286 714 q 390 691 365 710 q 424 643 414 672 q 429 578 435 614 q 402 510 424 540 q 349 463 381 481 q 276 446 317 446 q 199 475 229 446 q 151 542 168 504 l 88 501 q 157 414 114 449 q 272 379 200 379 q 378 403 329 379 q 460 473 428 428 q 501 578 493 518 m 344 907 l 557 908 l 567 969 l 299 969 l 164 653 l 271 732 l 344 907 m 797 189 q 825 258 803 226 q 880 308 847 289 q 950 326 913 328 q 1012 306 988 325 q 1046 256 1036 286 q 1050 189 1056 225 q 1022 122 1044 153 q 967 72 1000 90 q 897 54 935 53 q 835 74 860 56 q 801 124 811 93 q 797 189 792 154 m 1021 579 l 785 310 q 750 256 765 286 q 729 190 735 225 q 740 90 722 136 q 798 17 758 44 q 893 -10 838 -10 q 998 17 950 -10 q 1078 88 1046 43 q 1117 189 1110 133 q 1108 279 1124 236 q 1060 350 1093 322 q 979 378 1028 378 q 931 372 953 379 q 889 349 908 364 l 896 342 l 1113 579 l 1021 579 z "},"⅛":{"ha":1025,"x_min":26,"x_max":1008,"o":"m 892 971 l 26 0 l 118 0 l 982 971 l 892 971 m 149 850 l 278 886 l 193 382 l 264 382 l 365 974 l 160 922 l 149 850 m 689 444 q 699 368 683 401 q 747 316 714 335 q 824 297 779 297 q 908 315 869 297 q 972 367 946 333 q 1003 443 997 400 q 992 517 1008 483 q 944 571 976 550 q 868 592 911 592 q 786 572 825 592 q 722 518 747 551 q 689 444 696 485 m 754 435 q 774 481 758 460 q 814 517 790 503 q 864 529 838 531 q 922 500 903 528 q 935 436 940 472 q 914 390 931 411 q 874 355 897 368 q 825 343 850 342 q 784 357 801 344 q 759 390 767 369 q 754 435 751 411 m 619 160 q 631 77 613 115 q 686 16 649 39 q 772 -7 724 -7 q 865 15 822 -7 q 938 76 908 38 q 975 158 968 114 q 971 226 981 196 q 940 279 961 257 q 888 313 918 301 q 822 325 858 325 q 731 304 775 325 q 656 247 686 283 q 619 160 626 210 m 688 167 q 713 223 693 197 q 763 265 733 249 q 821 279 792 281 q 891 244 865 278 q 910 167 917 210 q 862 87 903 119 q 776 56 821 54 q 706 89 732 57 q 688 167 681 121 z "},"⅜":{"ha":1142,"x_min":93,"x_max":1126,"o":"m 1008 971 l 144 0 l 235 0 l 1100 971 l 1008 971 m 275 678 q 372 699 326 682 q 447 748 417 717 q 486 825 478 779 q 478 901 493 865 q 431 958 463 936 q 351 981 399 981 q 231 938 279 982 q 168 831 183 893 l 236 829 q 277 892 247 864 q 347 917 307 919 q 404 888 388 915 q 415 824 421 860 q 391 773 410 794 q 344 739 372 751 q 282 722 317 726 l 275 678 m 253 382 q 346 402 303 382 q 418 459 389 422 q 454 543 447 496 q 449 615 461 585 q 411 665 436 646 q 352 694 386 683 q 279 706 318 704 l 271 660 q 333 646 306 657 q 376 612 361 635 q 383 553 390 589 q 341 478 378 508 q 257 449 304 447 q 188 477 210 450 q 165 543 165 504 l 94 543 q 110 462 93 499 q 163 403 126 425 q 253 382 199 382 m 806 444 q 815 368 800 401 q 863 316 831 335 q 940 297 896 297 q 1024 315 986 297 q 1089 367 1063 333 q 1121 443 1115 400 q 1110 517 1126 483 q 1062 571 1094 550 q 985 592 1029 592 q 903 572 942 592 q 838 518 864 551 q 806 444 813 485 m 871 435 q 891 481 875 460 q 931 517 907 503 q 981 529 954 531 q 1038 500 1019 528 q 1051 436 1057 472 q 1032 390 1049 411 q 992 355 1015 368 q 943 343 968 342 q 901 357 919 344 q 876 390 883 369 q 871 435 868 411 m 736 160 q 749 77 731 115 q 803 16 767 39 q 889 -7 840 -7 q 983 15 939 -7 q 1056 76 1026 38 q 1092 158 1085 114 q 1080 246 1099 208 q 1024 304 1061 283 q 939 325 988 325 q 847 304 892 325 q 773 247 803 283 q 736 160 743 210 m 806 167 q 831 223 811 197 q 881 265 851 249 q 939 279 910 281 q 1008 244 983 278 q 1026 167 1033 210 q 979 87 1019 119 q 893 56 939 54 q 824 89 850 57 q 806 167 799 121 z "},"⅝":{"ha":1189,"x_min":88,"x_max":1174,"o":"m 1056 971 l 192 0 l 282 0 l 1147 971 l 1056 971 m 501 578 q 494 674 508 629 q 447 747 481 718 q 363 775 414 775 q 286 758 324 775 q 219 714 249 742 l 172 661 q 249 699 213 685 q 329 711 286 714 q 390 691 365 710 q 424 643 414 672 q 429 578 435 614 q 402 510 424 540 q 349 463 381 481 q 276 446 317 446 q 199 475 229 446 q 151 542 168 504 l 88 501 q 157 414 114 449 q 272 379 200 379 q 378 403 329 379 q 460 473 428 428 q 501 578 493 518 m 344 907 l 557 908 l 567 969 l 299 969 l 164 653 l 271 732 l 344 907 m 853 444 q 863 368 847 401 q 910 316 878 335 q 988 297 943 297 q 1072 315 1033 297 q 1136 367 1110 333 q 1168 443 1163 400 q 1158 517 1174 483 q 1109 571 1142 550 q 1032 592 1076 592 q 950 572 989 592 q 885 518 911 551 q 853 444 860 485 m 918 435 q 938 481 922 460 q 978 517 954 503 q 1028 529 1001 531 q 1085 500 1067 528 q 1099 436 1104 472 q 1079 390 1096 411 q 1039 355 1063 368 q 990 343 1015 342 q 949 357 967 344 q 923 390 931 369 q 918 435 915 411 m 783 160 q 796 77 778 115 q 851 16 814 39 q 936 -7 888 -7 q 1030 15 986 -7 q 1103 76 1074 38 q 1139 158 1132 114 q 1135 226 1144 196 q 1103 279 1125 257 q 1052 313 1082 301 q 986 325 1022 325 q 894 304 939 325 q 820 247 850 283 q 783 160 790 210 m 853 167 q 878 223 858 197 q 927 265 899 249 q 985 279 956 281 q 1055 244 1029 278 q 1074 167 1081 210 q 1026 87 1067 119 q 940 56 986 54 q 872 89 897 57 q 853 167 846 121 z "},"⅞":{"ha":1040,"x_min":43,"x_max":1025,"o":"m 907 971 l 43 0 l 133 0 l 999 971 l 907 971 m 157 907 l 449 906 l 122 390 l 197 390 l 568 972 l 168 972 l 157 907 m 704 444 q 714 368 699 401 q 763 316 729 335 q 840 297 796 297 q 924 315 886 297 q 988 367 963 333 q 1019 443 1014 400 q 1009 517 1025 483 q 960 571 993 550 q 885 592 928 592 q 803 572 842 592 q 738 518 764 551 q 704 444 711 485 m 769 435 q 790 481 774 460 q 831 517 807 503 q 879 529 854 531 q 938 500 918 528 q 951 436 957 472 q 931 390 947 411 q 890 355 914 368 q 842 343 867 342 q 800 357 818 344 q 774 390 782 369 q 769 435 767 411 m 636 160 q 647 77 629 115 q 702 16 665 39 q 788 -7 739 -7 q 881 15 838 -7 q 954 76 925 38 q 990 158 983 114 q 978 246 997 208 q 923 304 960 283 q 839 325 886 325 q 747 304 792 325 q 673 247 703 283 q 636 160 643 210 m 704 167 q 730 223 710 197 q 779 265 750 249 q 838 279 808 281 q 907 244 882 278 q 925 167 932 210 q 878 87 918 119 q 792 56 838 54 q 723 89 749 57 q 704 167 697 121 z "},"_":{"ha":674,"x_min":-69,"x_max":618,"o":"m -69 -183 l 607 -183 l 618 -108 l -57 -108 l -69 -183 z "},"-":{"ha":283,"x_min":17,"x_max":307,"o":"m 17 279 l 289 279 l 307 382 l 35 382 l 17 279 z "},"‐":{"ha":283,"x_min":17,"x_max":307,"o":"m 17 279 l 289 279 l 307 382 l 35 382 l 17 279 z "},"‒":{"ha":796,"x_min":106,"x_max":731,"o":"m 106 279 l 714 278 l 731 382 l 122 382 l 106 279 z "},"–":{"ha":997,"x_min":106,"x_max":933,"o":"m 106 279 l 915 278 l 933 382 l 122 382 l 106 279 z "},"—":{"ha":1200,"x_min":106,"x_max":1135,"o":"m 106 279 l 1118 278 l 1135 382 l 122 382 l 106 279 z "},"(":{"ha":418,"x_min":133,"x_max":521,"o":"m 418 1082 q 251 757 315 929 q 158 403 186 585 q 144 59 133 232 q 211 -278 156 -114 l 313 -278 q 261 60 265 -112 q 282 403 257 232 q 370 755 311 583 q 521 1082 429 926 l 418 1082 z "},")":{"ha":418,"x_min":-26,"x_max":361,"o":"m 78 -276 q 244 49 181 -124 q 336 403 308 222 q 351 748 361 575 q 283 1085 340 921 l 182 1085 q 234 748 229 921 q 213 403 239 575 q 126 52 185 224 q -26 -276 67 -119 l 78 -276 z "},"[":{"ha":404,"x_min":63,"x_max":522,"o":"m 371 979 l 507 981 l 522 1083 l 278 1083 l 63 -306 l 308 -306 l 325 -201 l 188 -201 l 371 979 z "},"]":{"ha":404,"x_min":-46,"x_max":414,"o":"m 107 -201 l -29 -201 l -46 -306 l 200 -306 l 414 1083 l 169 1083 l 153 979 l 289 979 l 107 -201 z "},"{":{"ha":419,"x_min":90,"x_max":496,"o":"m 358 917 q 383 967 364 947 q 435 986 403 986 l 482 986 l 496 1083 l 413 1083 q 336 1058 372 1083 q 276 990 300 1033 q 243 890 251 947 l 199 597 q 169 499 190 533 q 111 444 149 464 l 99 361 q 139 305 131 339 q 140 208 147 271 l 96 -83 q 101 -181 90 -136 q 140 -251 113 -225 q 207 -278 167 -278 l 288 -278 l 301 -179 l 253 -179 q 219 -170 232 -179 q 201 -145 206 -161 q 199 -111 196 -129 l 236 125 q 247 217 243 169 q 243 307 250 264 q 209 379 236 350 q 128 417 182 408 l 124 390 q 216 424 181 397 q 272 493 251 451 q 303 583 292 535 q 322 681 314 632 l 358 917 z "},"}":{"ha":419,"x_min":13,"x_max":419,"o":"m 150 -111 q 125 -161 144 -142 q 74 -181 106 -181 l 28 -181 l 13 -276 l 97 -276 q 173 -251 138 -276 q 233 -183 208 -226 q 265 -83 258 -139 l 310 208 q 339 308 318 274 q 397 361 360 343 l 410 444 q 369 501 378 468 q 368 597 361 535 l 413 889 q 408 987 419 943 q 369 1057 396 1031 q 301 1083 342 1083 l 221 1083 l 207 986 l 256 986 q 290 976 276 986 q 308 952 303 967 q 310 918 313 938 l 272 681 q 263 590 267 638 q 265 499 258 542 q 299 427 272 457 q 381 389 326 397 l 385 417 q 293 383 329 411 q 237 313 257 354 q 206 222 217 271 q 186 125 194 174 l 150 -111 z "},"#":{"ha":815,"x_min":57,"x_max":851,"o":"m 168 613 l 354 611 l 372 611 l 632 611 l 650 611 l 836 613 l 851 701 l 182 701 l 168 613 m 57 279 l 726 279 l 740 368 l 564 368 l 536 368 l 267 368 l 246 368 l 71 368 l 57 279 m 739 972 l 614 664 l 606 642 l 485 342 l 474 317 l 344 0 l 449 0 l 846 972 l 739 972 m 456 972 l 64 0 l 165 0 l 294 314 l 304 339 l 429 647 l 439 669 l 563 972 l 456 972 z "},"%":{"ha":1013,"x_min":114,"x_max":993,"o":"m 139 765 q 150 656 131 707 q 213 574 169 606 q 319 543 256 543 q 436 574 383 543 q 524 654 489 604 q 568 764 560 704 q 557 873 576 822 q 494 955 538 924 q 388 986 451 986 q 270 956 324 986 q 183 875 217 925 q 139 765 149 825 m 236 764 q 262 828 242 797 q 313 878 282 858 q 379 896 343 897 q 438 875 417 894 q 468 826 460 856 q 471 764 476 796 q 445 700 465 731 q 395 651 425 669 q 328 633 365 632 q 269 654 292 635 q 240 703 247 674 q 236 764 232 733 m 536 210 q 547 101 528 151 q 610 19 567 50 q 717 -12 653 -12 q 833 18 781 -12 q 921 99 886 49 q 964 208 956 149 q 953 317 972 267 q 892 399 935 368 q 785 431 849 431 q 667 400 721 431 q 580 319 614 369 q 536 210 546 269 m 633 208 q 659 272 639 242 q 710 322 679 303 q 776 340 740 342 q 835 319 813 339 q 865 270 857 300 q 868 208 874 240 q 842 144 863 175 q 792 95 822 114 q 725 78 763 76 q 667 99 689 79 q 637 148 644 118 q 633 208 629 178 m 885 972 l 114 0 l 218 0 l 993 972 l 885 972 z "},"‰":{"ha":1525,"x_min":114,"x_max":1485,"o":"m 1049 210 q 1059 101 1040 151 q 1121 19 1078 50 q 1228 -12 1164 -12 q 1346 18 1293 -12 q 1433 99 1399 49 q 1476 208 1468 149 q 1466 317 1485 267 q 1404 399 1447 368 q 1297 431 1361 431 q 1180 400 1233 431 q 1092 319 1126 369 q 1049 210 1058 269 m 1146 208 q 1172 272 1151 242 q 1222 322 1192 303 q 1289 340 1253 342 q 1347 319 1325 339 q 1376 270 1368 300 q 1379 208 1385 240 q 1353 144 1374 175 q 1303 95 1333 114 q 1236 78 1274 76 q 1178 99 1200 79 q 1149 148 1157 118 q 1146 208 1142 178 m 139 765 q 150 656 131 707 q 213 574 169 606 q 319 543 256 543 q 436 574 383 543 q 524 654 489 604 q 568 764 560 704 q 557 873 576 822 q 494 955 538 924 q 388 986 451 986 q 270 956 324 986 q 183 875 217 925 q 139 765 149 825 m 236 764 q 262 828 242 797 q 313 878 282 858 q 379 896 343 897 q 438 875 417 894 q 468 826 460 856 q 471 764 476 796 q 445 700 465 731 q 395 651 425 669 q 328 633 365 632 q 269 654 292 635 q 240 703 247 674 q 236 764 232 733 m 536 210 q 547 101 528 151 q 610 19 567 50 q 717 -12 653 -12 q 833 18 781 -12 q 921 99 886 49 q 964 208 956 149 q 953 317 972 267 q 892 399 935 368 q 785 431 849 431 q 667 400 721 431 q 580 319 614 369 q 536 210 546 269 m 633 208 q 659 272 639 242 q 710 322 679 303 q 776 340 740 342 q 835 319 813 339 q 865 270 857 300 q 868 208 874 240 q 842 144 863 175 q 792 95 822 114 q 725 78 763 76 q 667 99 689 79 q 637 148 644 118 q 633 208 629 178 m 885 972 l 114 0 l 218 0 l 993 972 l 885 972 z "},"‱":{"ha":2036,"x_min":114,"x_max":1997,"o":"m 1561 210 q 1572 101 1553 151 q 1633 19 1590 50 q 1740 -12 1676 -12 q 1858 18 1806 -12 q 1946 99 1911 49 q 1989 208 1981 149 q 1978 317 1997 267 q 1915 399 1958 368 q 1808 431 1872 431 q 1692 400 1744 431 q 1605 319 1639 369 q 1561 210 1571 269 m 1657 208 q 1683 272 1663 242 q 1733 322 1703 303 q 1800 340 1764 342 q 1859 319 1838 339 q 1889 270 1881 300 q 1892 208 1897 240 q 1866 144 1886 175 q 1816 95 1846 114 q 1749 78 1786 76 q 1690 99 1713 79 q 1660 148 1668 118 q 1657 208 1653 178 m 1049 210 q 1059 101 1040 151 q 1121 19 1078 50 q 1228 -12 1164 -12 q 1346 18 1293 -12 q 1433 99 1399 49 q 1476 208 1468 149 q 1466 317 1485 267 q 1404 399 1447 368 q 1297 431 1361 431 q 1180 400 1233 431 q 1092 319 1126 369 q 1049 210 1058 269 m 1146 208 q 1172 272 1151 242 q 1222 322 1192 303 q 1289 340 1253 342 q 1347 319 1325 339 q 1376 270 1368 300 q 1379 208 1385 240 q 1353 144 1374 175 q 1303 95 1333 114 q 1236 78 1274 76 q 1178 99 1200 79 q 1149 148 1157 118 q 1146 208 1142 178 m 139 765 q 150 656 131 707 q 213 574 169 606 q 319 543 256 543 q 436 574 383 543 q 524 654 489 604 q 568 764 560 704 q 557 873 576 822 q 494 955 538 924 q 388 986 451 986 q 270 956 324 986 q 183 875 217 925 q 139 765 149 825 m 236 764 q 262 828 242 797 q 313 878 282 858 q 379 896 343 897 q 438 875 417 894 q 468 826 460 856 q 471 764 476 796 q 445 700 465 731 q 395 651 425 669 q 328 633 365 632 q 269 654 292 635 q 240 703 247 674 q 236 764 232 733 m 536 210 q 547 101 528 151 q 610 19 567 50 q 717 -12 653 -12 q 833 18 781 -12 q 921 99 886 49 q 964 208 956 149 q 953 317 972 267 q 892 399 935 368 q 785 431 849 431 q 667 400 721 431 q 580 319 614 369 q 536 210 546 269 m 633 208 q 659 272 639 242 q 710 322 679 303 q 776 340 740 342 q 835 319 813 339 q 865 270 857 300 q 868 208 874 240 q 842 144 863 175 q 792 95 822 114 q 725 78 763 76 q 667 99 689 79 q 637 148 644 118 q 633 208 629 178 m 885 972 l 114 0 l 218 0 l 993 972 l 885 972 z "},"'":{"ha":385,"x_min":169,"x_max":433,"o":"m 300 972 l 169 557 l 246 557 l 433 972 l 300 972 z "},"\"":{"ha":626,"x_min":169,"x_max":675,"o":"m 300 972 l 169 557 l 246 557 l 433 972 l 300 972 m 542 972 l 411 557 l 488 557 l 675 972 l 542 972 z "},"‘":{"ha":371,"x_min":164,"x_max":433,"o":"m 299 654 l 433 971 l 356 971 l 164 654 l 299 654 z "},"’":{"ha":371,"x_min":140,"x_max":408,"o":"m 275 972 l 140 654 l 217 654 l 408 972 l 275 972 z "},"“":{"ha":640,"x_min":164,"x_max":703,"o":"m 299 654 l 433 971 l 356 971 l 164 654 l 299 654 m 568 654 l 703 971 l 625 971 l 433 654 l 568 654 z "},"”":{"ha":640,"x_min":140,"x_max":679,"o":"m 275 972 l 140 654 l 217 654 l 408 972 l 275 972 m 544 972 l 410 654 l 488 654 l 679 972 l 544 972 z "},"‚":{"ha":371,"x_min":7,"x_max":275,"o":"m 142 111 l 7 -207 l 83 -207 l 275 111 l 142 111 z "},"„":{"ha":640,"x_min":0,"x_max":539,"o":"m 135 111 l 0 -207 l 76 -207 l 268 111 l 135 111 m 404 111 l 269 -207 l 347 -207 l 539 111 l 404 111 z "},"‹":{"ha":472,"x_min":76,"x_max":447,"o":"m 199 360 l 447 617 l 386 681 l 76 358 l 279 28 l 357 89 l 199 360 z "},"›":{"ha":472,"x_min":71,"x_max":442,"o":"m 318 350 l 71 93 l 132 29 l 442 350 l 238 681 l 161 619 l 318 350 z "},"«":{"ha":688,"x_min":76,"x_max":663,"o":"m 415 360 l 663 617 l 603 681 l 293 358 l 496 28 l 572 89 l 415 360 m 199 360 l 447 617 l 386 681 l 76 358 l 279 28 l 357 89 l 199 360 z "},"»":{"ha":688,"x_min":71,"x_max":657,"o":"m 318 350 l 71 93 l 132 29 l 442 350 l 238 681 l 161 619 l 318 350 m 535 350 l 288 93 l 347 29 l 657 350 l 454 681 l 378 619 l 535 350 z "},"*":{"ha":799,"x_min":222,"x_max":753,"o":"m 739 832 l 476 736 l 488 669 l 753 739 l 739 832 m 642 510 l 510 722 l 450 682 l 557 454 l 642 510 m 325 456 l 506 678 l 456 721 l 254 514 l 325 456 m 222 740 l 467 669 l 499 735 l 265 831 l 222 740 m 481 972 l 447 703 l 515 703 l 576 972 l 481 972 z "},"†":{"ha":768,"x_min":196,"x_max":740,"o":"m 213 750 l 196 646 l 724 646 l 740 750 l 213 750 m 454 972 l 275 -207 l 382 -208 l 567 972 l 454 972 z "},"‡":{"ha":768,"x_min":106,"x_max":740,"o":"m 122 167 l 106 63 l 633 63 l 651 167 l 122 167 m 213 750 l 196 646 l 724 646 l 740 750 l 213 750 m 454 972 l 275 -207 l 382 -208 l 567 972 l 454 972 z "},".":{"ha":404,"x_min":99,"x_max":250,"o":"m 99 56 q 121 3 99 25 q 174 -19 143 -19 q 228 3 206 -19 q 250 56 250 25 q 228 110 250 88 q 174 132 206 132 q 121 110 143 132 q 99 56 99 88 z "},",":{"ha":415,"x_min":7,"x_max":292,"o":"m 186 151 l 7 -206 l 83 -235 l 292 108 l 186 151 z "},":":{"ha":404,"x_min":99,"x_max":340,"o":"m 99 56 q 121 3 99 25 q 174 -19 143 -19 q 228 3 206 -19 q 250 56 250 25 q 228 110 250 88 q 174 132 206 132 q 121 110 143 132 q 99 56 99 88 m 189 583 q 211 531 189 553 q 264 508 233 508 q 318 531 296 508 q 340 583 340 553 q 318 638 340 615 q 264 660 296 660 q 211 638 233 660 q 189 583 189 615 z "},";":{"ha":444,"x_min":7,"x_max":381,"o":"m 229 583 q 252 531 229 553 q 306 508 275 508 q 359 531 338 508 q 381 583 381 553 q 359 638 381 615 q 306 660 338 660 q 252 638 275 660 q 229 583 229 615 m 186 151 l 7 -206 l 83 -235 l 292 108 l 186 151 z "},"…":{"ha":1213,"x_min":99,"x_max":1061,"o":"m 100 57 q 106 20 99 38 q 128 -8 114 3 q 163 -19 143 -18 q 201 -10 182 -21 q 233 18 219 0 q 249 54 247 36 q 243 91 251 74 q 220 119 235 108 q 186 132 206 131 q 148 122 167 133 q 116 94 129 111 q 100 57 103 76 m 504 57 q 510 20 503 38 q 533 -8 518 3 q 567 -19 547 -18 q 606 -10 586 -21 q 639 18 625 0 q 654 54 653 36 q 649 91 657 74 q 625 119 640 108 q 590 132 610 131 q 552 122 571 133 q 520 94 533 111 q 504 57 507 76 m 908 57 q 924 5 906 28 q 972 -19 942 -18 q 1010 -10 992 -21 q 1043 18 1029 0 q 1058 54 1057 36 q 1053 91 1061 74 q 1029 119 1044 108 q 994 132 1014 131 q 956 122 975 133 q 924 94 938 111 q 908 57 911 76 z "}}}
